<?xml version="1.0" encoding="utf-8"?>
<!-- Generator: Adobe Illustrator 16.0.0, SVG Export Plug-In . SVG Version: 6.00 Build 0)  -->
<!DOCTYPE svg PUBLIC "-//W3C//DTD SVG 1.1//EN" "http://www.w3.org/Graphics/SVG/1.1/DTD/svg11.dtd">
<svg version="1.1" id="Layer_1" xmlns="http://www.w3.org/2000/svg" xmlns:xlink="http://www.w3.org/1999/xlink" x="0px" y="0px"
	 width="300px" height="300px" viewBox="0 0 300 300" enable-background="new 0 0 300 300" xml:space="preserve">
<rect fill="#F2F2F2" width="300" height="300"/>
<g opacity="0.5">
	<polyline fill="none" stroke="#CECECE" stroke-miterlimit="10" points="0,300 0,0 300,0 	"/>
	<path fill="none" stroke="#CECECE" stroke-miterlimit="10" d="M300,300"/>
	<line fill="none" stroke="#CECECE" stroke-miterlimit="10" x1="0" y1="272.754" x2="300" y2="272.754"/>
	<line fill="none" stroke="#CECECE" stroke-miterlimit="10" x1="0" y1="245.435" x2="300" y2="245.435"/>
	<line fill="none" stroke="#CECECE" stroke-miterlimit="10" x1="0" y1="218.188" x2="300" y2="218.188"/>
	<line fill="none" stroke="#CECECE" stroke-miterlimit="10" x1="0" y1="190.942" x2="300" y2="190.942"/>
	<line fill="none" stroke="#CECECE" stroke-miterlimit="10" x1="0" y1="163.623" x2="300" y2="163.623"/>
	<line fill="none" stroke="#CECECE" stroke-miterlimit="10" x1="0" y1="136.377" x2="300" y2="136.377"/>
	<line fill="none" stroke="#CECECE" stroke-miterlimit="10" x1="0" y1="109.058" x2="300" y2="109.058"/>
	<line fill="none" stroke="#CECECE" stroke-miterlimit="10" x1="0" y1="81.812" x2="300" y2="81.812"/>
	<line fill="none" stroke="#CECECE" stroke-miterlimit="10" x1="0" y1="54.565" x2="300" y2="54.565"/>
	<line fill="none" stroke="#CECECE" stroke-miterlimit="10" x1="0" y1="27.246" x2="300" y2="27.246"/>
	<line fill="none" stroke="#CECECE" stroke-miterlimit="10" x1="272.754" y1="0" x2="272.754" y2="300"/>
	<line fill="none" stroke="#CECECE" stroke-miterlimit="10" x1="245.435" y1="0" x2="245.435" y2="300"/>
	<line fill="none" stroke="#CECECE" stroke-miterlimit="10" x1="218.188" y1="0" x2="218.188" y2="300"/>
	<line fill="none" stroke="#CECECE" stroke-miterlimit="10" x1="190.942" y1="0" x2="190.942" y2="300"/>
	<line fill="none" stroke="#CECECE" stroke-miterlimit="10" x1="163.623" y1="0" x2="163.623" y2="300"/>
	<line fill="none" stroke="#CECECE" stroke-miterlimit="10" x1="136.377" y1="0" x2="136.377" y2="300"/>
	<line fill="none" stroke="#CECECE" stroke-miterlimit="10" x1="109.058" y1="0" x2="109.058" y2="300"/>
	<line fill="none" stroke="#CECECE" stroke-miterlimit="10" x1="81.812" y1="0" x2="81.812" y2="300"/>
	<line fill="none" stroke="#CECECE" stroke-miterlimit="10" x1="54.565" y1="0" x2="54.565" y2="300"/>
	<line fill="none" stroke="#CECECE" stroke-miterlimit="10" x1="27.246" y1="0" x2="27.246" y2="300"/>
</g>
</svg>
