<?xml version="1.0" encoding="utf-8"?>
<!-- Generator: Adobe Illustrator 16.0.0, SVG Export Plug-In . SVG Version: 6.00 Build 0)  -->
<!DOCTYPE svg PUBLIC "-//W3C//DTD SVG 1.1//EN" "http://www.w3.org/Graphics/SVG/1.1/DTD/svg11.dtd">
<svg version="1.1" id="Layer_1" xmlns="http://www.w3.org/2000/svg" xmlns:xlink="http://www.w3.org/1999/xlink" x="0px" y="0px"
	 width="4000px" height="719.542px" viewBox="0 0 4000 719.542" enable-background="new 0 0 4000 719.542" xml:space="preserve">
<g>
	<polygon opacity="0.3" fill="#FFFFFF" points="800,306.586 893.308,468.201 986.617,306.586 	"/>
	<polygon opacity="0.2" fill="#FFFFFF" points="1255.751,182.997 1305.15,268.559 1354.548,182.997 	"/>
	<polygon opacity="0.5" fill="#FFFFFF" points="1100.323,468.201 1149.722,382.639 1199.12,468.201 	"/>
</g>
<g>
	<polygon opacity="0.3" fill="#FFFFFF" points="3579.341,458.718 3762.422,141.612 3945.502,458.718 	"/>
	<polygon opacity="0.1" fill="#FFFFFF" points="3304.656,349.454 3405.241,523.674 3505.827,349.454 	"/>
	<polygon opacity="0.6" fill="#FFFFFF" points="3505.827,526.759 3577.271,650.505 3648.715,526.759 	"/>
</g>
<g>
	<polygon opacity="0.5" fill="#FFFFFF" points="2934.721,552.021 2978.86,475.573 3022.997,552.021 	"/>
	<polygon opacity="0.5" fill="#FFFFFF" points="2514.535,393.76 2594.352,255.515 2674.168,393.76 	"/>
	<polygon opacity="0.2" fill="#FFFFFF" points="2926.28,719.542 3022.999,552.021 3119.715,719.542 	"/>
</g>
<g>
	<polygon opacity="0.6" fill="#FFFFFF" points="0,306.777 93.308,145.162 186.616,306.777 	"/>
	<polygon opacity="0.2" fill="#FFFFFF" points="241.367,441.128 290.767,526.689 340.165,441.128 	"/>
	<polygon opacity="0.3" fill="#FFFFFF" points="411.782,583.297 332.958,719.826 254.132,583.297 	"/>
</g>
<g>
	<polygon opacity="0.1" fill="#FFFFFF" points="1933.635,64.163 2055.751,275.675 2177.867,64.163 	"/>
	<polygon opacity="0.8" fill="#FFFFFF" points="1988.458,623.965 2068.275,485.72 2148.091,623.965 	"/>
	<polygon opacity="0.4" fill="#FFFFFF" points="1693.308,468.201 1786.616,306.586 1879.925,468.201 	"/>
</g>
</svg>
