<?xml version="1.0" encoding="utf-8"?>
<!-- Generator: Adobe Illustrator 21.0.2, SVG Export Plug-In . SVG Version: 6.00 Build 0)  -->
<svg version="1.1" id="Layer_1" xmlns="http://www.w3.org/2000/svg" xmlns:xlink="http://www.w3.org/1999/xlink" x="0px" y="0px"
	 viewBox="0 0 1250 1178.1" style="enable-background:new 0 0 1250 1178.1;" xml:space="preserve">
<style type="text/css">
	.st0{fill:#DEDEDE;}
</style>
<path class="st0" d="M1032,343.7c0-8.3,3.1-12.5,12.5-12.5H1208c8.3,0,12.5,3.1,12.5,12.5v821.9c0,8.3-2.1,12.5-12.5,12.5h-161.5
	c-10.4,0-13.5-5.2-13.5-13.5V343.7H1032L1032,343.7z"/>
<path class="st0" d="M1020.5,107.2c0-66.7,46.9-106.2,106.3-106.2c63.5,0,106.2,42.7,106.2,106.2c0,68.8-44.8,106.2-108.3,106.2
	C1064.3,213.5,1020.5,176,1020.5,107.2z"/>
<path class="st0" d="M877.8,1164.5L546.6,40.6c-2.1-8.3-5.2-10.4-12.5-10.4H315.3c-5.2,0-8.3,3.1-8.3,10.4
	c-2.1,51-5.2,67.7-10.4,86.5L0.7,1162.5c-2.1,12.5,0,15.6,10.4,15.6h153.1c10.4,0,13.5-2.1,15.6-10.4l82.3-312.5h333.3l85.4,313.5
	c2.1,7.3,7.3,9.4,15.6,9.4h172.9C877.8,1178.1,879.9,1172.9,877.8,1164.5z M304.9,686.4c43.7-161.5,99-367.7,120.8-489.6h2.1
	c26,121.9,94.8,374,124,489.6H304.9z"/>
</svg>
