<?xml version="1.0" encoding="utf-8"?>
<!-- Generator: Adobe Illustrator 21.0.2, SVG Export Plug-In . SVG Version: 6.00 Build 0)  -->
<svg version="1.1" id="Layer_1" xmlns="http://www.w3.org/2000/svg" xmlns:xlink="http://www.w3.org/1999/xlink" x="0px" y="0px"
	 viewBox="0 0 342 480" style="enable-background:new 0 0 342 480;" xml:space="preserve">
<style type="text/css">
	.st0{fill:#DEDEDE;}
</style>
<g id="_x23_000000ff">
	<path class="st0" d="M68.4,1c21-0.3,42-0.1,63-0.1c0.1,6.6,0.1,13.1-0.1,19.7c-14.6-0.1-29.1,0-43.6,0.1
		c-0.1,9.5-0.3,19.1-0.2,28.6c14.6,0.1,29.2,0.2,43.8,0.2c0.2,5.4,0.1,10.8-0.1,16.2c-20.9-0.1-41.9-0.1-62.8-0.1
		C68.4,44.1,68.5,22.5,68.4,1z"/>
	<path class="st0" d="M138.9,0.9c21.3,0,42.5-0.2,63.8,0.1c-0.1,6.2,0,12.4,0,18.6c-15.5,0-30.9,0-46.4,0.2c0,2.4,0,4.9,0,7.3
		c15.4,0.3,30.9,0.3,46.3,0.4c0.1,12.7,0,25.5,0.1,38.2c-21.3,0-42.5,0-63.8,0.1c-0.1-5.1-0.1-10.3,0-15.4c14.7,0,29.5,0.1,44.2-0.1
		c0.1-3.3,0.1-6.6,0.1-9.9c-14.8,0-29.6,0-44.4,0C138.8,27.1,138.8,14,138.9,0.9z"/>
	<path class="st0" d="M209.8,1c21.2,0,42.4,0,63.7,0c0.1,6.2,0.2,12.5,0,18.7c-15.5,0-31.1,0.1-46.6,0.1c0,2.5,0.1,5.1,0.2,7.6
		c15.4-0.1,30.9,0.1,46.3,0.3c0.1,12.7,0.2,25.3,0.1,38c-21.3-0.1-42.5-0.1-63.8,0c-0.1-5.1-0.2-10.3,0.1-15.4
		c14.7,0.1,29.4,0.1,44.1,0c0-3.3,0.1-6.6,0.1-10c-14.8,0.1-29.6,0.1-44.3,0C209.6,27.3,209.7,14.1,209.8,1z"/>
</g>
<path class="st0" d="M0,92.5v1.9c2.2,18.8,3.5,37.8,5.3,56.6c5.3,62.7,11.3,125.4,16.7,188c2.9,33.9,5.9,67.9,9.1,101.8
	c25.1,6.7,49.9,14.3,75,21c21.3,6.3,42.7,11.9,64,18.2h0.7c22.3-6.5,44.8-12.4,67.1-19c24.3-6.5,48.4-13.8,72.7-20.3
	c4.2-45.2,8.2-90.5,12.1-135.8c6.5-70.8,12.7-141.7,19-212.5C227.8,92.4,113.9,92.4,0,92.5z M164.4,404.6
	c-17.7-4.7-35.7-8.8-53.4-13.6c-11.6-3.1-23.2-6.1-34.7-9.1c-3.4-21.8-5.3-43.8-6.5-65.9c11.8-0.2,23.5-0.1,35.2-0.1
	c2.4,0,4.9,0,7.2,0.7c1,11.5,1.8,23,3,34.4c8.1,2.4,16.5,3.3,24.7,5.1c10.4,1.9,20.7,4.2,31.2,5.7c5.7-2.7,11.8-4.1,17.8-5.9
	c11.2-3.4,22.5-6.4,33.6-10.1c1-18.5,2.5-37,3.5-55.6c-18.1,0.1-36.3-0.4-54.4-0.1c-15.5,0.3-31.1,0-46.6,0.1
	c-19.4,0-38.8,0.3-58.1,0.4c-1-14.5-3.4-28.9-3.6-43.4c2.4-1.8,5.4-2.7,8.1-3.9c31.9-14,64.1-27.4,96-41.7
	c-36.4-1.1-72.8,0.3-109.1-1c-1.8-13.1-3.6-26.2-4.3-39.4c39.1,0,78.2-0.1,117.3,0c37.5,0.2,75.1-0.1,112.6,0.2
	c-0.5,11.2-2,22.4-2.8,33.6c-0.4,3.5-0.3,7.1-1.3,10.6c-2.4,1.9-5.3,2.9-8,4.1c-14.1,6.3-28.3,12.2-42.4,18.6
	c-14.6,6.6-29.6,12.4-43.9,19.7c3.8,0.3,7.7,0.3,11.6,0.3c26.5-0.1,53,0,79.5-0.2c-2.8,44.3-7.1,88.5-11.1,132.7
	c-31.2,8.1-62.2,16.8-93.4,24.6c-0.3,0.1-0.9,0.2-1.2,0.2C168.6,405.9,166.5,405.1,164.4,404.6z"/>
</svg>
