<?xml version="1.0" encoding="utf-8"?>
<!-- Generator: Adobe Illustrator 21.0.2, SVG Export Plug-In . SVG Version: 6.00 Build 0)  -->
<svg version="1.1" id="Layer_1" xmlns="http://www.w3.org/2000/svg" xmlns:xlink="http://www.w3.org/1999/xlink" x="0px" y="0px"
	 viewBox="0 0 512 512" style="enable-background:new 0 0 512 512;" xml:space="preserve">
<style type="text/css">
	.st0{fill:#DEDEDE;}
</style>
<g>
	<path class="st0" d="M108.4,0h23.1v22.8h21.1V0h23.1v69h-23.1V45.9h-21.1V69h-23.1L108.4,0L108.4,0z"/>
	<path class="st0" d="M206,22.9h-20.3V0h63.7v22.9h-20.3V69H206L206,22.9L206,22.9z"/>
	<path class="st0" d="M259.5,0h24.1l14.8,24.3L313.2,0h24.1v69h-23V34.8l-15.9,24.5H298l-15.9-24.5V69h-22.6L259.5,0L259.5,0z"/>
	<path class="st0" d="M348.7,0h23.1v46.2h32.5V69h-55.5V0z"/>
</g>
<path class="st0" d="M74.6,100.6l33,370.3L255.8,512l148.5-41.2l33-370.2C437.4,100.6,74.6,100.6,74.6,100.6z M368.5,188.5l-2.1,23
	l-0.9,10.2h-0.1H256h-0.2h-64.1l4.1,46.5h59.9h0.2h93.2h12.2l-1.1,12.2L349.6,400l-0.7,7.7L256,433.4v0l-0.2,0.1l-93-25.8l-6.4-71.3
	h21H202l3.2,36.2l50.6,13.7l0,0v0l50.6-13.7l5.3-58.9H256h-0.2H154.4l-11.2-125.1l-1.1-12.2h113.7h0.2h113.6L368.5,188.5z"/>
</svg>
