<?xml version="1.0" encoding="utf-8"?>
<!-- Generator: Adobe Illustrator 21.0.2, SVG Export Plug-In . SVG Version: 6.00 Build 0)  -->
<svg version="1.1" id="Layer_1" xmlns="http://www.w3.org/2000/svg" xmlns:xlink="http://www.w3.org/1999/xlink" x="0px" y="0px"
	 viewBox="0 0 2148.5 2148.5" style="enable-background:new 0 0 2148.5 2148.5;" xml:space="preserve">
<style type="text/css">
	.st0{fill:#DEDEDE;}
</style>
<g>
	<path class="st0" d="M710.3,1857.5L710.3,1857.5l-13.6,48.1L710.3,1857.5z M780.1,1961.9l-15-0.1L780.1,1961.9z M776.2,2033.7
		L776.2,2033.7l-89.6,0.3L776.2,2033.7z M795,1962l-15-0.1L795,1962z M784.1,2027.6l15.6-59.5L784.1,2027.6L784.1,2027.6
		L784.1,2027.6z M1113.9,1753.5l-29.1,136.7L1113.9,1753.5z M1039.2,1753.5l-22.1,102.1L1039.2,1753.5L1039.2,1753.5z"/>
	<path class="st0" d="M1108.9,1747.4h-62.2c-3.4,0-6.9,2.8-7.6,6.1l-22.1,102.1L995,1957.7c-0.7,3.4-4.2,6.1-7.6,6.1h-44
		c-43.5,0-38.5-30.1-29.6-71.4l0.3-1.2l1-5.2c0.1-0.3,0.1-0.7,0.2-1l2-10.6l2.1-11.3c0.6-3.4,1.6-8.4,2.3-11.6l10-49l10-49
		c0.7-3.4-1.6-6.2-5-6.2h-63.8c-3.5,0-6.9,2.8-7.6,6.1l-13.7,65.1l-13.7,65.1c0,0,0,0.1,0,0.1l-1.3,6.1
		c-15.8,72.1-11.6,140.9,74.3,143.1c1.4,0,2.5,0.1,2.5,0.1h134.8c3.4,0,6.9-2.8,7.6-6.1l29.1-136.6l29.1-136.7
		C1114.6,1750.1,1112.4,1747.4,1108.9,1747.4z M1356.9,1964.5c3.5,0,5.7,2.8,5,6.1l-6,29.5 M1349.9,2029.7l6-29.5L1349.9,2029.7
		L1349.9,2029.7z M1342.3,2035.9L1342.3,2035.9c-18.3,0.1-73.2,0.6-114.6,0.6C1278,2036.5,1342.3,2035.9,1342.3,2035.9z
		 M1190.7,1926.5c-0.1-3.2,3.6-8.8,7.1-8.8l-7.8-0.1C1186.5,1952.8,1190.7,1926.5,1190.7,1926.5z"/>
	<path class="st0" d="M1233.4,2036.5c-0.4,0-0.8,0-1.2,0C1232.6,2036.5,1233,2036.5,1233.4,2036.5z M1356.9,1964.5
		c3.5,0,5.7,2.8,5,6.1l-6,29.5l-1,4.8 M1262.9,2036.4h-0.3H1262.9z M1247.6,2036.4h-0.9H1247.6z M1242.9,2036.5c-0.5,0-1,0-1.5,0
		C1242,2036.5,1242.4,2036.5,1242.9,2036.5z M1238.2,2036.5h-1.3H1238.2z M1246.7,2036.4l-3.8,0L1246.7,2036.4z M1342.4,2035.9
		c-13.4,0.1-46.5,0.4-79.5,0.5C1295.8,2036.3,1328.9,2036,1342.4,2035.9z M1349.9,2029.7l5.1-24.7L1349.9,2029.7L1349.9,2029.7
		L1349.9,2029.7z M1241.5,2036.5h-3.3H1241.5z M1232.2,2036.5h-4.4H1232.2z M1236.9,2036.5h-3.5H1236.9z M327.6,1927.3l9.7-42.8
		l-11,48.9l-10.6,49.8l9.3-43.7C325.6,1936.2,326.8,1930.7,327.6,1927.3L327.6,1927.3z M443.2,1746.6h-68.3c-3.5,0-6.9,2.8-7.7,6.1
		l-6.5,28.6l-6.5,28.6c-0.8,3.4,1.4,6.1,4.9,6.1H428c3.4,0,6.9-2.8,7.6-6.1l6.3-28.6l6.3-28.6v0
		C448.9,1749.4,446.6,1746.6,443.2,1746.6L443.2,1746.6z M428.3,1841.7L428.3,1841.7l-20,92.6L428.3,1841.7z M230,2148.6
		c0,0,34.4,0.4,56.3,0.4C269.7,2149.1,242.2,2148.7,230,2148.6L230,2148.6L230,2148.6L230,2148.6z M346.9,1841.7l-9.7,42.8
		L346.9,1841.7z"/>
	<path class="st0" d="M423.4,1835.6h-68.8c-3.4,0-6.9,2.8-7.7,6.1l-9.7,42.8l-9.7,42.8c-0.8,3.4-2,8.9-2.7,12.3l-9.3,43.7l-9.3,43.7
		c-0.7,3.4-2.2,8.8-3.3,12.1c0,0-12.9,38.2-34.5,37.8c-0.9,0-1.8,0-2.7,0c-10.5-0.2-18.7-0.4-18.7-0.4h0c-3.4-0.1-6.9,2.6-7.7,6
		l-7.1,30l-7.1,30c-0.8,3.4,1.4,6.1,4.8,6.2c12.3,0.2,39.7,0.5,56.3,0.5c54,0,82.4-29.9,100.7-116l21.3-98.8l20-92.6
		C429.1,1838.3,426.8,1835.6,423.4,1835.6L423.4,1835.6z M1400.8,2033c-3.4,0-5.7-2.8-4.9-6.1l51.8-242.4 M1472.7,2026.8l20.9-103.5
		L1472.7,2026.8z"/>
	<path class="st0" d="M1396.6,2029.9c-0.4-1.7-0.2-5.8,0.6-9.2l24.6-115.1l-25.9,121.2c-0.7,3.4,1.5,6.2,4.9,6.2h6.3
		C1403.6,2033,1397,2031.6,1396.6,2029.9z M1468.6,2031.6c-1.9,0.8-6.2,1.4-9.7,1.4h6.3c3.4,0,6.8-2.8,7.5-6.2l1.2-6.2
		C1473.3,2024,1470.5,2030.8,1468.6,2031.6L1468.6,2031.6z M1483.2,1975.1l9.2-45.7c0,0,0,0.1,0,0.1L1483.2,1975.1L1483.2,1975.1z
		 M1687.4,1800.6l2.9,11.8c0.8,3.4-1.4,6.1-4.8,6.1 M1474,2020.7l9.2-45.6L1474,2020.7z M1684.6,1788.6l2.8,12.1L1684.6,1788.6z
		 M1492.4,1929.4c0.7-3.4,1.8-8.9,2.5-12.2l9.9-46.2l-11.2,52.4L1492.4,1929.4z M1448.4,1780.4c-0.7,3.3-1.6,7.4-2.2,10.1
		l-24.5,115.1l25.9-121.2L1448.4,1780.4z"/>
	<path class="st0" d="M1690.2,1812.4l-2.8-11.8l-2.8-12.1l-1.4-6.1c-5.6-21.7-22-34.2-57.6-34.2l-55.5-0.1l-51.1-0.1h-57.5
		c-3.4,0-6.9,2.8-7.6,6.1l-2.5,12l-3,14.2l-0.8,4l-25.9,121.2l-24.6,115.1c-0.7,3.4-1,7.5-0.6,9.2c0.4,1.7,7,3.1,10.5,3.1h51.8
		c3.5,0,7.8-0.6,9.7-1.4c1.9-0.8,4.7-7.5,5.4-10.9l9.2-45.6l9.2-45.6c0,0,0-0.1,0-0.1l1.2-6.1l11.2-52.4l9.9-46.3
		c0.7-3.4,4.1-6.1,7.6-6.1l163.1-0.1C1688.9,1818.5,1691,1815.8,1690.2,1812.4L1690.2,1812.4z"/>
	<path class="st0" d="M1900.3,1705.9c-3.5,0-9.1,0-12.6,0h-52.2c-3.5,0-7.9,2.3-9.8,5.2l-115.5,169.2c-2,2.9-4.2,2.4-4.9-0.9
		l-8.5-37.3c-0.8-3.4-4.2-6.1-7.7-6.1h-74.2c-3.5,0-5.5,2.7-4.6,6l33.3,116.5c0.9,3.3,1,8.8,0.2,12.1l-14.5,56.4
		c-0.9,3.3,1.3,6.1,4.7,6.1h73.4c3.4,0,7-2.7,7.8-6.1l14.5-56.4c0.9-3.3,3.3-8.3,5.3-11.1l187.5-248.8c2.1-2.8,1-5-2.5-5
		L1900.3,1705.9L1900.3,1705.9z M1310.5,1851.8L1310.5,1851.8c-0.4,3.7-3.9,6.4-7.4,6.4h-94.1c-3.3,0-4.9-2.2-4.4-4.9
		c0-0.1,0-0.1,0.1-0.2c0,0,0,0-0.1,0c0-0.1,0-0.2,0.1-0.3c0,0,0.2-0.7,0.4-1.6c9-23.9,27.3-39.6,61.7-39.6
		C1305.6,1811.6,1313.2,1830.5,1310.5,1851.8L1310.5,1851.8z M1282.9,1743.2c-120.8,0-149.4,73.3-165.5,147.3
		c-16.1,75.4-14.7,146,110.3,146h4.4c0.4,0,0.8,0,1.2,0h8.1c0.5,0,1,0,1.5,0l3.8,0h0.9c4.9,0,10,0,15-0.1h0.3
		c33-0.1,66.1-0.4,79.5-0.5c3.4-0.1,6.8-2.8,7.5-6.2l5.1-24.7l1-4.8l6-29.5c0.7-3.4-1.6-6.1-5-6.1h-112.4c-44.7,0-58-11.9-53.1-46.8
		h179.6l0,0c0,0,0.1,0,0.1,0c2.9-0.1,5.5-2,6.5-4.6c0.2-0.5,0.4-1,0.4-1.6l0,0C1404.8,1811,1397.2,1743.2,1282.9,1743.2
		L1282.9,1743.2z M712,1851.4l-1.7,6l0,0l-13.6,48.1l-13.6,48.1c-0.9,3.3-4.5,6-8,6h-71.8c-54.5,0-67.7-42.6-54.5-105.4
		c13.3-64.3,39.3-104.2,92.9-108.2C715,1740.5,729.7,1792,712,1851.4L712,1851.4z M761.2,1955.9c0,0,33.8-82.2,41.5-129.7
		c10.5-63.5-21.3-155.7-144.2-155.7c-122.2,0-175.3,88-195.5,183.6c-20.2,96.3,6.3,180.8,127.8,180.2l95.8-0.4l89.6-0.3
		c3.5,0,7-2.8,7.9-6.1l15.6-59.5c0.9-3.3-1.2-6.1-4.7-6.1l-15-0.1l-15-0.1c-2.9,0-4.6-1.9-4.3-4.4
		C760.9,1956.9,761.1,1956.4,761.2,1955.9L761.2,1955.9L761.2,1955.9L761.2,1955.9z"/>
	<path class="st0" d="M1366.2,1900.9c0,2.3-1.8,4.1-4.1,4.1c-2.3,0-4.1-1.9-4.1-4.1c0-2.3,1.8-4.1,4.1-4.1
		C1364.3,1896.8,1366.2,1898.7,1366.2,1900.9z"/>
</g>
<g>
	<path class="st0" d="M1895.6,1179.7c-683,1117.6-2173.2-144.9-1448.8-931.4C343.3,1635.1,1688.6,1448.8,1895.6,1179.7z
		 M860.7,124.2c-579.5,538.1,538.1,1469.5,1034.9,641.6C1688.6,972.8,736.5,972.8,860.7,124.2 M1274.6,0
		c-103.5,496.7,455.3,558.8,620.9,434.6C1419.5,931.4,902.1,227.7,1274.6,0z"/>
</g>
</svg>
