<?xml version="1.0" encoding="utf-8"?>
<!-- Generator: Adobe Illustrator 21.0.2, SVG Export Plug-In . SVG Version: 6.00 Build 0)  -->
<svg version="1.1" id="Layer_1" xmlns="http://www.w3.org/2000/svg" xmlns:xlink="http://www.w3.org/1999/xlink" x="0px" y="0px"
	 viewBox="0 0 500 380" style="enable-background:new 0 0 500 380;" xml:space="preserve">
<style type="text/css">
	.st0{fill:#FFFFFF;}
	.st1{enable-background:new    ;}
</style>
<g>
	<g>
		<path class="st0" d="M109.2,280.9c-54.3,0-98.4-44.1-98.4-98.4s44.1-98.4,98.4-98.4c54.3,0,98.4,44.1,98.4,98.4
			S163.5,280.9,109.2,280.9z M109.2,92.1c-49.8,0-90.4,40.6-90.4,90.4s40.6,90.4,90.4,90.4c49.8,0,90.4-40.6,90.4-90.4
			S159,92.1,109.2,92.1z"/>
	</g>
	<g>
		<path class="st0" d="M400.4,271.2c-48.9,0-88.7-39.8-88.7-88.7c0-48.9,39.8-88.7,88.7-88.7s88.7,39.8,88.7,88.7
			C489.1,231.4,449.3,271.2,400.4,271.2z M400.4,101.8c-44.5,0-80.7,36.2-80.7,80.7s36.2,80.7,80.7,80.7s80.7-36.2,80.7-80.7
			S444.9,101.8,400.4,101.8z"/>
	</g>
	<g>
		<polygon class="st0" points="400.4,186.5 109.2,186.5 107.1,179.1 324.4,43.3 171.4,43.3 171.4,35.3 338.4,35.3 340.5,42.7 
			123.2,178.5 400.4,178.5 		"/>
	</g>
</g>
<path class="st0" d="M80.3,324.1v2.1H34.3v-2.1H80.3z M43.6,344.3h30.7v2.1H41.3v-14.6h2.2V344.3z M57.3,298.8c2,0,3.9,0.1,5.7,0.6
	c1.8,0.3,3.5,0.8,4.9,1.7c1.4,0.7,2.5,1.7,3.4,2.8c0.8,1.1,1.3,2.4,1.3,3.9v1.7c0,1.4-0.4,2.8-1.3,3.9c-0.8,1.1-2,2.1-3.4,2.8
	c-1.4,0.7-3.1,1.3-4.9,1.7c-1.8,0.4-3.8,0.6-5.7,0.6s-3.9-0.1-5.7-0.6c-1.8-0.3-3.5-0.8-4.9-1.7c-1.4-0.7-2.5-1.7-3.4-2.8
	c-0.8-1.1-1.3-2.4-1.3-3.9v-1.7c0-1.5,0.4-2.8,1.3-3.9c0.8-1.1,2-2.1,3.4-2.8c1.4-0.7,3.1-1.3,4.9-1.7
	C53.4,298.9,55.3,298.8,57.3,298.8z M57.3,316.2c1.7,0,3.2-0.1,4.8-0.4c1.5-0.3,2.9-0.7,4.1-1.3c1.3-0.6,2.2-1.3,2.9-2.1
	c0.7-0.8,1.1-1.8,1.1-3.1v-1.4c0-1.3-0.4-2.2-1.1-3.2c-0.7-0.8-1.7-1.5-2.9-2.1c-1.3-0.6-2.5-1-4.1-1.3c-1.5-0.3-3.1-0.4-4.8-0.4
	s-3.2,0.1-4.8,0.4c-1.5,0.3-2.9,0.7-4.1,1.3c-1.3,0.6-2.2,1.3-2.9,2.1s-1.1,2-1.1,3.2v1.4c0,1.3,0.4,2.2,1.1,3.2
	c0.7,0.8,1.7,1.5,2.9,2.1c1.3,0.6,2.5,1,4.1,1.3C54.1,316,55.6,316.2,57.3,316.2z"/>
<path class="st0" d="M243.7,320.2c-0.1,0.4-0.3,1-0.7,1.5c-0.3,0.6-0.7,1.1-1.1,1.7c-0.4,0.6-1,1.1-1.4,1.7c-0.6,0.6-1,1.1-1.4,1.5
	c-0.4,0.4-1,1-1.5,1.7c-0.6,0.7-1.3,1.4-2.1,2.1c-0.8,0.7-1.5,1.5-2.4,2.2c-0.8,0.8-1.7,1.5-2.4,2.2l-1.5-1.7
	c1.8-1.7,3.6-3.2,5.2-4.8c1.5-1.5,3.1-3.1,4.3-4.6c0.8-1,1.5-2,2.1-2.7c0.6-0.7,0.8-1.5,1.1-2.2c0.3-0.7,0.4-1.5,0.6-2.2
	c0.1-0.8,0.1-1.8,0.1-2.9v-9.5h-12.2v-2.1H257v2.1h-12.2v9.5c0,1.1,0,2.1,0.1,2.8c0.1,0.8,0.3,1.5,0.6,2.2c0.3,0.7,0.7,1.3,1.1,2
	c0.4,0.7,1.1,1.4,1.8,2.2c1.3,1.4,2.8,2.9,4.5,4.5s3.4,3.2,5.2,4.9l-1.5,1.5c-1.5-1.4-3.1-2.8-4.6-4.3s-2.9-2.9-4.2-4.2
	c-0.3-0.4-0.7-0.7-1.1-1.1c-0.4-0.4-0.8-0.8-1.3-1.3c-0.4-0.4-0.7-0.8-1-1.4C244.1,321,243.9,320.6,243.7,320.2L243.7,320.2z
	 M266.3,347.2v-49.8h2.4v49.8H266.3z"/>
<g class="st1">
	<path class="st0" d="M432,306.5v-7.6h2.4v7.6h10.7v2.2h-24.6v-2.2H432z M433.1,334.3c-1.8,0-3.4-0.3-4.7-0.9
		c-1.3-0.6-2.4-1.3-3.3-2.2c-0.9-0.9-1.5-1.9-2-3c-0.4-1.1-0.6-2.2-0.6-3.2v-3.2c0-1.1,0.2-2.1,0.6-3.2c0.4-1.1,1.1-2.1,2-3
		c0.9-0.9,2-1.6,3.3-2.2c1.3-0.6,2.9-0.9,4.7-0.9s3.4,0.3,4.7,0.9c1.3,0.6,2.4,1.3,3.3,2.2c0.9,0.9,1.5,1.9,2,3
		c0.4,1.1,0.6,2.2,0.6,3.2v3.2c0,1.1-0.2,2.1-0.6,3.2c-0.4,1.1-1.1,2.1-2,3c-0.9,0.9-2,1.6-3.3,2.2
		C436.4,334.1,434.9,334.3,433.1,334.3z M433.1,314.9c-1.4,0-2.5,0.2-3.6,0.6c-1,0.4-1.9,0.9-2.6,1.6c-0.7,0.7-1.2,1.4-1.6,2.3
		c-0.3,0.9-0.5,1.7-0.5,2.6v3.1c0,0.9,0.2,1.8,0.5,2.6c0.3,0.9,0.9,1.6,1.6,2.3c0.7,0.7,1.6,1.2,2.6,1.6c1,0.4,2.2,0.6,3.6,0.6
		c1.4,0,2.5-0.2,3.6-0.6c1-0.4,1.9-0.9,2.6-1.6c0.7-0.7,1.2-1.4,1.6-2.3c0.3-0.9,0.5-1.7,0.5-2.6V322c0-0.9-0.2-1.8-0.5-2.6
		c-0.3-0.9-0.9-1.6-1.6-2.3c-0.7-0.7-1.6-1.2-2.6-1.6C435.6,315.1,434.4,314.9,433.1,314.9z M445.2,326.3h6.1v-9.9h-6.2v-2.1h6.2
		v-15.8h2.4v46.3h-2.4v-16.3h-6.1V326.3z M460.8,297.4h2.4v49.8h-2.4V297.4z"/>
</g>
</svg>
