<?xml version="1.0" encoding="utf-8"?>
<!-- Generator: Adobe Illustrator 21.0.2, SVG Export Plug-In . SVG Version: 6.00 Build 0)  -->
<svg version="1.1" id="Layer_1" xmlns="http://www.w3.org/2000/svg" xmlns:xlink="http://www.w3.org/1999/xlink" x="0px" y="0px"
	 viewBox="0 0 1314.6 1166.7" style="enable-background:new 0 0 1314.6 1166.7;" xml:space="preserve">
<style type="text/css">
	.st0{fill:#DEDEDE;}
</style>
<path class="st0" d="M1081.3,446.9c-82.3,0-110.4,41.7-110.4,76c0,37.5,18.7,63.5,129.2,120.8c163.5,79.2,214.6,155.2,214.6,266.7
	c0,166.7-127.1,256.2-299,256.2c-90.6,0-168.8-18.8-213.5-44.8c-7.3-3.1-8.3-8.3-8.3-16.7V952.1c0-10.4,5.2-13.5,12.5-8.3
	c65.6,42.7,140.6,61.5,209.4,61.5c82.3,0,116.7-34.4,116.7-81.3c0-37.5-24-70.8-129.2-125c-147.9-70.8-209.4-142.7-209.4-262.5
	c0-134.4,105.2-245.8,287.5-245.8c89.6,0,152.1,13.5,186.5,29.2c8.3,5.2,10.4,13.5,10.4,20.8v142.7c0,8.3-5.2,13.5-15.6,10.4
	C1216.7,464.6,1149,446.9,1081.3,446.9L1081.3,446.9z"/>
<path class="st0" d="M291.7,0C188.5,0,89.6,2.1,22.9,5.2C14.6,5.2,0,10.4,0,17.7h0v1118.8c0,9.4,4.2,12.5,12.5,12.5h159.4
	c9.4,0,12.5-4.2,12.5-12.5v-400c28.1,0,41.7,2.1,81.3,2.1c235.4,0,427.1-113.5,427.1-378.1C692.7,158.3,580.2,0,291.7,0z
	 M269.8,572.9c-41.7,0-60.4,0-84.4-2.1V168.8c18.8-1,58.3-3.1,100-3.1c138.5,0,220.8,66.7,220.8,199
	C506.3,530.2,391.7,572.9,269.8,572.9z"/>
</svg>
