<?xml version="1.0" encoding="utf-8"?>
<!-- Generator: Adobe Illustrator 21.0.2, SVG Export Plug-In . SVG Version: 6.00 Build 0)  -->
<svg version="1.1" id="Layer_1" xmlns="http://www.w3.org/2000/svg" xmlns:xlink="http://www.w3.org/1999/xlink" x="0px" y="0px"
	 viewBox="0 0 4702.7 512" style="enable-background:new 0 0 4702.7 512;" xml:space="preserve">
<style type="text/css">
	.st0{fill:#DEDEDE;}
</style>
<g>
	<path class="st0" d="M0,0h23.1v22.8h21.1V0h23.1v69H44.2V45.9H23.1V69H0V0L0,0z"/>
	<path class="st0" d="M97.6,22.9H77.3V0H141v22.9h-20.3V69H97.6V22.9L97.6,22.9z"/>
	<path class="st0" d="M151.1,0h24.1L190,24.3L204.8,0h24.1v69h-23V34.8L190,59.3h-0.4l-15.9-24.5V69h-22.6V0L151.1,0z"/>
	<path class="st0" d="M240.3,0h23.1v46.2h32.5V69h-55.5V0H240.3z"/>
</g>
<path class="st0" d="M0,100.6l33,370.3L181.2,512l148.5-41.2l33-370.2C362.8,100.6,0,100.6,0,100.6z M293.9,188.5l-2.1,23l-0.9,10.2
	h-0.1H181.4h-0.2h-64.1l4.1,46.5h59.9h0.2h93.2h12.2l-1.1,12.2L275,400l-0.7,7.7l-92.9,25.7l0,0l-0.2,0.1l-93-25.8l-6.4-71.3h21
	h24.6l3.2,36.2l50.6,13.7l0,0l0,0l50.6-13.7l5.3-58.9h-55.7h-0.2H79.8L68.6,188.6l-1.1-12.2h113.7h0.2H295L293.9,188.5z"/>
<g>
	<g>
		<path class="st0" d="M1962.7,419.6L1962.7,419.6l-2.8,10.1L1962.7,419.6z M1977.3,441.5l-3.1,0L1977.3,441.5z M1976.5,456.5
			L1976.5,456.5l-18.7,0.1L1976.5,456.5z M1980.4,441.5l-3.1,0L1980.4,441.5z M1978.2,455.2l3.3-12.4L1978.2,455.2L1978.2,455.2
			L1978.2,455.2z M2047.1,397.9l-6.1,28.6L2047.1,397.9z M2031.5,397.9l-4.6,21.3L2031.5,397.9L2031.5,397.9z"/>
		<path class="st0" d="M2046.1,396.6h-13c-0.7,0-1.4,0.6-1.6,1.3l-4.6,21.3l-4.6,21.3c-0.1,0.7-0.9,1.3-1.6,1.3h-9.2
			c-9.1,0-8-6.3-6.2-14.9l0.1-0.3l0.2-1.1c0-0.1,0-0.1,0-0.2l0.4-2.2l0.4-2.4c0.1-0.7,0.3-1.8,0.5-2.4l2.1-10.2l2.1-10.2
			c0.1-0.7-0.3-1.3-1-1.3h-13.3c-0.7,0-1.4,0.6-1.6,1.3l-2.9,13.6l-2.9,13.6v0l-0.3,1.3c-3.3,15.1-2.4,29.4,15.5,29.9
			c0.3,0,0.5,0,0.5,0h28.2c0.7,0,1.4-0.6,1.6-1.3l6.1-28.6l6.1-28.6C2047.2,397.2,2046.8,396.6,2046.1,396.6z M2097.9,442
			c0.7,0,1.2,0.6,1,1.3l-1.3,6.2 M2096.4,455.6l1.3-6.2L2096.4,455.6L2096.4,455.6z M2094.8,456.9L2094.8,456.9
			c-3.8,0-15.3,0.1-24,0.1C2081.4,457,2094.8,456.9,2094.8,456.9z M2063.1,434.1c0-0.7,0.8-1.8,1.5-1.8l-1.6,0
			C2062.3,439.5,2063.1,434.1,2063.1,434.1z"/>
		<path class="st0" d="M2072.1,457c-0.1,0-0.2,0-0.3,0C2071.9,457,2072,457,2072.1,457z M2097.9,442c0.7,0,1.2,0.6,1,1.3l-1.3,6.2
			l-0.2,1 M2078.2,457L2078.2,457L2078.2,457z M2075,457h-0.2H2075z M2074.1,457c-0.1,0-0.2,0-0.3,0C2073.9,457,2074,457,2074.1,457
			z M2073.1,457h-0.3H2073.1z M2074.9,457h-0.8H2074.9z M2094.9,456.9c-2.8,0-9.7,0.1-16.6,0.1C2085.1,457,2092,456.9,2094.9,456.9z
			 M2096.4,455.6l1.1-5.2L2096.4,455.6L2096.4,455.6L2096.4,455.6z M2073.8,457h-0.7H2073.8z M2071.8,457h-0.9H2071.8z M2072.8,457
			h-0.7H2072.8z M1882.8,434.2l2-8.9l-2.3,10.2l-2.2,10.4l1.9-9.1C1882.3,436.1,1882.6,434.9,1882.8,434.2L1882.8,434.2z
			 M1906.9,396.5h-14.3c-0.7,0-1.4,0.6-1.6,1.3l-1.4,6l-1.4,6c-0.2,0.7,0.3,1.3,1,1.3h14.4c0.7,0,1.4-0.6,1.6-1.3l1.3-6l1.3-6l0,0
			C1908.1,397,1907.6,396.5,1906.9,396.5L1906.9,396.5z M1903.8,416.3L1903.8,416.3l-4.2,19.4L1903.8,416.3z M1862.4,480.5
			c0,0,7.2,0.1,11.8,0.1C1870.7,480.6,1864.9,480.5,1862.4,480.5L1862.4,480.5L1862.4,480.5L1862.4,480.5z M1886.8,416.3l-2,8.9
			L1886.8,416.3z"/>
		<path class="st0" d="M1902.8,415.1h-14.4c-0.7,0-1.4,0.6-1.6,1.3l-2,8.9l-2,8.9c-0.2,0.7-0.4,1.9-0.6,2.6l-1.9,9.1l-1.9,9.1
			c-0.1,0.7-0.5,1.8-0.7,2.5c0,0-2.7,8-7.2,7.9c-0.2,0-0.4,0-0.6,0c-2.2,0-3.9-0.1-3.9-0.1l0,0c-0.7,0-1.4,0.5-1.6,1.3l-1.5,6.3
			l-1.5,6.3c-0.2,0.7,0.3,1.3,1,1.3c2.6,0,8.3,0.1,11.8,0.1c11.3,0,17.2-6.2,21-24.2l4.5-20.6l4.2-19.4
			C1904,415.6,1903.5,415.1,1902.8,415.1L1902.8,415.1z M2107.1,456.3c-0.7,0-1.2-0.6-1-1.3l10.8-50.7 M2122.1,455l4.4-21.6
			L2122.1,455z"/>
		<path class="st0" d="M2106.2,455.7c-0.1-0.4,0-1.2,0.1-1.9l5.1-24.1L2106,455c-0.1,0.7,0.3,1.3,1,1.3h1.3
			C2107.6,456.3,2106.3,456,2106.2,455.7z M2121.2,456c-0.4,0.2-1.3,0.3-2,0.3h1.3c0.7,0,1.4-0.6,1.6-1.3l0.3-1.3
			C2122.2,454.4,2121.6,455.9,2121.2,456L2121.2,456z M2124.3,444.2l1.9-9.6v0L2124.3,444.2L2124.3,444.2z M2167,407.7l0.6,2.5
			c0.2,0.7-0.3,1.3-1,1.3 M2122.4,453.7l1.9-9.5L2122.4,453.7z M2166.4,405.2l0.6,2.5L2166.4,405.2z M2126.2,434.7
			c0.1-0.7,0.4-1.9,0.5-2.5l2.1-9.7l-2.3,11L2126.2,434.7z M2117,403.5c-0.1,0.7-0.3,1.5-0.5,2.1l-5.1,24.1l5.4-25.3L2117,403.5z"/>
		<path class="st0" d="M2167.5,410.2l-0.6-2.5l-0.6-2.5l-0.3-1.3c-1.2-4.5-4.6-7.1-12-7.1l-11.6,0l-10.7,0h-12
			c-0.7,0-1.4,0.6-1.6,1.3l-0.5,2.5l-0.6,3l-0.2,0.8l-5.4,25.3l-5.1,24.1c-0.1,0.7-0.2,1.6-0.1,1.9c0.1,0.4,1.5,0.6,2.2,0.6h10.8
			c0.7,0,1.6-0.1,2-0.3c0.4-0.2,1-1.6,1.1-2.3l1.9-9.5l1.9-9.5v0l0.3-1.3l2.3-11l2.1-9.7c0.1-0.7,0.9-1.3,1.6-1.3l34.1,0
			C2167.3,411.5,2167.7,410.9,2167.5,410.2L2167.5,410.2z"/>
		<path class="st0" d="M2211.5,387.9c-0.7,0-1.9,0-2.6,0h-10.9c-0.7,0-1.7,0.5-2,1.1l-24.1,35.4c-0.4,0.6-0.9,0.5-1-0.2l-1.8-7.8
			c-0.2-0.7-0.9-1.3-1.6-1.3h-15.5c-0.7,0-1.1,0.6-1,1.3l7,24.3c0.2,0.7,0.2,1.8,0,2.5l-3,11.8c-0.2,0.7,0.3,1.3,1,1.3h15.3
			c0.7,0,1.5-0.6,1.6-1.3l3-11.8c0.2-0.7,0.7-1.7,1.1-2.3l39.2-52c0.4-0.6,0.2-1-0.5-1L2211.5,387.9L2211.5,387.9z M2088.2,418.4
			L2088.2,418.4c-0.1,0.8-0.8,1.3-1.5,1.3H2067c-0.7,0-1-0.5-0.9-1c0,0,0,0,0,0c0,0,0,0,0,0c0,0,0,0,0-0.1c0,0,0-0.1,0.1-0.3
			c1.9-5,5.7-8.3,12.9-8.3C2087.2,410,2088.8,414,2088.2,418.4L2088.2,418.4z M2082.4,395.7c-25.2,0-31.2,15.3-34.6,30.8
			c-3.4,15.8-3.1,30.5,23.1,30.5h0.9c0.1,0,0.2,0,0.3,0h1.7c0.1,0,0.2,0,0.3,0h0.8h0.2c1,0,2.1,0,3.1,0h0.1c6.9,0,13.8-0.1,16.6-0.1
			c0.7,0,1.4-0.6,1.6-1.3l1.1-5.2l0.2-1l1.3-6.2c0.1-0.7-0.3-1.3-1-1.3h-23.5c-9.3,0-12.1-2.5-11.1-9.8h37.5l0,0h0
			c0.6,0,1.1-0.4,1.4-1c0-0.1,0.1-0.2,0.1-0.3l0,0C2107.9,409.9,2106.3,395.7,2082.4,395.7L2082.4,395.7z M1963.1,418.4l-0.4,1.3
			l0,0l-2.8,10.1l-2.8,10.1c-0.2,0.7-0.9,1.3-1.7,1.3h-15c-11.4,0-14.1-8.9-11.4-22c2.8-13.4,8.2-21.8,19.4-22.6
			C1963.7,395.2,1966.8,405.9,1963.1,418.4L1963.1,418.4z M1973.4,440.2c0,0,7.1-17.2,8.7-27.1c2.2-13.3-4.5-32.5-30.1-32.5
			c-25.5,0-36.6,18.4-40.9,38.4c-4.2,20.1,1.3,37.8,26.7,37.7l20-0.1l18.7-0.1c0.7,0,1.5-0.6,1.7-1.3l3.3-12.4
			c0.2-0.7-0.3-1.3-1-1.3l-3.1,0l-3.1,0c-0.6,0-1-0.4-0.9-0.9C1973.3,440.4,1973.4,440.3,1973.4,440.2L1973.4,440.2L1973.4,440.2
			L1973.4,440.2z"/>
		<path class="st0" d="M2099.8,428.7c0,0.5-0.4,0.9-0.9,0.9s-0.9-0.4-0.9-0.9c0-0.5,0.4-0.9,0.9-0.9
			C2099.4,427.8,2099.8,428.2,2099.8,428.7z"/>
	</g>
	<g>
		<path class="st0" d="M2210.5,278c-142.8,233.6-454.2-30.3-302.8-194.7C1886,373.1,2167.2,334.2,2210.5,278z M1994.2,57.4
			c-121.1,112.5,112.5,307.1,216.3,134.1C2167.2,234.7,1968.2,234.7,1994.2,57.4 M2080.7,31.4c-21.6,103.8,95.2,116.8,129.8,90.8
			C2111,226.1,2002.8,79,2080.7,31.4z"/>
	</g>
</g>
<g>
	<g id="_x23_000000ff_1_">
		<path class="st0" d="M1033.4,0.2c22.4-0.3,44.9-0.1,67.3-0.1c0.1,7.1,0.1,14-0.1,21c-15.6-0.1-31.1,0-46.6,0.1
			c-0.1,10.2-0.3,20.4-0.2,30.6c15.6,0.1,31.2,0.2,46.8,0.2c0.2,5.8,0.1,11.5-0.1,17.3c-22.3-0.1-44.8-0.1-67.1-0.1
			C1033.4,46.2,1033.5,23.1,1033.4,0.2z"/>
		<path class="st0" d="M1108.7,0.1c22.8,0,45.4-0.2,68.2,0.1c-0.1,6.6,0,13.2,0,19.9c-16.6,0-33,0-49.6,0.2c0,2.6,0,5.2,0,7.8
			c16.5,0.3,33,0.3,49.5,0.4c0.1,13.6,0,27.2,0.1,40.8c-22.8,0-45.4,0-68.2,0.1c-0.1-5.4-0.1-11,0-16.5c15.7,0,31.5,0.1,47.2-0.1
			c0.1-3.5,0.1-7.1,0.1-10.6c-15.8,0-31.6,0-47.4,0C1108.6,28.1,1108.6,14.1,1108.7,0.1z"/>
		<path class="st0" d="M1184.5,0.2c22.7,0,45.3,0,68.1,0c0.1,6.6,0.2,13.4,0,20c-16.6,0-33.2,0.1-49.8,0.1c0,2.7,0.1,5.4,0.2,8.1
			c16.5-0.1,33,0.1,49.5,0.3c0.1,13.6,0.2,27,0.1,40.6c-22.8-0.1-45.4-0.1-68.2,0c-0.1-5.4-0.2-11,0.1-16.5
			c15.7,0.1,31.4,0.1,47.1,0c0-3.5,0.1-7.1,0.1-10.7c-15.8,0.1-31.6,0.1-47.3,0C1184.3,28.3,1184.4,14.2,1184.5,0.2z"/>
	</g>
	<path class="st0" d="M960.3,97.9v2c2.4,20.1,3.7,40.4,5.7,60.5c5.7,67,12.1,134,17.8,200.9c3.1,36.2,6.3,72.6,9.7,108.8
		c26.8,7.2,53.3,15.3,80.1,22.4c22.8,6.7,45.6,12.7,68.4,19.4h0.7c23.8-6.9,47.9-13.2,71.7-20.3c26-6.9,51.7-14.7,77.7-21.7
		c4.5-48.3,8.8-96.7,12.9-145.1c6.9-75.7,13.6-151.4,20.3-227.1C1203.7,97.8,1082,97.8,960.3,97.9z M1136,431.4
		c-18.9-5-38.1-9.4-57.1-14.5c-12.4-3.3-24.8-6.5-37.1-9.7c-3.6-23.3-5.7-46.8-6.9-70.4c12.6-0.2,25.1-0.1,37.6-0.1
		c2.6,0,5.2,0,7.7,0.7c1.1,12.3,1.9,24.6,3.2,36.8c8.7,2.6,17.6,3.5,26.4,5.4c11.1,2,22.1,4.5,33.3,6.1c6.1-2.9,12.6-4.4,19-6.3
		c12-3.6,24-6.8,35.9-10.8c1.1-19.8,2.7-39.5,3.7-59.4c-19.3,0.1-38.8-0.4-58.1-0.1c-16.6,0.3-33.2,0-49.8,0.1
		c-20.7,0-41.5,0.3-62.1,0.4c-1.1-15.5-3.6-30.9-3.8-46.4c2.6-1.9,5.8-2.9,8.7-4.2c34.1-15,68.5-29.3,102.6-44.6
		c-38.9-1.2-77.8,0.3-116.6-1.1c-1.9-14-3.8-28-4.6-42.1c41.8,0,83.6-0.1,125.3,0c40.1,0.2,80.2-0.1,120.3,0.2
		c-0.5,12-2.1,23.9-3,35.9c-0.4,3.7-0.3,7.6-1.4,11.3c-2.6,2-5.7,3.1-8.5,4.4c-15.1,6.7-30.2,13-45.3,19.9
		c-15.6,7.1-31.6,13.2-46.9,21c4.1,0.3,8.2,0.3,12.4,0.3c28.3-0.1,56.6,0,84.9-0.2c-3,47.3-7.6,94.6-11.9,141.8
		c-33.3,8.7-66.5,18-99.8,26.3c-0.3,0.1-1,0.2-1.3,0.2C1140.5,432.8,1138.2,432,1136,431.4z"/>
</g>
<g>
	<path class="st0" d="M4075.9,181.2c0-2.5,0.9-3.8,3.8-3.8h49.7c2.5,0,3.8,0.9,3.8,3.8v249.9c0,2.5-0.6,3.8-3.8,3.8h-49.1
		c-3.2,0-4.1-1.6-4.1-4.1V181.2H4075.9L4075.9,181.2z"/>
	<path class="st0" d="M4072.5,109.3c0-20.3,14.3-32.3,32.3-32.3c19.3,0,32.3,13,32.3,32.3c0,20.9-13.6,32.3-32.9,32.3
		C4085.8,141.7,4072.5,130.3,4072.5,109.3z"/>
	<path class="st0" d="M4029.1,430.8L3928.4,89.1c-0.6-2.5-1.6-3.2-3.8-3.2H3858c-1.6,0-2.5,0.9-2.5,3.2c-0.6,15.5-1.6,20.6-3.2,26.3
		l-90,314.8c-0.6,3.8,0,4.7,3.2,4.7h46.6c3.2,0,4.1-0.6,4.7-3.2l25-95h101.3l26,95.3c0.6,2.2,2.2,2.9,4.7,2.9h52.6
		C4029.1,435,4029.7,433.4,4029.1,430.8z M3854.9,285.4c13.3-49.1,30.1-111.8,36.7-148.9h0.6c7.9,37.1,28.8,113.7,37.7,148.9H3854.9
		z"/>
</g>
<g>
	<path class="st0" d="M3130.1,217.1c-23.5,0-31.5,11.9-31.5,21.7c0,10.7,5.3,18.1,36.9,34.5c46.7,22.6,61.2,44.3,61.2,76.1
		c0,47.6-36.3,73.1-85.3,73.1c-25.9,0-48.2-5.4-60.9-12.8c-2.1-0.9-2.4-2.4-2.4-4.8v-43.7c0-3,1.5-3.9,3.6-2.4
		c18.7,12.2,40.1,17.5,59.7,17.5c23.5,0,33.3-9.8,33.3-23.2c0-10.7-6.8-20.2-36.9-35.7c-42.2-20.2-59.7-40.7-59.7-74.9
		c0-38.3,30-70.1,82-70.1c25.6,0,43.4,3.9,53.2,8.3c2.4,1.5,3,3.9,3,5.9v40.7c0,2.4-1.5,3.9-4.5,3
		C3168.8,222.1,3149.4,217.1,3130.1,217.1L3130.1,217.1z"/>
	<path class="st0" d="M2904.8,89.6c-29.4,0-57.7,0.6-76.7,1.5c-2.4,0-6.5,1.5-6.5,3.6l0,0v319.2c0,2.7,1.2,3.6,3.6,3.6h45.5
		c2.7,0,3.6-1.2,3.6-3.6V299.7c8,0,11.9,0.6,23.2,0.6c67.2,0,121.9-32.4,121.9-107.9C3019.2,134.7,2987.1,89.6,2904.8,89.6z
		 M2898.6,253c-11.9,0-17.2,0-24.1-0.6V137.7c5.4-0.3,16.6-0.9,28.5-0.9c39.5,0,63,19,63,56.8C2966.1,240.8,2933.4,253,2898.6,253z"
		/>
</g>
</svg>
