<?xml version="1.0" encoding="utf-8"?>
<!-- Generator: Adobe Illustrator 16.0.0, SVG Export Plug-In . SVG Version: 6.00 Build 0)  -->
<!DOCTYPE svg PUBLIC "-//W3C//DTD SVG 1.1//EN" "http://www.w3.org/Graphics/SVG/1.1/DTD/svg11.dtd">
<svg version="1.1" id="Layer_1" xmlns="http://www.w3.org/2000/svg" xmlns:xlink="http://www.w3.org/1999/xlink" x="0px" y="0px"
	 width="342px" height="480px" viewBox="0 0 342 480" enable-background="new 0 0 342 480" xml:space="preserve">
<g id="_x23_000000ff">
	<path fill="#F55169" d="M68.37,0.96c21-0.26,42-0.08,63-0.09c0.05,6.57,0.149,13.14-0.091,19.71c-14.55-0.1-29.09,0-43.63,0.09
		c-0.1,9.54-0.29,19.08-0.199,28.62c14.6,0.09,29.21,0.23,43.81,0.17c0.17,5.4,0.11,10.82-0.05,16.23
		c-20.94-0.14-41.88-0.08-62.82-0.06C68.44,44.07,68.48,22.52,68.37,0.96z"/>
	<path fill="#F55169" d="M138.86,0.89c21.261-0.04,42.521-0.17,63.79,0.07c-0.08,6.21-0.02,12.41-0.02,18.62
		c-15.47-0.05-30.95,0.02-46.42,0.2c0.02,2.439,0.02,4.88,0,7.32c15.45,0.25,30.89,0.28,46.33,0.37
		c0.06,12.73,0.029,25.45,0.109,38.17c-21.27-0.04-42.54-0.02-63.81,0.08c-0.11-5.14-0.12-10.27,0.03-15.41
		c14.739,0.04,29.489,0.06,44.229-0.06c0.09-3.31,0.13-6.63,0.12-9.94c-14.81,0-29.63,0.05-44.44-0.05
		C138.78,27.14,138.78,14.01,138.86,0.89z"/>
	<path fill="#F55169" d="M209.77,1c21.221,0,42.45,0,63.67,0c0.09,6.24,0.181,12.48-0.02,18.71c-15.54-0.01-31.08,0.08-46.62,0.11
		c0.04,2.55,0.1,5.1,0.229,7.65c15.45-0.07,30.9,0.12,46.341,0.28c0.14,12.67,0.239,25.34,0.06,38.01
		c-21.27-0.06-42.54-0.06-63.81,0.04c-0.13-5.12-0.17-10.26,0.05-15.38c14.71,0.11,29.43,0.09,44.149-0.05
		c0.04-3.32,0.11-6.64,0.08-9.95c-14.77,0.14-29.55,0.06-44.33,0.01C209.57,27.29,209.67,14.14,209.77,1z"/>
</g>
<path fill="#F55169" d="M0,92.46v1.87c2.189,18.83,3.5,37.76,5.33,56.63C10.61,213.66,16.58,276.311,22.07,339
	c2.91,33.93,5.86,67.859,9.131,101.77c25.09,6.73,49.949,14.271,75.029,21.03c21.25,6.32,42.71,11.88,63.96,18.2h0.66
	c22.33-6.5,44.83-12.43,67.15-18.98c24.3-6.47,48.37-13.81,72.68-20.25c4.22-45.24,8.22-90.51,12.1-135.779
	c6.53-70.83,12.7-141.68,18.971-212.53C227.83,92.44,113.92,92.45,0,92.46z M164.38,404.63c-17.74-4.739-35.67-8.75-53.38-13.569
	c-11.561-3.15-23.16-6.11-34.74-9.131c-3.37-21.82-5.35-43.82-6.5-65.85c11.75-0.18,23.5-0.07,35.24-0.141
	c2.42,0.041,4.899-0.029,7.24,0.69c1.02,11.46,1.819,22.95,2.97,34.399c8.09,2.351,16.5,3.281,24.71,5.07
	c10.41,1.851,20.729,4.18,31.18,5.73c5.68-2.67,11.811-4.109,17.78-5.93c11.2-3.36,22.479-6.43,33.59-10.061
	c0.96-18.529,2.5-37.029,3.51-55.561c-18.13,0.121-36.26-0.369-54.38-0.059c-15.53,0.34-31.07,0.029-46.6,0.109
	c-19.38,0.029-38.75,0.34-58.13,0.41c-1.03-14.48-3.37-28.91-3.641-43.42c2.45-1.78,5.38-2.7,8.12-3.92
	c31.95-13.97,64.15-27.41,95.96-41.68c-36.359-1.09-72.77,0.31-109.13-1.04c-1.82-13.1-3.59-26.22-4.26-39.43
	c39.08-0.04,78.17-0.15,117.25-0.01c37.54,0.2,75.07-0.06,112.6,0.24c-0.54,11.21-1.979,22.35-2.79,33.55
	c-0.37,3.53-0.319,7.14-1.26,10.59c-2.39,1.86-5.29,2.9-8.01,4.15c-14.101,6.25-28.32,12.22-42.37,18.59
	c-14.64,6.55-29.64,12.371-43.9,19.71c3.84,0.279,7.7,0.3,11.561,0.279c26.5-0.109,53.01-0.029,79.51-0.17
	c-2.771,44.291-7.14,88.471-11.08,132.67c-31.16,8.121-62.18,16.75-93.41,24.59c-0.3,0.061-0.91,0.181-1.21,0.24
	C168.62,405.859,166.49,405.08,164.38,404.63z"/>
</svg>
