<?xml version="1.0" encoding="utf-8"?>
<!-- Generator: Adobe Illustrator 21.0.2, SVG Export Plug-In . SVG Version: 6.00 Build 0)  -->
<svg version="1.1" xmlns="http://www.w3.org/2000/svg" xmlns:xlink="http://www.w3.org/1999/xlink" x="0px" y="0px"
	 viewBox="0 0 336 590" style="enable-background:new 0 0 336 590;" xml:space="preserve">
<style type="text/css">
	.st0{fill:#161616;}
	.st1{opacity:0.33;fill:#FFE706;}
	.st2{opacity:0.1;fill:#FFE706;}
	.st3{opacity:0.2;fill:#FFE706;}
	.st4{opacity:0.3;fill:#FFE706;}
	.st5{opacity:0.18;fill:#FFE000;}
	.st6{fill:none;stroke:#FFE000;stroke-width:2;stroke-miterlimit:10;}
	.st7{fill:none;stroke:#FFE000;stroke-width:10;stroke-miterlimit:10;}
</style>
<g id="Layer_1">
	<rect x="-1331" y="-30" class="st0" width="1200" height="900"/>
</g>
<g id="Layer_2">
	<circle class="st1" cx="-1162" cy="258" r="138"/>
	<circle class="st2" cx="-1076" cy="344" r="86"/>
	<circle class="st3" cx="-238" cy="575" r="98"/>
	<circle class="st2" cx="-329.5" cy="708.5" r="107.5"/>
	<circle class="st4" cx="-317" cy="422" r="46"/>
	<circle class="st5" cx="-821" cy="477" r="81"/>
	<g>
		<line class="st6" x1="-512" y1="359" x2="-512" y2="-30"/>
		<g>
			<polygon class="st6" points="-511.8,386 -480.1,440.9 -448.5,495.7 -511.8,495.7 -575.2,495.7 -543.5,440.9 			"/>
			<polygon class="st6" points="-575,422.5 -511.6,422.5 -448.3,422.5 -480,477.3 -511.6,532.2 -543.3,477.3 			"/>
		</g>
		<circle class="st6" cx="-512" cy="459" r="99"/>
		<line class="st7" x1="-680" y1="359" x2="-344" y2="359"/>
	</g>
	<g>
		<line class="st6" x1="168" y1="389" x2="168" y2="0"/>
		<g>
			<polygon class="st6" points="168.2,416 199.9,470.9 231.5,525.7 168.2,525.7 104.8,525.7 136.5,470.9 			"/>
			<polygon class="st6" points="105,452.5 168.4,452.5 231.7,452.5 200,507.3 168.4,562.2 136.7,507.3 			"/>
		</g>
		<circle class="st6" cx="168" cy="489" r="99"/>
		<line class="st7" x1="0" y1="389" x2="336" y2="389"/>
	</g>
	<text transform="matrix(1 0 0 1 -1240 130.7383)"><tspan x="0" y="0" style="fill:#FFFFFF; font-family:'NanumSquareEB'; font-size:104.0417px; letter-spacing:-7;">궁금</tspan><tspan x="173.7" y="0" style="fill:#FFFFFF; font-family:'NanumSquareL'; font-size:104.0417px; letter-spacing:-7;">하지 </tspan><tspan x="0" y="110" style="fill:#FFFFFF; font-family:'NanumSquareL'; font-size:104.0417px; letter-spacing:-7;">않으세요?</tspan></text>
	<text transform="matrix(1 0 0 1 -1240 130.7383)" style="display:none;"><tspan x="0" y="0" style="display:inline;fill:#FFFFFF; font-family:'NanumSquareEB'; font-size:104.0417px; letter-spacing:-7;">안녕</tspan><tspan x="173.7" y="0" style="display:inline;fill:#FFFFFF; font-family:'NanumSquareL'; font-size:104.0417px; letter-spacing:-7;">하세요</tspan><tspan x="0" y="110" style="display:inline;fill:#FFFFFF; font-family:'NanumSquareEB'; font-size:104.0417px; letter-spacing:-7;">은지혜</tspan><tspan x="260.6" y="110" style="display:inline;fill:#FFFFFF; font-family:'NanumSquareL'; font-size:104.0417px; letter-spacing:-7;">입니다.</tspan></text>
	<text transform="matrix(1 0 0 1 -438.9419 77.6777)"><tspan x="0" y="0" style="fill:#FFFFFF; font-family:'NanumSquareL'; font-size:30.1px; letter-spacing:-2;">‘철 없는’ 아이디어로,</tspan><tspan x="11.2" y="36.1" style="fill:#FFFFFF; font-family:'NanumSquareL'; font-size:30.1px; letter-spacing:-2;">친근하게 다가가는 </tspan><tspan x="147.4" y="72.2" style="fill:#FFFFFF; font-family:'NanumSquareL'; font-size:30.1px; letter-spacing:-2;">디자인</tspan></text>
	<text transform="matrix(1 0 0 1 -460.9146 229.1777)"><tspan x="0" y="0" style="fill:#FFFFFF; font-family:'NanumSquareL'; font-size:30.1px; letter-spacing:-2;">‘스스로’ 문제점을 찾아</tspan><tspan x="63.1" y="36.1" style="fill:#FFFFFF; font-family:'NanumSquareL'; font-size:30.1px; letter-spacing:-2;">해결하고 배우는</tspan><tspan x="194" y="72.2" style="fill:#FFFFFF; font-family:'NanumSquareL'; font-size:30.1px; letter-spacing:-2;">코딩</tspan></text>
</g>
</svg>
