<?xml version="1.0" encoding="utf-8"?>
<!-- Generator: Adobe Illustrator 16.0.0, SVG Export Plug-In . SVG Version: 6.00 Build 0)  -->
<!DOCTYPE svg PUBLIC "-//W3C//DTD SVG 1.1//EN" "http://www.w3.org/Graphics/SVG/1.1/DTD/svg11.dtd">
<svg version="1.1" id="Layer_1" xmlns="http://www.w3.org/2000/svg" xmlns:xlink="http://www.w3.org/1999/xlink" x="0px" y="0px"
	 width="428px" height="142.667px" viewBox="0 0 428 142.667" enable-background="new 0 0 428 142.667" xml:space="preserve">
<path fill="#070707" d="M391.321,15.679h-44.494V0.136h-17v15.543h-44.493v17h14.176c-8.746,9.443-14.105,22.066-14.105,35.922
	c0,29.181,23.741,52.922,52.922,52.922s52.922-23.741,52.922-52.922c0-13.855-5.359-26.479-14.105-35.922h14.177V15.679z
	 M374.249,68.601c0,19.808-16.114,35.922-35.922,35.922s-35.922-16.114-35.922-35.922s16.114-35.922,35.922-35.922
	S374.249,48.793,374.249,68.601z"/>
<polygon fill="#070707" points="248.653,15.679 142.667,15.679 142.667,32.679 182.626,32.679 161.571,80.466 177.128,87.32 
	195.66,45.26 214.192,87.32 229.749,80.466 208.694,32.679 248.653,32.679 "/>
<g>
	<path fill="#070707" d="M64.586,121.523c-29.181,0-52.922-23.741-52.922-52.922s23.741-52.922,52.922-52.922
		s52.922,23.741,52.922,52.922S93.767,121.523,64.586,121.523z M64.586,32.679c-19.808,0-35.922,16.114-35.922,35.922
		s16.114,35.922,35.922,35.922s35.922-16.114,35.922-35.922S84.394,32.679,64.586,32.679z"/>
	<path fill="#FFA4B5" d="M59.586,135.167c0,4.142-3.358,7.5-7.5,7.5H7.5c-4.142,0-7.5-3.358-7.5-7.5l0,0c0-4.142,3.358-7.5,7.5-7.5
		h44.586C56.228,127.667,59.586,131.024,59.586,135.167L59.586,135.167z"/>
</g>
</svg>
