<?xml version="1.0" encoding="utf-8"?>
<!-- Generator: Adobe Illustrator 16.0.0, SVG Export Plug-In . SVG Version: 6.00 Build 0)  -->
<!DOCTYPE svg PUBLIC "-//W3C//DTD SVG 1.1//EN" "http://www.w3.org/Graphics/SVG/1.1/DTD/svg11.dtd">
<svg version="1.1" id="Layer_1" xmlns="http://www.w3.org/2000/svg" xmlns:xlink="http://www.w3.org/1999/xlink" x="0px" y="0px"
	 width="1314.589px" height="1166.671px" viewBox="0 0 1314.589 1166.671" enable-background="new 0 0 1314.589 1166.671"
	 xml:space="preserve">
<path fill="#F55169" d="M1081.253,446.879c-82.293,0-110.414,41.665-110.414,76.039c0,37.5,18.747,63.542,129.166,120.835
	c163.541,79.169,214.584,155.208,214.584,266.669c0,166.665-127.083,256.249-298.96,256.249c-90.626,0-168.753-18.751-213.543-44.79
	c-7.291-3.124-8.332-8.332-8.332-16.668V952.087c0-10.415,5.207-13.544,12.502-8.332c65.625,42.711,140.623,61.458,209.373,61.458
	c82.293,0,116.668-34.374,116.668-81.251c0-37.499-23.96-70.833-129.171-125.001c-147.918-70.832-209.372-142.706-209.372-262.498
	c0-134.379,105.211-245.835,287.499-245.835c89.584,0,152.084,13.544,186.459,29.167c8.332,5.208,10.415,13.54,10.415,20.831
	v142.706c0,8.332-5.207,13.544-15.627,10.415C1216.669,464.589,1148.961,446.879,1081.253,446.879L1081.253,446.879z"/>
<path fill="#F55169" d="M291.67,0C188.546,0,89.588,2.083,22.918,5.207c-8.328,0-22.914,5.212-22.914,12.503H0v1118.753
	c0,9.373,4.17,12.498,12.502,12.498h159.375c9.374,0,12.498-4.166,12.498-12.498V736.461c28.13,0,41.67,2.083,81.252,2.083
	c235.415,0,427.082-113.543,427.082-378.125C692.709,158.333,580.211,0,291.67,0z M269.793,572.92c-41.665,0-60.417,0-84.376-2.083
	V168.753c18.752-1.042,58.338-3.125,100.004-3.125c138.54,0,220.833,66.671,220.833,198.962
	C506.254,530.213,391.673,572.92,269.793,572.92z"/>
</svg>
