<?xml version="1.0" encoding="utf-8"?>
<!-- Generator: Adobe Illustrator 16.0.0, SVG Export Plug-In . SVG Version: 6.00 Build 0)  -->
<!DOCTYPE svg PUBLIC "-//W3C//DTD SVG 1.1//EN" "http://www.w3.org/Graphics/SVG/1.1/DTD/svg11.dtd">
<svg version="1.1" id="Layer_1" xmlns="http://www.w3.org/2000/svg" xmlns:xlink="http://www.w3.org/1999/xlink" x="0px" y="0px"
	 width="432px" height="457.833px" viewBox="0 0 432 457.833" enable-background="new 0 0 432 457.833" xml:space="preserve">
<rect x="-789.825" y="-114.098" fill="none" stroke="#231F20" stroke-miterlimit="10" width="405.649" height="405.649"/>
<g>
	<path fill="none" stroke="#231F20" stroke-width="50" stroke-miterlimit="10" d="M-587,257.631"/>
	<path fill="none" stroke="#231F20" stroke-width="50" stroke-miterlimit="10" d="M-659.324,241.407
		c-57.098-27.095-96.581-85.276-96.581-152.681c0-93.283,75.621-168.904,168.904-168.904c71.667,0,104.5,48.983,104.5,90.904"/>
	<path fill="#231F20" d="M-678.25,237.727l46.482-41.116h83.151c0,0,9.172,12.76,0,27.474h-67.866c0,0-3.057,3.098,0,6.766h75.815
		l93.536-49.869c0,0,13.131,5.746,16.341,24.013l-106.209,63.152H-663.75C-671.912,266.059-687.667,255.061-678.25,237.727z"/>
	<path fill="#231F20" d="M-454.509-11.637"/>
	<path fill="#231F20" d="M-428.646,136.693c0,19.033-15.429,34.463-34.462,34.463H-632.16c-19.033,0-34.462-15.43-34.462-34.463
		V40.759c0-19.033,15.429-34.462,34.462-34.462h169.053c19.033,0,34.462,15.429,34.462,34.462V136.693z"/>
	<circle fill="#FFFFFF" cx="-547.634" cy="88.727" r="47.452"/>
	<circle fill="#231F20" cx="-547.634" cy="88.727" r="26.796"/>
	<path fill="none" stroke="#FFFFFF" stroke-width="5" stroke-miterlimit="10" d="M-508.5,6.297L-508.5,6.297
		c0-13.07,7.245-21.186,16.182-21.186h18.137c8.937,0,16.182,6.615,16.182,21.186l0,0"/>
</g>
<g>
	<path fill="none" stroke="#231F20" stroke-width="50" stroke-miterlimit="10" d="M-1096.762,204.922"/>
	<path fill="none" stroke="#231F20" stroke-width="50" stroke-miterlimit="10" d="M-1169.085,188.698
		c-57.098-27.095-96.581-85.276-96.581-152.681c0-93.283,75.621-168.904,168.904-168.904c71.667,0,104.5,48.983,104.5,90.904"/>
	<path fill="#231F20" d="M-1188.012,185.018l46.482-41.116h83.151c0,0,9.172,12.76,0,27.474h-67.866c0,0-3.057,3.098,0,6.766h75.815
		l93.536-49.869c0,0,13.131,5.746,16.341,24.013l-106.209,63.152h-126.751C-1181.674,213.35-1197.428,202.352-1188.012,185.018z"/>
	<path fill="#231F20" d="M-964.271-64.346"/>
	<path fill="#231F20" d="M-938.407,83.984c0,19.033-15.429,34.463-34.462,34.463h-169.053c-19.033,0-34.462-15.43-34.462-34.463
		V-11.95c0-19.033,15.429-34.462,34.462-34.462h169.053c19.033,0,34.462,15.429,34.462,34.462V83.984z"/>
	<circle fill="#FFFFFF" cx="-1057.396" cy="36.018" r="47.452"/>
	<circle fill="#231F20" cx="-1057.396" cy="36.018" r="26.796"/>
	<path fill="none" stroke="#FFFFFF" stroke-width="5" stroke-miterlimit="10" d="M-1018.262-46.412L-1018.262-46.412
		c0-13.07,7.245-21.186,16.182-21.186h18.137c8.937,0,16.182,6.615,16.182,21.186l0,0"/>
</g>
<image overflow="visible" width="1975" height="2059" xlink:href="CE953707.jpg"  transform="matrix(0.24 0 0 0.24 -25 -22.2734)">
</image>
<g>
	<path fill="#FFFFFF" stroke="#231F20" stroke-width="50" stroke-miterlimit="10" d="M-863.491,789.19"/>
	<path fill="#FFFFFF" d="M-954.741,769.286l46.482-41.116h83.151c0,0,9.172,12.76,0,27.474h-67.866c0,0-3.058,3.098,0,6.766h75.815
		l93.536-49.869c0,0,13.131,5.746,16.341,24.013l-106.209,63.152h-126.751C-948.403,797.618-964.158,786.62-954.741,769.286z"/>
	<path fill="#FFFFFF" d="M-731,519.923"/>
	<path fill="#FFFFFF" d="M-739.599,537.856h-169.053c-19.033,0-34.462,15.429-34.462,34.462v95.935
		c0,19.033,15.429,34.463,34.462,34.463h169.053c19.033,0,34.462-15.43,34.462-34.463v-95.935
		C-705.137,553.285-720.565,537.856-739.599,537.856z M-824.125,667.738c-26.208,0-47.453-21.244-47.453-47.452
		c0-26.207,21.245-47.452,47.453-47.452c26.207,0,47.452,21.245,47.452,47.452C-776.673,646.494-797.918,667.738-824.125,667.738z"
		/>
	<circle fill="#FFFFFF" cx="-824.125" cy="620.286" r="26.796"/>
	<path fill="#FFFFFF" d="M-768.81,514.171h18.137c5.445,0,11.111,2.268,14.756,7.891c-4.129-21.752-14.781-42.34-30.609-58.462
		c-16.668-16.979-47.021-37.218-96.965-37.218c-106.919,0-193.904,86.985-193.904,193.904c0,37.399,10.676,73.712,30.872,105.012
		c19.651,30.454,47.312,54.748,79.991,70.255l21.436-45.172c-49.995-23.724-82.299-74.789-82.299-130.095
		c0-79.349,64.556-143.904,143.904-143.904c46.164,0,71.079,24.403,77.689,51.122C-782.935,519.402-776.652,514.171-768.81,514.171z
		"/>
	<path fill="#FFFFFF" d="M-736.991,537.856c0-11.7-5.114-18.686-13.682-18.686h-18.137c-8.056,0-13.682,7.684-13.682,18.686h-1.68
		c0.107,1.479,0.18,2.957,0.18,4.43h50c0-1.478-0.039-2.954-0.101-4.43H-736.991z"/>
</g>
</svg>
