<?xml version="1.0" encoding="utf-8"?>
<!-- Generator: Adobe Illustrator 16.0.0, SVG Export Plug-In . SVG Version: 6.00 Build 0)  -->
<!DOCTYPE svg PUBLIC "-//W3C//DTD SVG 1.1//EN" "http://www.w3.org/Graphics/SVG/1.1/DTD/svg11.dtd">
<svg version="1.1" id="Layer_1" xmlns="http://www.w3.org/2000/svg" xmlns:xlink="http://www.w3.org/1999/xlink" x="0px" y="0px"
	 width="300px" height="300px" viewBox="0 0 300 300" enable-background="new 0 0 300 300" xml:space="preserve">
<g>
	<path fill="#FFFFFF" d="M300,231.741C300,269.439,269.439,300,231.741,300H68.259C30.561,300,0,269.439,0,231.741V68.259
		C0,30.561,30.561,0,68.259,0h163.482C269.439,0,300,30.561,300,68.259V231.741z"/>
	<path fill="#FF1D5E" d="M48,127.096v69.791v30.534C48,239.809,59.254,250,72.538,250H87V76.874C64.5,83.907,48,103.727,48,127.096z
		"/>
	<path fill="#FF1D5E" d="M136.681,74h-31.403c-1.122,0-2.527,0.168-3.277,0.228V250h3.277h31.403H144V74.506
		C141,74.267,138.943,74,136.681,74z"/>
	<path fill="#FF1D5E" d="M157,78.025V250h12.421C182.705,250,193,239.809,193,227.421v-30.534v-69.791
		C193,104.899,178,85.903,157,78.025z"/>
	<g>
		<path fill="#FF1D5E" d="M158,255c0-2.762-2.239-5-5-5h-5c-2.761,0-5,2.238-5,5v8c0,2.762,2.239,5,5,5h5c2.761,0,5-2.238,5-5V255z"
			/>
	</g>
	<g>
		<path fill="#FF1D5E" d="M102,255c0-2.762-2.239-5-5-5h-5c-2.761,0-5,2.238-5,5v8c0,2.762,2.239,5,5,5h5c2.761,0,5-2.238,5-5V255z"
			/>
	</g>
	<path fill="#FF1D5E" d="M144,42.031C144,34.282,137.718,28,129.969,28h-13.938C108.282,28,102,34.282,102,42.031v31.938
		C102,81.718,108.282,88,116.031,88h13.938C137.718,88,144,81.718,144,73.969V42.031z M128,83h-12V43h12V83z"/>
	<path fill="none" stroke="#FF1D5E" stroke-width="15" stroke-miterlimit="10" d="M159.397,56.758c0,0,57.473,0.674,57.473,75.501"
		/>
	<g>
		<rect x="210" y="144" fill="#FF1D5E" width="52" height="75"/>
		<path fill="#FFFFFF" d="M246.605,162.587c-5.337,4.228-9.455,9.208-12.585,14.003l-9.729-1.678l-8.59,3.545l14.574,4.604
			c-3.634,7.109-4.981,12.615-4.981,12.615l-4.779,2.599l7.356,4.508l21.543-35.148
			C254.925,158.643,246.605,162.587,246.605,162.587z"/>
	</g>
</g>
<g>
	<path fill="#FFFFFF" d="M650,231.545C650,269.326,620.333,300,582.555,300H418.711C380.931,300,350,269.326,350,231.545V67.705
		C350,29.923,380.931,0,418.711,0h163.844C620.333,0,650,29.923,650,67.705V231.545z"/>
	<path fill="#0055FF" d="M350,149V67.705C350,29.923,380.931,0,418.711,0h163.844C620.333,0,650,29.923,650,67.705V149H350z"/>
	<circle fill="#003E89" cx="500.633" cy="149.956" r="83.223"/>
	<path fill="#FFFFFF" d="M500.632,73.135c20.52,0,39.812,7.991,54.321,22.501c14.509,14.509,22.5,33.801,22.5,54.32
		c0,20.52-7.991,39.812-22.5,54.321c-14.51,14.509-33.802,22.5-54.321,22.5s-39.811-7.991-54.32-22.5
		c-14.51-14.51-22.5-33.802-22.5-54.321c0-20.519,7.991-39.811,22.5-54.32C460.821,81.126,480.112,73.135,500.632,73.135
		 M500.632,57.903c-50.839,0-92.053,41.213-92.053,92.053c0,50.84,41.213,92.053,92.053,92.053
		c50.841,0,92.054-41.213,92.054-92.053C592.686,99.117,551.473,57.903,500.632,57.903L500.632,57.903z"/>
	<path fill="#FFAA00" d="M592.686,151c0,50-41.686,91.009-92.686,91.009V151H592.686z"/>
	<path fill="#FFAA00" d="M592.686,151c0,50-41.686,91.009-92.686,91.009V151H592.686z"/>
	<path fill="#FFFFFF" d="M529,33.771c0,4.545-3.685,8.229-8.229,8.229h-38.541c-4.545,0-8.229-3.685-8.229-8.229v-0.541
		c0-4.545,3.685-8.229,8.229-8.229h38.541c4.545,0,8.229,3.685,8.229,8.229V33.771z"/>
	<rect x="487" y="39" fill="#FFFFFF" width="28" height="20"/>
	<circle fill="#FFFFFF" cx="500.963" cy="88.367" r="6.623"/>
	<circle fill="#FFFFFF" cx="438.05" cy="149.956" r="6.622"/>
</g>
<g>
	<path fill="#0092FF" d="M1000,231.74c0,37.698-30.563,68.26-68.26,68.26H768.26c-37.699,0-68.26-30.562-68.26-68.26V68.26
		C700,30.561,730.561,0,768.26,0h163.48C969.438,0,1000,30.561,1000,68.26V231.74z"/>
	<path fill="#0092FF" d="M873.547,298.639c-0.297-0.287-0.584-0.586-0.879-0.878c-0.262-0.256-0.512-0.52-0.773-0.777
		c-0.26-0.255-0.514-0.515-0.77-0.773c-0.219-0.217-0.439-0.431-0.654-0.647c-0.277-0.27-0.545-0.548-0.818-0.821
		c-0.262-0.256-0.514-0.517-0.771-0.775c-0.205-0.201-0.41-0.401-0.611-0.604c-0.297-0.286-0.584-0.585-0.875-0.877
		c-0.258-0.25-0.504-0.508-0.758-0.763c-0.262-0.256-0.518-0.516-0.775-0.776c-0.223-0.22-0.449-0.438-0.67-0.661
		c-0.273-0.268-0.539-0.543-0.809-0.814c-0.258-0.253-0.51-0.511-0.764-0.766c-0.211-0.208-0.424-0.415-0.631-0.626
		c-0.289-0.278-0.564-0.566-0.85-0.851c-0.262-0.255-0.516-0.519-0.773-0.776c-0.195-0.191-0.389-0.383-0.582-0.576
		c-0.303-0.292-0.594-0.596-0.895-0.893c-0.258-0.254-0.51-0.516-0.766-0.772c-0.26-0.255-0.514-0.514-0.77-0.771
		c-0.217-0.215-0.436-0.428-0.65-0.645c-0.281-0.273-0.553-0.555-0.828-0.832c-0.26-0.254-0.514-0.515-0.77-0.772
		c-0.203-0.2-0.408-0.399-0.607-0.603c-0.293-0.283-0.576-0.577-0.865-0.865c-0.262-0.256-0.516-0.519-0.775-0.777
		c-0.258-0.255-0.514-0.514-0.77-0.772c-0.221-0.22-0.445-0.437-0.664-0.657c-0.275-0.269-0.541-0.546-0.814-0.817
		c-0.258-0.255-0.512-0.514-0.768-0.771c-0.209-0.205-0.418-0.409-0.623-0.616c-0.293-0.282-0.572-0.575-0.859-0.861
		c-0.258-0.251-0.506-0.509-0.76-0.764c-0.197-0.194-0.395-0.388-0.59-0.584c-0.303-0.291-0.592-0.593-0.891-0.889
		c-0.26-0.255-0.514-0.519-0.771-0.777c-0.26-0.256-0.514-0.516-0.771-0.774c-0.215-0.212-0.43-0.423-0.643-0.637
		c-0.281-0.272-0.551-0.553-0.824-0.826c-0.266-0.261-0.523-0.525-0.783-0.788c-0.199-0.196-0.4-0.392-0.596-0.589
		c-0.299-0.287-0.584-0.584-0.877-0.875c-0.256-0.253-0.508-0.514-0.762-0.769c-0.262-0.257-0.518-0.517-0.775-0.776
		c-0.223-0.221-0.449-0.439-0.668-0.662c-0.275-0.267-0.539-0.542-0.809-0.812c-0.258-0.254-0.51-0.512-0.766-0.768
		c-0.211-0.208-0.424-0.415-0.633-0.627c-0.287-0.278-0.564-0.567-0.85-0.851c-0.258-0.253-0.51-0.513-0.764-0.77
		c-0.262-0.258-0.521-0.519-0.779-0.779c-0.227-0.223-0.455-0.444-0.676-0.67c-0.273-0.265-0.535-0.537-0.803-0.807
		c-0.258-0.252-0.508-0.51-0.762-0.764c-0.215-0.213-0.432-0.423-0.645-0.638c-0.281-0.273-0.553-0.558-0.832-0.834
		c-0.264-0.258-0.52-0.521-0.779-0.784c-0.199-0.194-0.396-0.39-0.594-0.587c-0.297-0.287-0.584-0.586-0.877-0.878
		c-0.26-0.252-0.508-0.514-0.764-0.769c-0.264-0.259-0.521-0.521-0.781-0.783c-0.219-0.216-0.439-0.428-0.652-0.646
		c-0.277-0.27-0.545-0.548-0.818-0.82c-0.258-0.254-0.512-0.514-0.768-0.771c-0.211-0.206-0.42-0.412-0.627-0.621
		c-0.287-0.278-0.566-0.568-0.85-0.851c-0.262-0.256-0.514-0.519-0.773-0.775c-0.258-0.255-0.512-0.512-0.768-0.77
		c-0.229-0.227-0.459-0.449-0.686-0.68c-0.268-0.262-0.527-0.531-0.793-0.798c-0.26-0.255-0.514-0.514-0.77-0.771
		c-0.213-0.211-0.428-0.419-0.637-0.632c-0.285-0.276-0.561-0.563-0.842-0.844c-0.26-0.253-0.514-0.514-0.77-0.771
		c-0.199-0.197-0.4-0.394-0.598-0.594c-0.297-0.286-0.584-0.584-0.875-0.875c-0.264-0.257-0.518-0.521-0.777-0.781
		c-0.258-0.253-0.512-0.512-0.766-0.768c-0.219-0.218-0.441-0.432-0.658-0.652c-0.275-0.268-0.541-0.545-0.814-0.817
		c-0.262-0.256-0.518-0.519-0.775-0.777c-0.207-0.204-0.414-0.407-0.617-0.611c-0.293-0.282-0.572-0.573-0.857-0.859
		c-0.262-0.255-0.514-0.516-0.771-0.773c-0.258-0.257-0.516-0.517-0.773-0.776c-0.223-0.223-0.451-0.441-0.672-0.666
		c-0.27-0.263-0.531-0.535-0.799-0.801c-0.258-0.255-0.512-0.515-0.768-0.773c-0.215-0.209-0.43-0.42-0.641-0.633
		c-0.285-0.276-0.563-0.566-0.846-0.848c-0.258-0.251-0.506-0.51-0.76-0.764c-0.201-0.198-0.402-0.395-0.602-0.594
		c-0.299-0.29-0.586-0.591-0.885-0.884c-0.258-0.254-0.508-0.515-0.764-0.771c-0.26-0.255-0.514-0.516-0.771-0.773
		c-0.217-0.215-0.438-0.43-0.654-0.647c-0.277-0.27-0.547-0.551-0.82-0.825c-0.262-0.256-0.516-0.517-0.773-0.775
		c-0.205-0.202-0.412-0.402-0.613-0.607c-0.291-0.281-0.57-0.573-0.859-0.859c-0.26-0.254-0.512-0.516-0.768-0.772
		c-0.262-0.256-0.518-0.517-0.773-0.774c-0.229-0.226-0.455-0.445-0.678-0.672c-0.271-0.264-0.533-0.536-0.799-0.803
		c-0.262-0.256-0.516-0.517-0.773-0.774c-0.209-0.209-0.422-0.414-0.629-0.624c-0.287-0.278-0.563-0.566-0.848-0.848
		c-0.258-0.255-0.512-0.516-0.768-0.772c-0.199-0.194-0.396-0.391-0.594-0.587c-0.301-0.292-0.592-0.595-0.891-0.891
		c-0.256-0.252-0.506-0.512-0.76-0.765c-0.262-0.258-0.52-0.519-0.775-0.779c-0.215-0.214-0.434-0.423-0.645-0.639
		c-0.283-0.272-0.555-0.557-0.832-0.834c-0.604-0.591-1.188-1.199-1.773-1.808c-0.066-0.07-0.137-0.191-0.203-0.262
		C778.662,203.334,772.846,195,768.662,185H768v-0.264c0-0.229,0.313,0.264,0.215-0.736H767v-1h-1v-1h-1v-1h-1v-1h-1v-1h-2v-1l0,0
		v-2h-2l0,0h-1v-1l0,0v-2h-2l0,0h-1v-2h-1v-1h-1l0,0h-1v-2h-1v-1h-1v-1h-1v-1h-1v-1h-2v-1l0,0v-1h-1v-1h-2v-1l0,0v-2h-2v-18h20.637
		C765.809,98,797,65.045,840,60.613V41h18l0,0h2v2l0,0v1h2v1h1v1l0,0v1h2v1h1v1h1v1h1v1h1v2h1l0,0h1v1h1v2h1l0,0h2v2l0,0v1h1l0,0h2
		v2l0,0v1h2v1h1v1h1v1h1v1h1v0.908c0,0.039,0.646,0.092,0.742,0.092H885v0.343c11,4.552,20.471,11.092,28.463,19.135
		c0.211,0.209,0.555,0.416,0.764,0.627c0.287,0.278,0.629,0.566,0.912,0.848c0.258,0.253,0.541,0.514,0.797,0.771
		c0.258,0.255,0.533,0.514,0.789,0.772c0.23,0.229,0.471,0.454,0.699,0.686c0.264,0.258,0.525,0.525,0.785,0.787
		c0.264,0.257,0.521,0.518,0.779,0.778c0.213,0.212,0.434,0.423,0.646,0.638c0.281,0.274,0.555,0.557,0.834,0.835
		c0.256,0.253,0.508,0.512,0.764,0.768c0.203,0.202,0.41,0.403,0.611,0.606c0.295,0.284,0.576,0.579,0.867,0.867
		c0.26,0.254,0.514,0.517,0.771,0.774c0.256,0.254,0.512,0.511,0.766,0.769c0.223,0.221,0.449,0.44,0.67,0.664
		c0.277,0.268,0.543,0.546,0.814,0.817c0.256,0.251,0.506,0.506,0.758,0.76c0.213,0.211,0.428,0.42,0.639,0.633
		c0.285,0.277,0.563,0.563,0.842,0.843c0.262,0.256,0.516,0.519,0.775,0.778c0.256,0.253,0.512,0.51,0.764,0.767
		c0.232,0.229,0.465,0.454,0.691,0.685c0.27,0.261,0.527,0.53,0.791,0.794c0.258,0.254,0.51,0.511,0.766,0.768
		c0.217,0.213,0.434,0.425,0.646,0.641c0.285,0.275,0.561,0.561,0.84,0.84c0.256,0.251,0.506,0.509,0.758,0.764
		c0.205,0.201,0.41,0.401,0.611,0.604c0.297,0.287,0.584,0.585,0.877,0.876c0.258,0.251,0.506,0.51,0.762,0.765
		c0.258,0.255,0.512,0.514,0.77,0.772c0.223,0.222,0.449,0.441,0.67,0.665c0.273,0.267,0.537,0.541,0.807,0.812
		c0.262,0.254,0.514,0.513,0.768,0.77c0.211,0.208,0.424,0.415,0.631,0.625c0.289,0.28,0.568,0.569,0.852,0.853
		c0.258,0.253,0.51,0.513,0.766,0.769c0.26,0.256,0.516,0.515,0.773,0.773c0.227,0.228,0.459,0.451,0.684,0.68
		c0.27,0.262,0.529,0.532,0.793,0.798c0.26,0.253,0.514,0.512,0.77,0.77c0.215,0.213,0.432,0.424,0.645,0.639
		c0.283,0.274,0.557,0.559,0.834,0.837c0.258,0.253,0.512,0.512,0.766,0.769c0.203,0.2,0.408,0.4,0.609,0.602
		c0.295,0.286,0.578,0.581,0.869,0.871c0.262,0.256,0.516,0.519,0.773,0.777c0.256,0.251,0.508,0.507,0.76,0.763
		c0.225,0.222,0.451,0.441,0.674,0.667c0.273,0.266,0.537,0.54,0.809,0.81c0.26,0.255,0.512,0.516,0.77,0.773
		c0.209,0.207,0.42,0.413,0.627,0.622c0.291,0.28,0.568,0.571,0.855,0.855c0.258,0.253,0.508,0.511,0.762,0.767
		c0.26,0.255,0.516,0.514,0.771,0.773c0.229,0.227,0.459,0.45,0.688,0.679c0.268,0.263,0.529,0.534,0.797,0.8
		c0.256,0.253,0.506,0.509,0.76,0.764c0.217,0.214,0.434,0.426,0.648,0.643c0.283,0.274,0.555,0.557,0.834,0.835
		c0.258,0.254,0.512,0.515,0.768,0.772c0.203,0.2,0.406,0.398,0.605,0.598c0.297,0.288,0.584,0.585,0.877,0.876
		c0.258,0.253,0.508,0.516,0.766,0.772c0.26,0.255,0.514,0.514,0.771,0.773c0.221,0.218,0.441,0.433,0.66,0.654
		c0.277,0.269,0.543,0.546,0.816,0.819c0.258,0.254,0.512,0.513,0.768,0.771c0.207,0.205,0.416,0.408,0.621,0.615
		c0.293,0.284,0.574,0.577,0.861,0.864c0.258,0.253,0.51,0.512,0.766,0.768c0.258,0.254,0.512,0.512,0.766,0.77
		c0.23,0.227,0.461,0.451,0.689,0.681c0.266,0.261,0.525,0.53,0.789,0.794c0.26,0.254,0.514,0.514,0.77,0.772
		c0.215,0.212,0.432,0.423,0.645,0.637c0.283,0.274,0.555,0.559,0.834,0.837c0.26,0.255,0.514,0.517,0.771,0.774
		c0.256,0.254,0.512,0.511,0.768,0.768c0.232,0.232,0.471,0.462,0.703,0.697c0.262,0.256,0.516,0.52,0.771,0.778
		c0.26,0.255,0.516,0.515,0.773,0.774c0.221,0.218,0.443,0.435,0.662,0.655c0.275,0.269,0.543,0.546,0.816,0.819
		c0.256,0.253,0.51,0.514,0.766,0.77c0.207,0.206,0.418,0.41,0.623,0.616c0.291,0.282,0.572,0.573,0.859,0.86
		c0.26,0.253,0.51,0.514,0.766,0.771c0.258,0.255,0.514,0.512,0.768,0.769c0.229,0.227,0.459,0.449,0.684,0.678
		c0.27,0.263,0.531,0.533,0.797,0.8c0.258,0.255,0.512,0.513,0.768,0.771c0.213,0.211,0.43,0.42,0.641,0.634
		c0.285,0.276,0.561,0.563,0.84,0.843c0.26,0.254,0.512,0.513,0.768,0.771c0.258,0.255,0.512,0.512,0.768,0.77
		c0.234,0.231,0.471,0.459,0.701,0.692c0.264,0.259,0.52,0.524,0.781,0.785c0.258,0.255,0.512,0.513,0.768,0.771
		c0.217,0.217,0.439,0.431,0.656,0.65c0.277,0.271,0.547,0.551,0.822,0.826c0.258,0.253,0.512,0.512,0.768,0.768
		c0.205,0.206,0.414,0.409,0.621,0.615c0.289,0.281,0.568,0.574,0.855,0.858c0.262,0.256,0.514,0.518,0.771,0.775
		c0.258,0.253,0.51,0.51,0.764,0.766c0.229,0.226,0.457,0.448,0.682,0.677c0.271,0.264,0.533,0.536,0.801,0.803
		c0.258,0.255,0.512,0.513,0.768,0.77c0.213,0.211,0.428,0.42,0.639,0.633c0.285,0.277,0.561,0.563,0.842,0.844
		c0.26,0.253,0.51,0.514,0.766,0.771c0.26,0.257,0.518,0.516,0.775,0.774c0.229,0.229,0.461,0.452,0.688,0.683
		c0.266,0.261,0.316,0.528,0.58,0.791c0.1,0.097,0.088,0.195,0.088,0.293V68.26C1000,30.561,969.852,0,932.152,0h-163.48
		C730.973,0,700,30.561,700,68.26v163.48c0,37.698,30.973,68.26,68.672,68.26H874.91c-0.26-0.255-0.514-0.516-0.768-0.772
		C873.943,299.031,873.744,298.836,873.547,298.639z"/>
	<path opacity="0.3" d="M1000,231.74v-58.574c0-0.098,0.012-0.196-0.088-0.293c-0.264-0.263-0.418-0.53-0.684-0.791
		c-0.227-0.23-0.408-0.454-0.637-0.683c-0.256-0.259-0.488-0.518-0.748-0.774c-0.256-0.257-0.494-0.518-0.754-0.771
		c-0.279-0.28-0.551-0.566-0.834-0.844c-0.211-0.213-0.424-0.422-0.635-0.633c-0.256-0.257-0.508-0.515-0.768-0.77
		c-0.268-0.267-0.529-0.539-0.801-0.803c-0.223-0.229-0.451-0.451-0.68-0.677c-0.254-0.256-0.506-0.513-0.764-0.766
		c-0.258-0.258-0.51-0.52-0.771-0.775c-0.287-0.284-0.566-0.577-0.855-0.858c-0.207-0.206-0.416-0.409-0.621-0.615
		c-0.256-0.256-0.51-0.515-0.768-0.768c-0.275-0.275-0.545-0.556-0.822-0.826c-0.217-0.22-0.439-0.434-0.656-0.65
		c-0.256-0.258-0.51-0.516-0.768-0.771c-0.262-0.261-0.518-0.526-0.781-0.785c-0.23-0.233-0.467-0.461-0.701-0.692
		c-0.256-0.258-0.51-0.515-0.768-0.77c-0.256-0.258-0.508-0.517-0.768-0.771c-0.279-0.28-0.555-0.566-0.84-0.843
		c-0.211-0.214-0.428-0.423-0.641-0.634c-0.256-0.258-0.51-0.516-0.768-0.771c-0.266-0.267-0.527-0.537-0.797-0.8
		c-0.225-0.229-0.455-0.451-0.684-0.678c-0.254-0.257-0.51-0.514-0.768-0.769c-0.256-0.257-0.506-0.518-0.766-0.771
		c-0.287-0.287-0.568-0.578-0.859-0.86c-0.205-0.207-0.416-0.411-0.623-0.616c-0.256-0.256-0.51-0.517-0.766-0.77
		c-0.273-0.273-0.541-0.55-0.816-0.819c-0.219-0.22-0.441-0.437-0.662-0.655c-0.258-0.259-0.514-0.519-0.773-0.774
		c-0.256-0.258-0.51-0.522-0.771-0.778c-0.232-0.235-0.471-0.464-0.703-0.697c-0.256-0.257-0.512-0.514-0.768-0.768
		c-0.258-0.257-0.512-0.519-0.771-0.774c-0.279-0.278-0.551-0.563-0.834-0.837c-0.213-0.214-0.43-0.425-0.645-0.637
		c-0.256-0.258-0.51-0.518-0.77-0.772c-0.264-0.264-0.523-0.533-0.789-0.794c-0.229-0.23-0.459-0.454-0.689-0.681
		c-0.254-0.257-0.508-0.515-0.766-0.77c-0.256-0.256-0.508-0.514-0.766-0.768c-0.287-0.287-0.568-0.58-0.861-0.864
		c-0.205-0.207-0.414-0.41-0.621-0.615c-0.256-0.258-0.51-0.517-0.768-0.771c-0.273-0.272-0.539-0.55-0.816-0.819
		c-0.219-0.221-0.439-0.436-0.66-0.654c-0.258-0.259-0.512-0.518-0.771-0.773c-0.258-0.256-0.508-0.519-0.766-0.772
		c-0.293-0.291-0.58-0.588-0.877-0.876c-0.199-0.2-0.402-0.398-0.605-0.598c-0.256-0.257-0.51-0.518-0.768-0.772
		c-0.279-0.278-0.551-0.561-0.834-0.835c-0.215-0.217-0.432-0.429-0.648-0.643c-0.254-0.254-0.504-0.511-0.76-0.764
		c-0.268-0.266-0.529-0.537-0.797-0.8c-0.229-0.229-0.459-0.453-0.688-0.679c-0.256-0.259-0.512-0.518-0.771-0.773
		c-0.254-0.256-0.504-0.514-0.762-0.767c-0.287-0.284-0.564-0.575-0.855-0.855c-0.207-0.209-0.418-0.415-0.627-0.622
		c-0.258-0.257-0.51-0.518-0.77-0.773c-0.271-0.27-0.535-0.544-0.809-0.81c-0.223-0.226-0.449-0.445-0.674-0.667
		c-0.252-0.256-0.504-0.511-0.76-0.763c-0.258-0.259-0.512-0.521-0.773-0.777c-0.291-0.29-0.574-0.585-0.869-0.871
		c-0.201-0.202-0.406-0.402-0.609-0.602c-0.254-0.257-0.508-0.516-0.766-0.769c-0.277-0.278-0.551-0.563-0.834-0.837
		c-0.213-0.215-0.43-0.426-0.645-0.639c-0.256-0.257-0.51-0.516-0.77-0.77c-0.264-0.266-0.523-0.536-0.793-0.798
		c-0.225-0.229-0.457-0.452-0.684-0.68c-0.258-0.258-0.514-0.517-0.773-0.773c-0.256-0.255-0.508-0.516-0.766-0.769
		c-0.283-0.284-0.563-0.573-0.852-0.853c-0.207-0.21-0.42-0.417-0.631-0.625c-0.254-0.257-0.506-0.516-0.768-0.77
		c-0.27-0.271-0.533-0.545-0.807-0.812c-0.221-0.224-0.447-0.442-0.67-0.665c-0.258-0.258-0.512-0.517-0.77-0.772
		c-0.256-0.255-0.504-0.514-0.762-0.765c-0.293-0.292-0.58-0.589-0.877-0.876c-0.201-0.203-0.406-0.403-0.611-0.604
		c-0.252-0.255-0.502-0.513-0.758-0.764c-0.279-0.279-0.555-0.565-0.84-0.84c-0.213-0.216-0.43-0.427-0.646-0.641
		c-0.256-0.257-0.508-0.514-0.766-0.768c-0.264-0.264-0.521-0.533-0.791-0.794c-0.227-0.231-0.459-0.457-0.691-0.685
		c-0.252-0.257-0.508-0.514-0.764-0.767c-0.26-0.259-0.514-0.522-0.775-0.778c-0.279-0.28-0.557-0.566-0.842-0.843
		c-0.211-0.213-0.426-0.422-0.639-0.633c-0.252-0.254-0.502-0.509-0.758-0.76c-0.271-0.271-0.537-0.549-0.814-0.817
		c-0.221-0.224-0.447-0.443-0.67-0.664c-0.254-0.257-0.51-0.514-0.766-0.769c-0.258-0.257-0.512-0.52-0.771-0.774
		c-0.291-0.289-0.572-0.583-0.867-0.867c-0.201-0.204-0.408-0.404-0.611-0.606c-0.256-0.256-0.508-0.515-0.764-0.768
		c-0.279-0.278-0.551-0.561-0.834-0.835c-0.211-0.215-0.43-0.425-0.645-0.638c-0.258-0.26-0.516-0.521-0.777-0.778
		c-0.26-0.262-0.518-0.529-0.781-0.787c-0.229-0.231-0.461-0.457-0.691-0.686c-0.256-0.258-0.514-0.517-0.771-0.772
		c-0.256-0.257-0.508-0.517-0.766-0.771c-0.283-0.282-0.561-0.57-0.848-0.848c-0.209-0.211-0.682-0.418-0.893-0.627
		C905.471,78.435,896,71.895,885,67.343V67h-0.258c-0.096,0-0.742-0.054-0.742-0.092V66h-1v-1h-1v-1h-1v-1h-1v-1h-2v-1l0,0v-2h-2
		l0,0h-1v-1l0,0v-2h-2l0,0h-1v-2h-1v-1h-1l0,0h-1v-2h-1v-1h-1v-1h-1v-1h-1v-1h-2v-1l0,0v-1h-1v-1h-2v-1l0,0v-2h-2l0,0h-18v19.613
		C797,65.045,765.809,98,761.637,140H741v18h2v2l0,0v1h2v1h1v1l0,0v1h2v1h1v1h1v1h1v1h1v2h1l0,0h1v1h1v2h1l0,0h2v2l0,0v1h1l0,0h2v2
		l0,0v1h2v1h1v1h1v1h1v1h1v1h1.215c0.098,1-0.215,0.508-0.215,0.736V185h0.662c4.184,10,10,18.334,17.105,25.763
		c0.066,0.07,0.137,0.165,0.203,0.235c0.586,0.607,1.17,1.229,1.773,1.821c0.277,0.276,0.549,0.567,0.832,0.84
		c0.211,0.216,0.43,0.429,0.645,0.642c0.256,0.261,0.514,0.523,0.775,0.781c0.254,0.253,0.504,0.515,0.76,0.766
		c0.299,0.296,0.59,0.6,0.891,0.892c0.197,0.196,0.395,0.392,0.594,0.587c0.256,0.256,0.51,0.518,0.768,0.772
		c0.285,0.281,0.561,0.569,0.848,0.848c0.207,0.21,0.42,0.415,0.629,0.624c0.258,0.258,0.512,0.519,0.773,0.774
		c0.266,0.267,0.527,0.539,0.799,0.803c0.223,0.227,0.449,0.446,0.678,0.672c0.256,0.258,0.512,0.519,0.773,0.774
		c0.256,0.257,0.508,0.519,0.768,0.772c0.289,0.286,0.568,0.578,0.859,0.859c0.201,0.205,0.408,0.405,0.613,0.607
		c0.258,0.259,0.512,0.52,0.773,0.775c0.273,0.274,0.543,0.556,0.82,0.825c0.217,0.218,0.438,0.433,0.654,0.647
		c0.258,0.258,0.512,0.519,0.771,0.773c0.256,0.256,0.506,0.517,0.764,0.771c0.299,0.293,0.586,0.594,0.885,0.884
		c0.199,0.199,0.4,0.396,0.602,0.594c0.254,0.254,0.502,0.513,0.76,0.764c0.283,0.281,0.561,0.571,0.846,0.848
		c0.211,0.213,0.426,0.424,0.641,0.633c0.256,0.259,0.51,0.519,0.768,0.773c0.268,0.266,0.529,0.538,0.799,0.801
		c0.221,0.225,0.449,0.443,0.672,0.666c0.258,0.26,0.516,0.52,0.773,0.776c0.258,0.258,0.51,0.519,0.771,0.773
		c0.285,0.286,0.564,0.577,0.857,0.859c0.203,0.204,0.41,0.407,0.617,0.611c0.258,0.259,0.514,0.521,0.775,0.777
		c0.273,0.272,0.539,0.55,0.814,0.817c0.217,0.221,0.439,0.435,0.658,0.652c0.254,0.256,0.508,0.515,0.766,0.768
		c0.26,0.261,0.514,0.524,0.777,0.781c0.291,0.291,0.578,0.589,0.875,0.875c0.197,0.2,0.398,0.396,0.598,0.594
		c0.256,0.257,0.51,0.518,0.77,0.771c0.281,0.281,0.557,0.567,0.842,0.844c0.209,0.213,0.424,0.421,0.637,0.632
		c0.256,0.258,0.51,0.517,0.77,0.771c0.266,0.267,0.525,0.536,0.793,0.798c0.227,0.23,0.457,0.453,0.686,0.68
		c0.256,0.258,0.51,0.515,0.768,0.77c0.26,0.257,0.512,0.52,0.773,0.775c0.283,0.282,0.563,0.572,0.85,0.851
		c0.207,0.209,0.416,0.415,0.627,0.621c0.256,0.257,0.51,0.517,0.768,0.771c0.273,0.272,0.541,0.551,0.818,0.82
		c0.213,0.219,0.434,0.431,0.652,0.646c0.26,0.262,0.518,0.524,0.781,0.783c0.256,0.255,0.504,0.517,0.764,0.769
		c0.293,0.292,0.58,0.591,0.877,0.878c0.197,0.197,0.395,0.393,0.594,0.587c0.26,0.263,0.516,0.526,0.779,0.784
		c0.279,0.276,0.551,0.561,0.832,0.834c0.213,0.215,0.43,0.425,0.645,0.638c0.254,0.254,0.504,0.512,0.762,0.764
		c0.268,0.27,0.529,0.542,0.803,0.807c0.221,0.226,0.449,0.447,0.676,0.67c0.258,0.261,0.518,0.521,0.779,0.779
		c0.254,0.257,0.506,0.517,0.764,0.77c0.285,0.283,0.563,0.572,0.85,0.851c0.209,0.212,0.422,0.419,0.633,0.627
		c0.256,0.256,0.508,0.514,0.766,0.768c0.27,0.27,0.533,0.545,0.809,0.812c0.219,0.223,0.445,0.441,0.668,0.662
		c0.258,0.26,0.514,0.52,0.775,0.776c0.254,0.255,0.506,0.516,0.762,0.769c0.293,0.291,0.578,0.588,0.877,0.875
		c0.195,0.197,0.396,0.393,0.596,0.589c0.26,0.263,0.518,0.527,0.783,0.788c0.273,0.273,0.543,0.554,0.824,0.826
		c0.213,0.214,0.428,0.425,0.643,0.637c0.258,0.259,0.512,0.519,0.771,0.774c0.258,0.259,0.512,0.522,0.771,0.777
		c0.299,0.296,0.588,0.598,0.891,0.889c0.195,0.196,0.393,0.39,0.59,0.584c0.254,0.255,0.502,0.513,0.76,0.764
		c0.287,0.286,0.566,0.579,0.859,0.861c0.205,0.207,0.414,0.411,0.623,0.616c0.256,0.258,0.51,0.517,0.768,0.771
		c0.273,0.271,0.539,0.549,0.814,0.817c0.219,0.221,0.443,0.438,0.664,0.657c0.256,0.259,0.512,0.518,0.77,0.772
		c0.26,0.259,0.514,0.521,0.775,0.777c0.289,0.288,0.572,0.582,0.865,0.865c0.199,0.203,0.404,0.402,0.607,0.603
		c0.256,0.258,0.51,0.519,0.77,0.772c0.275,0.277,0.547,0.559,0.828,0.832c0.215,0.217,0.434,0.43,0.65,0.645
		c0.256,0.257,0.51,0.516,0.77,0.771c0.256,0.257,0.508,0.519,0.766,0.772c0.301,0.297,0.592,0.601,0.895,0.893
		c0.193,0.193,0.387,0.385,0.582,0.576c0.258,0.258,0.512,0.521,0.773,0.776c0.285,0.284,0.561,0.572,0.85,0.851
		c0.207,0.211,0.42,0.418,0.631,0.626c0.254,0.255,0.506,0.513,0.764,0.766c0.27,0.271,0.535,0.547,0.809,0.814
		c0.221,0.224,0.447,0.441,0.67,0.661c0.258,0.261,0.514,0.521,0.775,0.776c0.254,0.255,0.5,0.513,0.758,0.763
		c0.291,0.292,0.578,0.591,0.875,0.877c0.201,0.203,0.406,0.403,0.611,0.604c0.258,0.259,0.51,0.52,0.771,0.775
		c0.273,0.273,0.541,0.552,0.818,0.821c0.215,0.217,0.436,0.431,0.654,0.647c0.256,0.259,0.51,0.519,0.77,0.773
		c0.262,0.258,0.512,0.521,0.773,0.777c0.295,0.292,0.582,0.591,0.879,0.878c0.197,0.197,0.396,0.393,0.596,0.589
		c0.254,0.257,0.508,0.518,0.768,0.772h57.242C969.852,300,1000,269.438,1000,231.74z"/>
	<path fill="#0092FF" d="M850.314,219.987c-39.012,0-70.752-31.74-70.752-70.753c0-39.014,31.74-70.754,70.752-70.754
		c39.014,0,70.754,31.74,70.754,70.754C921.068,188.247,889.328,219.987,850.314,219.987z"/>
	<path fill="#9ED800" d="M828.387,79.142c0,0,21.709,2.505,19.205,12.525c0,0-5.645,15.03-9.502,20.875
		c0,0-7.197-10.854-13.043-8.35c-5.844,2.505-15.029,15.029-10.854,18.369c0,0,0.768,6.771,9.184-5.009
		c0,0,9.186-2.808,11.689,6.946c2.506,9.753-17.535,17.322-17.535,17.322s-4.611,1.615-4.395,8.296c0,0,2.725,16.699-7.295,4.175
		c0,0-12.523,0-10.02,9.185c2.506,9.185,10.02,10.854,10.02,10.854s-8.346-2.926-17.533-11.689S774.949,94.172,828.387,79.142z"/>
	<path fill="#9ED800" d="M805.842,168.763c0,0-5.844,3.34-5.01,11.688c0.836,8.351,2.553,2.403,9.424,16.7
		c0,0,8.947,12.524,19.801,15.029c0,0-10.02-16.7,0-30.895c0,0,0.836-4.174-4.176-6.679
		C825.881,174.607,818.572,172.758,805.842,168.763z"/>
	<path fill="#9ED800" d="M888.885,79.523c0,0,2.18,9.83,6.354,20.685c0,0-7.541,2.409-18.395-0.095c0,0-6.693,4.127-6.693,16.651
		c0,0-0.008,16.675,12.516-0.025c0,0,10.018-7.712-0.002,7.412c0,0-5.014,5.93-15.867,8.435c0,0-13.361,1.713-6.68,9.182
		c0,0,7.313,3.446,16.598,3.392l12.625-4.229c0,0,9.184-1.484,11.689,8.86c0,0-1.035,2.829-21.393,4.499
		c0,0-5.328-5.056-12.008-5.056c0,0-12.383-0.79-14.85,10.064c0,0-7.512,12.525-4.986,18.37c0,0,3.973,8.351,14.826,5.846
		c0,0,10.539-6.578,11.533,0.469c0,0,0.992,10.385-4.018,13.725c0,0-5.844,6.401-6.68,14.473c0,0,5.846,3.896,24.215-13.638
		c0,0,8.348-17.534,13.359-20.039c5.01-2.505,10.02-9.741,10.02-9.741s-6.68,0.047-8.35-9.464l8.35,5.011c0,0,5.01-4.965,5.01-10.02
		l-7.516-8.062L919.398,150h11.078C930.477,150,934.354,95.529,888.885,79.523z"/>
	<path fill="#FFFFFF" d="M959,140h-20.064C934.506,98,901,64.728,858,60.555V41h-18v19.613C797,65.045,765.809,98,761.637,140H741
		v18h20.695C766.127,201,799,233.74,842,237.912V257h18v-19.146c41-4.43,74.822-37.854,78.996-79.854H959V140z M850.314,219.987
		c-39.012,0-70.752-31.74-70.752-70.753c0-39.014,31.74-70.754,70.752-70.754c39.014,0,70.754,31.74,70.754,70.754
		C921.068,188.247,889.328,219.987,850.314,219.987z"/>
</g>
</svg>
