<?xml version="1.0" encoding="utf-8"?>
<!-- Generator: Adobe Illustrator 16.0.0, SVG Export Plug-In . SVG Version: 6.00 Build 0)  -->
<!DOCTYPE svg PUBLIC "-//W3C//DTD SVG 1.1//EN" "http://www.w3.org/Graphics/SVG/1.1/DTD/svg11.dtd">
<svg version="1.1" xmlns="http://www.w3.org/2000/svg" xmlns:xlink="http://www.w3.org/1999/xlink" x="0px" y="0px" width="43.5px"
	 height="86.5px" viewBox="0 0 43.5 86.5" enable-background="new 0 0 43.5 86.5" xml:space="preserve">
<g id="Layer_1">
	
		<image overflow="visible" width="531" height="577" xlink:href="CDE02F17.jpg"  transform="matrix(0.1473 0 0 0.1473 -376.6118 0)">
	</image>
</g>
<g id="Layer_2">
	<line fill="none" stroke="#FF5252" stroke-miterlimit="10" x1="-345.375" y1="64.75" x2="-337.5" y2="64.75"/>
	<line fill="none" stroke="#FF5252" stroke-miterlimit="10" x1="-345.375" y1="67.917" x2="-337.5" y2="67.917"/>
	<line fill="none" stroke="#FF5252" stroke-miterlimit="10" x1="-345.375" y1="71.417" x2="-337.5" y2="71.417"/>
	<line fill="none" stroke="#FF5252" stroke-miterlimit="10" x1="-345.375" y1="74.917" x2="-337.5" y2="74.917"/>
	<path fill="none" stroke="#FF5252" stroke-linecap="round" stroke-linejoin="round" stroke-miterlimit="10" d="M-339.083,64.75
		c0,0,1.917-14.75-6.292-23.833h5.208l2.667-3.833"/>
	
		<line fill="none" stroke="#FF5252" stroke-linecap="round" stroke-linejoin="round" stroke-miterlimit="10" x1="-360.083" y1="47.167" x2="-366.917" y2="50.333"/>
	
		<line fill="none" stroke="#FF5252" stroke-linecap="round" stroke-linejoin="round" stroke-miterlimit="10" x1="-360.083" y1="28.5" x2="-366.917" y2="25.333"/>
	
		<line fill="none" stroke="#FF5252" stroke-linecap="round" stroke-linejoin="round" stroke-miterlimit="10" x1="-346.5" y1="14.75" x2="-349.417" y2="7.667"/>
	<path fill="none" stroke="#FF5252" stroke-miterlimit="10" d="M-337.5,18.875c-10.125,0-18,10-18,18.5s6.75,18,6.75,18
		c0.25,8,3.375,9.375,3.375,9.375v10l7.875,3.875l7.875-3.875v-10c0,0,3.125-1.375,3.375-9.375c0,0,6.75-9.5,6.75-18
		S-327.375,18.875-337.5,18.875z"/>
	<line fill="none" stroke="#FF5252" stroke-miterlimit="10" x1="-329.625" y1="64.75" x2="-337.5" y2="64.75"/>
	<line fill="none" stroke="#FF5252" stroke-miterlimit="10" x1="-329.625" y1="67.917" x2="-337.5" y2="67.917"/>
	<line fill="none" stroke="#FF5252" stroke-miterlimit="10" x1="-329.625" y1="71.417" x2="-337.5" y2="71.417"/>
	<line fill="none" stroke="#FF5252" stroke-miterlimit="10" x1="-329.625" y1="74.917" x2="-337.5" y2="74.917"/>
	<path fill="none" stroke="#FF5252" stroke-linecap="round" stroke-linejoin="round" stroke-miterlimit="10" d="M-335.917,64.75
		c0,0-1.917-14.75,6.292-23.833h-5.208l-2.667-3.833"/>
	
		<line fill="none" stroke="#FF5252" stroke-linecap="round" stroke-linejoin="round" stroke-miterlimit="10" x1="-314.917" y1="47.167" x2="-308.083" y2="50.333"/>
	
		<line fill="none" stroke="#FF5252" stroke-linecap="round" stroke-linejoin="round" stroke-miterlimit="10" x1="-314.917" y1="28.5" x2="-308.083" y2="25.333"/>
	
		<line fill="none" stroke="#FF5252" stroke-linecap="round" stroke-linejoin="round" stroke-miterlimit="10" x1="-328.5" y1="14.75" x2="-325.583" y2="7.667"/>
	<rect fill="#D98891" width="21.75" height="86.5"/>
	<rect x="21.75" fill="#FFFFFF" width="21.75" height="86.5"/>
</g>
</svg>
