<?xml version="1.0" encoding="utf-8"?>
<!-- Generator: Adobe Illustrator 16.0.0, SVG Export Plug-In . SVG Version: 6.00 Build 0)  -->
<!DOCTYPE svg PUBLIC "-//W3C//DTD SVG 1.1//EN" "http://www.w3.org/Graphics/SVG/1.1/DTD/svg11.dtd">
<svg version="1.1" id="Layer_1" xmlns="http://www.w3.org/2000/svg" xmlns:xlink="http://www.w3.org/1999/xlink" x="0px" y="0px"
	 width="50px" height="50px" viewBox="1.5 1.5 50 50" enable-background="new 1.5 1.5 50 50" xml:space="preserve">
<g>
	<path fill="#494949" d="M61.131,39.111v-13.63h-4.812v-0.822h10.502v0.822h-4.81v13.63H61.131z"/>
	<path fill="#494949" d="M71.652,28.207c1.39,0,2.47,0.422,3.237,1.264s1.152,2.031,1.152,3.568v1.402
		c0,1.536-0.386,2.727-1.152,3.566c-0.77,0.842-1.848,1.264-3.237,1.264c-1.389,0-2.469-0.422-3.236-1.264
		c-0.77-0.842-1.152-2.03-1.152-3.566v-1.402c0-1.537,0.384-2.728,1.152-3.568C69.184,28.629,70.262,28.207,71.652,28.207z
		 M71.652,38.529c1.083,0,1.94-0.333,2.576-1.002c0.634-0.668,0.95-1.695,0.95-3.086v-1.402c0-1.391-0.316-2.419-0.95-3.088
		c-0.636-0.668-1.494-1.002-2.576-1.002s-1.941,0.334-2.574,1.002c-0.636,0.669-0.953,1.697-0.953,3.088v1.402
		c0,1.391,0.317,2.418,0.953,3.086C69.711,38.196,70.57,38.529,71.652,38.529z"/>
	<path fill="#494949" d="M79.81,30.172c0.268-0.547,0.705-1.013,1.313-1.394c0.608-0.381,1.326-0.571,2.155-0.571
		c1.282,0,2.288,0.389,3.017,1.163c0.729,0.775,1.092,1.904,1.092,3.388v1.965c0,0.748-0.104,1.402-0.311,1.964
		s-0.498,1.036-0.871,1.423c-0.375,0.389-0.822,0.68-1.344,0.872s-1.096,0.291-1.725,0.291c-0.641,0-1.271-0.132-1.894-0.392
		c-0.622-0.261-1.093-0.639-1.413-1.133V43.4h-0.861V28.428h0.842V30.172z M79.79,35.904c0,0.348,0.084,0.678,0.25,0.992
		c0.168,0.313,0.397,0.588,0.691,0.82c0.294,0.234,0.648,0.422,1.063,0.563c0.416,0.141,0.875,0.21,1.383,0.21
		c1.002,0,1.812-0.333,2.426-1.002c0.615-0.668,0.923-1.63,0.923-2.886v-1.725c0-1.27-0.274-2.234-0.821-2.896
		c-0.549-0.662-1.384-0.992-2.506-0.992c-0.388,0-0.785,0.073-1.193,0.222c-0.406,0.146-0.773,0.359-1.102,0.641
		s-0.595,0.625-0.802,1.033c-0.208,0.406-0.312,0.871-0.312,1.393V35.904z"/>
</g>
<g>
	<g opacity="0.9">
		<path fill="#FFFFFF" d="M51.23,47.995c0,1.787-1.448,3.235-3.235,3.235H5.005c-1.788,0-3.236-1.448-3.236-3.235V5.005
			c0-1.788,1.448-3.236,3.236-3.236h42.99c1.787,0,3.235,1.448,3.235,3.236V47.995z"/>
	</g>
	<polyline fill="none" stroke="#262626" stroke-width="0.75" stroke-miterlimit="10" points="38.634,28.81 26.5,16.743 
		14.367,28.81 	"/>
	<line fill="none" stroke="#262626" stroke-width="0.75" stroke-miterlimit="10" x1="26.5" y1="16.743" x2="26.5" y2="39.911"/>
	<line fill="none" stroke="#262626" stroke-width="0.75" stroke-miterlimit="10" x1="14.367" y1="10.726" x2="38.634" y2="10.726"/>
	<path fill="#727272" d="M47.995,51.5H5.005c-1.933,0-3.505-1.572-3.505-3.505V5.005C1.5,3.072,3.072,1.5,5.005,1.5h42.99
		c1.933,0,3.505,1.572,3.505,3.505v42.99C51.5,49.928,49.928,51.5,47.995,51.5z M5.005,2.039c-1.636,0-2.966,1.331-2.966,2.966
		v42.99c0,1.636,1.331,2.966,2.966,2.966h42.99c1.636,0,2.966-1.33,2.966-2.966V5.005c0-1.636-1.33-2.966-2.966-2.966H5.005z"/>
</g>
</svg>
