<?xml version="1.0" encoding="utf-8"?>
<!-- Generator: Adobe Illustrator 16.0.0, SVG Export Plug-In . SVG Version: 6.00 Build 0)  -->
<!DOCTYPE svg PUBLIC "-//W3C//DTD SVG 1.1//EN" "http://www.w3.org/Graphics/SVG/1.1/DTD/svg11.dtd">
<svg version="1.1" xmlns="http://www.w3.org/2000/svg" xmlns:xlink="http://www.w3.org/1999/xlink" x="0px" y="0px"
	 width="247.842px" height="188.15px" viewBox="0 0 247.842 188.15" enable-background="new 0 0 247.842 188.15"
	 xml:space="preserve">
<g id="Layer_1" display="none">
	
		<image display="inline" overflow="visible" width="557" height="335" xlink:href="A1AAFA21.jpg"  transform="matrix(1 0 0 1 -800.9663 -17)">
	</image>
</g>
<g id="Layer_2">
</g>
<g id="Layer_3">
	<g>
		<path fill="#FD803D" d="M87.351,89.552c0.7-3.161,1.439-6.215,2.169-8.981c-0.109-0.163-0.214-0.338-0.317-0.524
			c-3.05,3.327-5.853,6.681-8.391,10.004C83.436,89.785,85.686,89.629,87.351,89.552z"/>
		<path fill="#FD803D" d="M178.777,77.735c0.804-3.632,1.66-7.147,2.494-10.215c-3.306,3.558-6.314,7.153-9.034,10.713
			C174.863,77.969,177.112,77.813,178.777,77.735z"/>
		<path fill="#FD803D" d="M38.378,84.099c-3.65,1.178-7.377,2.899-10.957,4.949c-0.11,1.854-0.172,3.721-0.172,5.603
			c0,8.967,1.265,17.638,3.621,25.847C35.338,109.239,39.051,95.02,38.378,84.099z"/>
		<path fill="#FD803D" d="M143.386,57.011c-1.97-3.041-17.182-5.037-32.486,4.209c1.74-0.091,5.077,1.621,4.26,3.495
			c-2.785,6.394-5.109,13.298-6.919,19.942C138.277,72.122,145.163,59.753,143.386,57.011z"/>
		<path fill="#FD803D" d="M201.6,67.093c-3.792,13.69-10.732,53.438-3.047,56.159c-0.862,0.481-5.142,0.555-6.883-0.313
			c-7.865-3.914,1.781-53.87,6.516-62.559c0.322-0.591,3.281-0.08,4.476,1.035c0.05,0.009,0.097,0.049,0.137,0.126
			c0.298,0.326,0.426,0.703,0.315,1.113c2.494,9.215,9.822,28.072,9.822,28.072c0.256-1.824,0.545-3.601,0.857-5.341
			C209.143,38.098,169.262,1.15,120.75,1.15c-47.24,0-86.291,35.036-92.602,80.54c3.481-1.717,7.018-3.087,10.44-3.907
			c0.841-0.202,5.98,0.214,6.187,3.021c1.289,17.554-4.765,36.089-11.035,48.142c13.677,34.671,47.479,59.204,87.01,59.204
			c50.875,0,92.258-40.633,93.471-91.216c-0.684-0.252-1.256-0.563-1.521-0.874C210.961,94.019,202.157,69.234,201.6,67.093z
			 M106.737,90.608c-3.097,13.331-3.878,24.525-1.786,26.643c1.27,1.285-5.22,0.396-7.542-2.539
			c-3.131-3.96,2.507-29.771,12.485-52.868c-3.459,2.202-6.906,4.996-10.192,8.488c-8.861,22.06-10.451,48.538-8.728,49.652
			c-1.166,0.521-5.843,0.107-7.172-3.019c-0.981-2.313,0.482-12.607,2.623-23.072c-2.998,0.168-6.049,0.473-9.104,0.93
			c-13.359,19.033-18.502,35.958-17.821,38.755c-1.091,0.141-4.715-1.426-5.67-3.799c-1.927-4.795,5.014-19.062,14.226-33.068
			C59.3,99,50.932,102.737,44.16,108.354c-1.744,1.444-0.557-7.391,1.332-8.596c6.974-4.453,17.293-7.052,26.291-8.522
			c7.608-10.81,16.085-20.669,22.245-24.88c14.094-15.997,41.408-19.208,44.614-17.933c5.85,2.327,8.842,10.672,7.992,14.135
			C144.989,69.249,129.315,81.748,106.737,90.608z M182.4,108.168c-1.165,0.521-5.843,0.106-7.172-3.019
			c-0.981-2.313,0.482-12.607,2.623-23.072c-2.998,0.167-6.05,0.473-9.104,0.93c-13.359,19.032-18.502,35.957-17.82,38.755
			c-1.091,0.141-4.715-1.426-5.67-3.799c-1.927-4.795,5.013-19.062,14.226-33.068c-8.756,2.289-17.124,6.025-23.896,11.643
			c-1.743,1.445-0.556-7.391,1.332-8.596c6.974-4.452,17.293-7.051,26.291-8.522c7.633-10.844,16.141-20.734,22.305-24.922
			c1.189-0.809,7.816,1.454,6.004,3.046C182.309,79.788,180.652,107.036,182.4,108.168z"/>
		<path fill="#FD803D" d="M0.002,107.431c0.118,2.82,5.326,8.084,5,6.253c-1.064-6.01,9.75-17.382,22.419-24.636
			c0.146-2.479,0.39-4.934,0.727-7.357C13.47,88.93-0.208,102.395,0.002,107.431z"/>
		<path fill="#FD803D" d="M19.209,139.166c-2.594-0.035-2.255-0.757-2.371-1.174c-0.116-0.416-4.251-0.93-5.218-1.729
			c-0.966-0.801,0.803,3.35,2.384,4.131c1.581,0.783,6.921,2.264,9.35,1.751c2.332-0.493,6.402-5.541,10.385-13.198
			c-1.086-2.755-2.043-5.574-2.869-8.449C26.631,131.182,21.711,139.199,19.209,139.166z"/>
		<path fill="#FD803D" d="M242.847,35.227c-1.41-0.2-5.679,0.735-8.126,2.253c-3.551,2.202-15.795,19.337-20.928,47.907
			c0.301,3.048,0.457,6.138,0.457,9.264c0,0.764-0.011,1.524-0.029,2.284c1.758,0.646,4.277,0.889,4.404-0.345
			c3.527-34.243,18.612-55.859,23.496-57.663c3.098-1.143,4.517-0.121,5.529-0.159C248.662,38.729,245.453,35.599,242.847,35.227z"
			/>
	</g>
</g>
</svg>
