<?xml version="1.0" encoding="utf-8"?>
<!-- Generator: Adobe Illustrator 21.0.2, SVG Export Plug-In . SVG Version: 6.00 Build 0)  -->
<svg version="1.1" id="Layer_1" xmlns="http://www.w3.org/2000/svg" xmlns:xlink="http://www.w3.org/1999/xlink" x="0px" y="0px"
	 viewBox="0 0 500 500" style="enable-background:new 0 0 500 500;" xml:space="preserve">
<style type="text/css">
	.st0{fill:none;stroke:#FFFFFF;stroke-width:8;stroke-miterlimit:10;}
	.st1{fill:none;stroke:#FFFFFF;stroke-width:8;stroke-linejoin:bevel;stroke-miterlimit:10;}
	.st2{fill:none;}
</style>
<g>
	<circle class="st0" cx="-636.1" cy="285.1" r="57.7"/>
	<circle class="st0" cx="-458.1" cy="285.1" r="51.8"/>
	<polyline class="st1" points="-598.1,197.6 -496,197.6 -636.1,285.1 -458.1,285.1 	"/>
</g>
<rect x="-691" y="358.3" class="st2" width="282" height="44.7"/>
<text transform="matrix(1 0 0 1 -691.0002 375.8525)" style="fill:#FFFFFF; font-family:'NanumSquareL'; font-size:24px; letter-spacing:108;">은지</text>
<text transform="matrix(1 0 0 1 -430.8002 375.8525)" style="fill:#FFFFFF; font-family:'NanumSquareL'; font-size:24px;">혜</text>
<rect x="-387" y="186" class="st2" width="61" height="163"/>
<text transform="matrix(1 0 0 1 -387 203.52)" style="fill:#FFFFFF; font-family:'NanumSquareL'; font-size:24px;">은</text>
<text transform="matrix(1 0 0 1 -387 275.52)" style="fill:#FFFFFF; font-family:'NanumSquareL'; font-size:24px;">지</text>
<text transform="matrix(1 0 0 1 -387 347.52)" style="fill:#FFFFFF; font-family:'NanumSquareL'; font-size:24px;">혜</text>
<g>
	<circle class="st0" cx="-628.1" cy="660" r="57.7"/>
	<circle class="st0" cx="-450.1" cy="660" r="51.8"/>
	<polyline class="st1" points="-590.1,572.6 -488,572.6 -628.1,660 -450.1,660 	"/>
</g>
<rect x="-379" y="560.9" class="st2" width="61" height="163"/>
<text transform="matrix(1 0 0 1 -379 578.4506)" style="fill:#FFFFFF; font-family:'NanumSquareL'; font-size:24px;">은</text>
<text transform="matrix(1 0 0 1 -379 650.4506)" style="fill:#FFFFFF; font-family:'NanumSquareL'; font-size:24px;">지</text>
<text transform="matrix(1 0 0 1 -379 722.4506)" style="fill:#FFFFFF; font-family:'NanumSquareL'; font-size:24px;">혜</text>
</svg>
