<?xml version="1.0" encoding="utf-8"?>
<!-- Generator: Adobe Illustrator 16.0.0, SVG Export Plug-In . SVG Version: 6.00 Build 0)  -->
<!DOCTYPE svg PUBLIC "-//W3C//DTD SVG 1.1//EN" "http://www.w3.org/Graphics/SVG/1.1/DTD/svg11.dtd">
<svg version="1.1" id="Layer_1" xmlns="http://www.w3.org/2000/svg" xmlns:xlink="http://www.w3.org/1999/xlink" x="0px" y="0px"
	 width="464px" height="464px" viewBox="0 0 464 464" enable-background="new 0 0 464 464" xml:space="preserve">
<path fill="#EF9900" d="M464,389c0,41.421-33.579,75-75,75H75c-41.421,0-75-33.579-75-75V75C0,33.579,33.579,0,75,0h314
	c41.421,0,75,33.579,75,75V389z"/>
<path fill="#0049B2" d="M369,496v121c0,41.421,33.578,75,75,75h314c41.421,0,75-33.579,75-75V496H369z"/>
<path fill="#3A3A3A" d="M358.307,246c-7.1-32.459-13.059-59.701-13.807-63.125c-1.969-9.007-7.163-15.875-16-15.875h-200
	c-8.836,0-13,2.375-16,15.875c-1.117,5.026-6.949,31.667-13.828,63.125H358.307z"/>
<g>
	<line fill="#007EEF" x1="57" y1="268" x2="408" y2="268"/>
	<path fill="#007EEF" d="M408,275H57c-4.142,0-7.5-3.357-7.5-7.5s3.358-7.5,7.5-7.5h351c4.143,0,7.5,3.357,7.5,7.5
		S412.143,275,408,275z"/>
</g>
<path fill="#007EEF" d="M92.332,275C82.373,320.558,72.5,365.75,72.5,365.75c0,8.837,7.164,16.25,16,16.25h280
	c8.837,0,16-7.413,16-16.25c0,0-9.894-45.232-19.85-90.75H92.332z"/>
<polygon fill="#FFFFFF" points="314,193 148,193 115,348 148,348 314,348 347,348 "/>
<line fill="none" stroke="#353535" stroke-width="10" stroke-linecap="round" x1="169" y1="220" x2="293" y2="220"/>
<line fill="none" stroke="#353535" stroke-width="10" stroke-linecap="round" x1="164" y1="246" x2="298" y2="246"/>
<line fill="none" stroke="#007EEF" stroke-width="10" stroke-linecap="round" stroke-miterlimit="10" x1="160" y1="273" x2="302" y2="273"/>
<line fill="none" stroke="#007EEF" stroke-width="10" stroke-linecap="round" stroke-miterlimit="10" x1="154" y1="300" x2="308" y2="300"/>
<line fill="none" stroke="#007EEF" stroke-width="10" stroke-linecap="round" stroke-miterlimit="10" x1="145" y1="326" x2="316" y2="326"/>
<g>
	<path fill="#3A3A3A" d="M151.875,80.882c-5.5-0.004-13.045,3.306-16.767,7.355l-51.841,56.4C79.545,148.687,81,152,86.5,152H378
		c5.5,0,6.937-3.296,3.191-7.324l-52.383-56.352c-3.745-4.028-11.309-7.327-16.809-7.331L151.875,80.882z"/>
</g>
<circle fill="#FFFFFF" cx="105.906" cy="138.572" r="3.573"/>
</svg>
