<?xml version="1.0" encoding="utf-8"?>
<!-- Generator: Adobe Illustrator 16.0.0, SVG Export Plug-In . SVG Version: 6.00 Build 0)  -->
<!DOCTYPE svg PUBLIC "-//W3C//DTD SVG 1.1//EN" "http://www.w3.org/Graphics/SVG/1.1/DTD/svg11.dtd">
<svg version="1.1" id="Layer_1" xmlns="http://www.w3.org/2000/svg" xmlns:xlink="http://www.w3.org/1999/xlink" x="0px" y="0px"
	 width="2472.078px" height="933.094px" viewBox="0 0 2472.078 933.094" enable-background="new 0 0 2472.078 933.094"
	 xml:space="preserve">
<pattern  x="-886.922" y="520.245" width="233.345" height="233.345" patternUnits="userSpaceOnUse" id="New_Pattern_6" viewBox="158.149 -391.494 233.345 233.345" overflow="visible">
	<g>
		<polygon fill="none" points="158.149,-391.494 391.494,-391.494 391.494,-158.149 158.149,-158.149 		"/>
		<g>
			<defs>
				<rect id="SVGID_1_" x="391.493" y="-391.494" width="233.346" height="233.346"/>
			</defs>
			<clipPath id="SVGID_2_">
				<use xlink:href="#SVGID_1_"  overflow="visible"/>
			</clipPath>
			
				<line clip-path="url(#SVGID_2_)" fill="none" stroke="#FFFFFF" stroke-width="10" stroke-miterlimit="10" x1="546.106" y1="-546.107" x2="236.88" y2="-236.881"/>
			
				<line clip-path="url(#SVGID_2_)" fill="none" stroke="#FFFFFF" stroke-width="10" stroke-miterlimit="10" x1="584.999" y1="-507.217" x2="275.771" y2="-197.99"/>
			
				<line clip-path="url(#SVGID_2_)" fill="none" stroke="#FFFFFF" stroke-width="10" stroke-miterlimit="10" x1="623.89" y1="-468.326" x2="314.663" y2="-159.1"/>
			
				<line clip-path="url(#SVGID_2_)" fill="none" stroke="#FFFFFF" stroke-width="10" stroke-miterlimit="10" x1="662.78" y1="-429.436" x2="353.554" y2="-120.209"/>
			
				<line clip-path="url(#SVGID_2_)" fill="none" stroke="#FFFFFF" stroke-width="10" stroke-miterlimit="10" x1="701.671" y1="-390.545" x2="392.444" y2="-81.317"/>
		</g>
		<g>
			<defs>
				<rect id="SVGID_3_" x="158.148" y="-391.494" width="233.346" height="233.346"/>
			</defs>
			<clipPath id="SVGID_4_">
				<use xlink:href="#SVGID_3_"  overflow="visible"/>
			</clipPath>
			
				<line clip-path="url(#SVGID_4_)" fill="none" stroke="#FFFFFF" stroke-width="10" stroke-miterlimit="10" x1="312.762" y1="-546.107" x2="3.535" y2="-236.881"/>
			
				<line clip-path="url(#SVGID_4_)" fill="none" stroke="#FFFFFF" stroke-width="10" stroke-miterlimit="10" x1="351.654" y1="-507.217" x2="42.426" y2="-197.99"/>
			
				<line clip-path="url(#SVGID_4_)" fill="none" stroke="#FFFFFF" stroke-width="10" stroke-miterlimit="10" x1="390.545" y1="-468.326" x2="81.318" y2="-159.1"/>
			
				<line clip-path="url(#SVGID_4_)" fill="none" stroke="#FFFFFF" stroke-width="10" stroke-miterlimit="10" x1="429.436" y1="-429.436" x2="120.209" y2="-120.209"/>
			
				<line clip-path="url(#SVGID_4_)" fill="none" stroke="#FFFFFF" stroke-width="10" stroke-miterlimit="10" x1="468.326" y1="-390.545" x2="159.1" y2="-81.317"/>
			
				<line clip-path="url(#SVGID_4_)" fill="none" stroke="#FFFFFF" stroke-width="10" stroke-miterlimit="10" x1="507.217" y1="-351.653" x2="197.99" y2="-42.427"/>
			
				<line clip-path="url(#SVGID_4_)" fill="none" stroke="#FFFFFF" stroke-width="10" stroke-miterlimit="10" x1="546.107" y1="-312.762" x2="236.881" y2="-3.535"/>
		</g>
	</g>
</pattern>
<rect fill="#ADD22C" width="2472.078" height="933.094"/>
<rect x="-886.922" y="520.245" fill="#9E9E9E" width="300" height="300"/>
<g>
	
		<line fill="none" stroke="#FFFFFF" stroke-width="10" stroke-miterlimit="10" x1="-1399.555" y1="581.755" x2="-1316.545" y2="581.755"/>
	
		<line fill="none" stroke="#FFFFFF" stroke-width="10" stroke-miterlimit="10" x1="-1399.555" y1="602.002" x2="-1316.546" y2="602.002"/>
	
		<line fill="none" stroke="#FFFFFF" stroke-width="10" stroke-miterlimit="10" x1="-1399.554" y1="622.248" x2="-1316.545" y2="622.248"/>
	
		<line fill="none" stroke="#FFFFFF" stroke-width="10" stroke-miterlimit="10" x1="-1399.554" y1="642.495" x2="-1316.545" y2="642.495"/>
	
		<line fill="none" stroke="#FFFFFF" stroke-width="10" stroke-miterlimit="10" x1="-1399.555" y1="662.741" x2="-1316.545" y2="662.741"/>
	
		<line fill="none" stroke="#FFFFFF" stroke-width="10" stroke-miterlimit="10" x1="-1399.555" y1="682.988" x2="-1329.568" y2="682.988"/>
	<polygon fill="none" stroke="#FFFFFF" stroke-width="10" stroke-miterlimit="10" points="-1413.592,558.148 -1413.592,706.597 
		-1329.568,706.597 -1302.509,679.534 -1302.509,558.148 	"/>
	<polyline fill="none" stroke="#FFFFFF" stroke-width="10" stroke-miterlimit="10" points="-1302.509,679.534 -1329.568,679.534 
		-1329.568,706.597 	"/>
</g>
<g>
	
		<rect x="-1470.902" y="1085.245" fill="none" stroke="#FFFFFF" stroke-width="10" stroke-miterlimit="10" width="203.225" height="99.652"/>
	<g>
		<path fill="none" stroke="#FFFFFF" stroke-width="10" stroke-linejoin="round" stroke-miterlimit="10" d="M-1435.874,1135.048
			c-5.496-2.6-9.298-8.193-9.298-14.678c0-8.962,7.266-16.228,16.228-16.228c8.962,0,16.228,7.266,16.228,16.228
			c0,6.59-3.927,12.262-9.568,14.804l-0.001-0.005c0,0,9.569,10.402,9.569,30.83h-16.228h-16.228c0-20.428,9.57-30.83,9.57-30.83
			L-1435.874,1135.048z"/>
		
			<line fill="none" stroke="#FFFFFF" stroke-width="10" stroke-linejoin="round" stroke-miterlimit="10" x1="-1391.397" y1="1124.161" x2="-1361.869" y2="1124.161"/>
		
			<line fill="none" stroke="#FFFFFF" stroke-width="10" stroke-linejoin="round" stroke-miterlimit="10" x1="-1391.397" y1="1140.199" x2="-1293.408" y2="1140.199"/>
		
			<line fill="none" stroke="#FFFFFF" stroke-width="10" stroke-linejoin="round" stroke-miterlimit="10" x1="-1391.397" y1="1156.236" x2="-1293.408" y2="1156.236"/>
	</g>
</g>
<g>
	
		<rect x="-1522.923" y="626.48" fill="none" stroke="#FFFFFF" stroke-width="10" stroke-miterlimit="10" width="108.68" height="80.116"/>
	<g>
		<path fill="none" stroke="#FFFFFF" stroke-width="10" stroke-linejoin="round" stroke-miterlimit="10" d="M-1494.762,666.52
			c-4.418-2.09-7.475-6.587-7.475-11.8c0-7.205,5.841-13.047,13.047-13.047c7.205,0,13.046,5.842,13.046,13.047
			c0,5.298-3.157,9.857-7.692,11.901l-0.001-0.004c0,0,7.693,8.362,7.693,24.785h-13.046h-13.047
			c0-16.423,7.694-24.785,7.694-24.785L-1494.762,666.52z"/>
		
			<line fill="none" stroke="#FFFFFF" stroke-width="10" stroke-linejoin="round" stroke-miterlimit="10" x1="-1459.005" y1="657.768" x2="-1435.266" y2="657.768"/>
		
			<line fill="none" stroke="#FFFFFF" stroke-width="10" stroke-linejoin="round" stroke-miterlimit="10" x1="-1459.005" y1="670.661" x2="-1413.592" y2="670.661"/>
		
			<line fill="none" stroke="#FFFFFF" stroke-width="10" stroke-linejoin="round" stroke-miterlimit="10" x1="-1459.005" y1="683.554" x2="-1413.592" y2="683.554"/>
	</g>
</g>
<g>
	
		<line fill="none" stroke="#FFFFFF" stroke-width="10" stroke-miterlimit="10" x1="-2066.514" y1="735.961" x2="-1963.262" y2="735.961"/>
	
		<line fill="none" stroke="#FFFFFF" stroke-width="10" stroke-miterlimit="10" x1="-2066.514" y1="761.146" x2="-1963.263" y2="761.146"/>
	
		<line fill="none" stroke="#FFFFFF" stroke-width="10" stroke-miterlimit="10" x1="-2066.514" y1="786.329" x2="-1963.262" y2="786.329"/>
	
		<line fill="none" stroke="#FFFFFF" stroke-width="10" stroke-miterlimit="10" x1="-2066.514" y1="811.513" x2="-1963.262" y2="811.513"/>
	
		<line fill="none" stroke="#FFFFFF" stroke-width="10" stroke-miterlimit="10" x1="-2066.514" y1="836.696" x2="-1963.262" y2="836.696"/>
	
		<line fill="none" stroke="#FFFFFF" stroke-width="10" stroke-miterlimit="10" x1="-2066.514" y1="861.88" x2="-1979.462" y2="861.88"/>
	<polygon fill="none" stroke="#FFFFFF" stroke-width="10" stroke-miterlimit="10" points="-2083.974,706.597 -2083.974,891.245 
		-1979.462,891.245 -1945.803,857.584 -1945.803,706.597 	"/>
	<polyline fill="none" stroke="#FFFFFF" stroke-width="10" stroke-miterlimit="10" points="-1945.803,857.584 -1979.462,857.584 
		-1979.462,891.245 	"/>
</g>
<image overflow="visible" width="132" height="106" xlink:href="DCA85F26.jpg"  transform="matrix(1 0 0 1 -563.9434 284.1909)">
</image>
<rect x="-1404.988" y="-34.627" fill="#F36894" width="71.396" height="356.982"/>
<rect x="-1333.592" y="-34.627" fill="#FF8CB5" width="71.396" height="356.982"/>
<rect x="-1262.195" y="-34.627" fill="#F36894" width="71.396" height="356.982"/>
<rect x="-1190.799" y="-34.627" fill="#FF8CB5" width="71.396" height="356.982"/>
<rect x="-1119.402" y="-34.627" fill="#F36894" width="71.396" height="356.982"/>
<g>
	<path fill="none" stroke="#FFFFFF" stroke-width="10" stroke-miterlimit="10" d="M1926.509-162.169
		c0,12.248-9.932,22.18-22.182,22.18h-76.578c-12.248,0-22.18-9.932-22.18-22.18v-148.404c0-12.25,9.932-22.182,22.18-22.182h76.578
		c12.25,0,22.182,9.932,22.182,22.182V-162.169z"/>
	
		<rect x="1824.052" y="-308.197" fill="none" stroke="#FFFFFF" stroke-width="10" stroke-miterlimit="10" width="83.975" height="123.317"/>
	<circle fill="none" stroke="#FFFFFF" stroke-width="10" stroke-miterlimit="10" cx="1866.038" cy="-162.392" r="8.979"/>
	
		<line fill="none" stroke="#FFFFFF" stroke-width="10" stroke-miterlimit="10" x1="1857.06" y1="-320.739" x2="1875.017" y2="-320.739"/>
</g>
<g>
	<path fill="none" stroke="#FFFFFF" stroke-width="10" stroke-miterlimit="10" d="M-663.892,722.186
		c0,11.646-9.443,21.09-21.09,21.09h-103.881c-11.647,0-21.09-9.443-21.09-21.09V618.305c0-11.647,9.442-21.09,21.09-21.09h103.881
		c11.646,0,21.09,9.442,21.09,21.09V722.186z"/>
	
		<text transform="matrix(1 0 0 1 -794.4946 686.0928)" fill="#FFFFFF" font-family="'Roboto-Bold'" font-size="54.2308" letter-spacing="-2">ICON</text>
</g>
<image overflow="visible" width="1920" height="1080" xlink:href="DCA85F2A.jpg"  transform="matrix(1 0 0 1 -1035.8994 1219.1904)">
</image>
<line fill="none" stroke="#FFFFFF" stroke-width="10" stroke-miterlimit="10" x1="304.359" y1="-528" x2="556.797" y2="-275.563"/>
<g>
	<defs>
		<rect id="SVGID_5_" x="-447.609" y="-558.442" width="180.313" height="180.313"/>
	</defs>
	<clipPath id="SVGID_6_">
		<use xlink:href="#SVGID_5_"  overflow="visible"/>
	</clipPath>
	<g clip-path="url(#SVGID_6_)">
		
			<line fill="none" stroke="#FFFFFF" stroke-width="10" stroke-miterlimit="10" x1="-353.918" y1="-652.134" x2="-541.301" y2="-464.75"/>
		
			<line fill="none" stroke="#FFFFFF" stroke-width="10" stroke-miterlimit="10" x1="-317.855" y1="-616.071" x2="-505.238" y2="-428.688"/>
		
			<line fill="none" stroke="#FFFFFF" stroke-width="10" stroke-miterlimit="10" x1="-281.793" y1="-580.009" x2="-469.176" y2="-392.625"/>
		
			<line fill="none" stroke="#FFFFFF" stroke-width="10" stroke-miterlimit="10" x1="-245.73" y1="-543.946" x2="-433.113" y2="-356.563"/>
		
			<line fill="none" stroke="#FFFFFF" stroke-width="10" stroke-miterlimit="10" x1="-209.668" y1="-507.884" x2="-397.051" y2="-320.501"/>
		
			<line fill="none" stroke="#FFFFFF" stroke-width="10" stroke-miterlimit="10" x1="-173.605" y1="-471.822" x2="-360.988" y2="-284.438"/>
		
			<line fill="none" stroke="#FFFFFF" stroke-width="10" stroke-miterlimit="10" x1="-137.543" y1="-435.759" x2="-324.926" y2="-248.376"/>
		
			<line fill="none" stroke="#FFFFFF" stroke-width="10" stroke-miterlimit="10" x1="-101.48" y1="-399.697" x2="-288.863" y2="-212.313"/>
	</g>
</g>
<g>
	<defs>
		<rect id="SVGID_7_" x="-267.297" y="-558.442" width="180.313" height="180.313"/>
	</defs>
	<clipPath id="SVGID_8_">
		<use xlink:href="#SVGID_7_"  overflow="visible"/>
	</clipPath>
	<g clip-path="url(#SVGID_8_)">
		
			<line fill="none" stroke="#FFFFFF" stroke-width="10" stroke-miterlimit="10" x1="-173.605" y1="-652.134" x2="-360.988" y2="-464.75"/>
		
			<line fill="none" stroke="#FFFFFF" stroke-width="10" stroke-miterlimit="10" x1="-137.543" y1="-616.071" x2="-324.926" y2="-428.688"/>
		
			<line fill="none" stroke="#FFFFFF" stroke-width="10" stroke-miterlimit="10" x1="-101.48" y1="-580.009" x2="-288.863" y2="-392.625"/>
		
			<line fill="none" stroke="#FFFFFF" stroke-width="10" stroke-miterlimit="10" x1="-65.418" y1="-543.946" x2="-252.801" y2="-356.563"/>
		
			<line fill="none" stroke="#FFFFFF" stroke-width="10" stroke-miterlimit="10" x1="-29.355" y1="-507.884" x2="-216.738" y2="-320.501"/>
		
			<line fill="none" stroke="#FFFFFF" stroke-width="10" stroke-miterlimit="10" x1="6.707" y1="-471.822" x2="-180.676" y2="-284.438"/>
		
			<line fill="none" stroke="#FFFFFF" stroke-width="10" stroke-miterlimit="10" x1="42.77" y1="-435.759" x2="-144.613" y2="-248.376"/>
		
			<line fill="none" stroke="#FFFFFF" stroke-width="10" stroke-miterlimit="10" x1="78.832" y1="-399.697" x2="-108.551" y2="-212.313"/>
	</g>
</g>
<line fill="none" stroke="#FFFFFF" stroke-width="10" stroke-miterlimit="10" x1="-116.673" y1="-305.885" x2="116.673" y2="-72.54"/>
<g>
	<defs>
		<rect id="SVGID_9_" x="-611.595" y="-228.104" width="233.346" height="233.346"/>
	</defs>
	<clipPath id="SVGID_10_">
		<use xlink:href="#SVGID_9_"  overflow="visible"/>
	</clipPath>
	
		<line clip-path="url(#SVGID_10_)" fill="none" stroke="#FFFFFF" stroke-width="10" stroke-miterlimit="10" x1="-456.981" y1="-382.717" x2="-766.208" y2="-73.49"/>
	
		<line clip-path="url(#SVGID_10_)" fill="none" stroke="#FFFFFF" stroke-width="10" stroke-miterlimit="10" x1="-418.09" y1="-343.826" x2="-727.317" y2="-34.599"/>
	
		<line clip-path="url(#SVGID_10_)" fill="none" stroke="#FFFFFF" stroke-width="10" stroke-miterlimit="10" x1="-379.199" y1="-304.935" x2="-688.426" y2="4.292"/>
	
		<line clip-path="url(#SVGID_10_)" fill="none" stroke="#FFFFFF" stroke-width="10" stroke-miterlimit="10" x1="-340.309" y1="-266.044" x2="-649.535" y2="43.183"/>
	
		<line clip-path="url(#SVGID_10_)" fill="none" stroke="#FFFFFF" stroke-width="10" stroke-miterlimit="10" x1="-301.418" y1="-227.153" x2="-610.645" y2="82.074"/>
	
		<line clip-path="url(#SVGID_10_)" fill="none" stroke="#FFFFFF" stroke-width="10" stroke-miterlimit="10" x1="-262.527" y1="-188.262" x2="-571.754" y2="120.964"/>
	
		<line clip-path="url(#SVGID_10_)" fill="none" stroke="#FFFFFF" stroke-width="10" stroke-miterlimit="10" x1="-223.636" y1="-149.371" x2="-532.862" y2="159.855"/>
</g>
<rect y="0.001" opacity="0.4" fill="url(#New_Pattern_6)" width="2472.078" height="933.092"/>
<rect x="2421.242" y="1094.69" fill="#F9A715" width="2472.078" height="933.094"/>
<rect x="2421.242" y="1094.69" opacity="0.4" fill="url(#New_Pattern_6)" width="2472.078" height="933.093"/>
<rect x="1218.122" y="1379.719" opacity="0.2" width="2472.078" height="933.093"/>
<image overflow="visible" width="249" height="249" xlink:href="DCA85F2D.jpg"  transform="matrix(1 0 0 1 2027.0693 1094.6904)">
</image>
</svg>
