<?xml version="1.0" encoding="utf-8"?>
<!-- Generator: Adobe Illustrator 16.0.0, SVG Export Plug-In . SVG Version: 6.00 Build 0)  -->
<!DOCTYPE svg PUBLIC "-//W3C//DTD SVG 1.1//EN" "http://www.w3.org/Graphics/SVG/1.1/DTD/svg11.dtd">
<svg version="1.1" xmlns="http://www.w3.org/2000/svg" xmlns:xlink="http://www.w3.org/1999/xlink" x="0px" y="0px"
	 width="357.656px" height="309.739px" viewBox="0 0 357.656 309.739" enable-background="new 0 0 357.656 309.739"
	 xml:space="preserve">
<g id="Layer_1" display="none">
	<g display="inline">
		<path fill="#4E3F30" d="M1150.743-279.347c-0.912,2.997-1.693,6.61-2.344,10.84c-0.653,4.233-0.977,8.759-0.977,13.574
			c0,5.078,0.128,10.352,0.391,15.82c0.26,5.469,0.391,9.702,0.391,12.695c0,0.781-0.521,1.435-1.563,1.953
			c-1.044,0.522-2.246,0.849-3.613,0.977c-1.367,0.131-2.572,0-3.613-0.391c-1.044-0.391-1.693-0.977-1.953-1.758
			c-2.997-14.19-7.813-25.098-14.453-32.715s-17.318-11.426-32.031-11.426c-9.766,0-17.871,2.475-24.316,7.422
			c-6.445,4.95-9.668,11.591-9.668,19.922c0,6.903,2.667,12.207,8.008,15.918c5.338,3.711,12.433,7.196,21.289,10.449
			c3.775,1.303,8.233,2.963,13.379,4.98c5.143,2.021,9.342,3.681,12.598,4.98c6.9,3.256,13.346,6.61,19.336,10.059
			c5.987,3.452,11.197,7.52,15.625,12.208c4.425,4.688,7.91,9.961,10.449,15.82s3.809,12.631,3.809,20.313
			c0,10.156-2.148,18.621-6.445,25.391c-4.297,6.771-9.766,12.24-16.406,16.406c-6.641,4.168-14.228,7.162-22.754,8.984
			c-8.529,1.821-16.962,2.734-25.293,2.734c-6.903,0-14.618-0.781-23.145-2.344c-8.53-1.563-15.985-3.84-22.363-6.836
			c-1.563-0.52-3.223-0.227-4.98,0.879c-1.758,1.107-2.899,3.094-3.418,5.957c0,0.781-0.62,1.299-1.855,1.563
			c-1.239,0.26-2.441,0.391-3.613,0.391s-2.28-0.195-3.32-0.586c-1.044-0.391-1.563-0.977-1.563-1.758
			c0-2.082,0.259-5.012,0.781-8.789c0.519-3.775,0.781-7.227,0.781-10.352c0-3.254-0.131-7.486-0.391-12.695
			c-0.263-5.207-0.815-10.48-1.66-15.82c-0.849-5.338-1.27-8.658-1.27-9.961c0-1.041,0.552-1.822,1.66-2.344
			c1.104-0.52,2.31-0.846,3.613-0.977c1.3-0.129,2.569,0,3.809,0.391c1.236,0.391,1.983,1.107,2.246,2.148
			c1.822,7.813,4.199,14.648,7.129,20.508s6.607,10.775,11.035,14.746c4.425,3.973,9.766,6.967,16.016,8.984
			c6.25,2.02,13.8,3.027,22.656,3.027c9.503,0,17.285-2.668,23.34-8.008c6.055-5.338,9.082-12.824,9.082-22.461
			c0-8.463-3.027-15.168-9.082-20.117c-6.055-4.947-13.056-9.309-20.996-13.086c-3.778-1.563-7.587-3.156-11.426-4.785
			c-3.842-1.627-7.782-3.223-11.816-4.785c-5.859-2.344-11.655-4.785-17.383-7.324c-5.731-2.54-10.81-5.695-15.234-9.473
			c-4.428-3.775-7.978-8.462-10.645-14.063c-2.67-5.597-4.004-12.5-4.004-20.703c0-9.634,2.081-17.773,6.25-24.414
			c4.166-6.641,9.503-12.042,16.016-16.211c6.509-4.166,13.77-7.159,21.777-8.984c8.008-1.822,15.918-2.734,23.73-2.734
			c6.641,0,13.019,0.849,19.141,2.539c6.119,1.694,12.628,4.819,19.531,9.375c1.041,0.522,2.441,0.458,4.199-0.195
			c1.758-0.65,3.155-2.862,4.199-6.641c0.26-1.041,1.074-1.69,2.441-1.953c1.367-0.259,2.701-0.323,4.004-0.195
			c1.3,0.131,2.506,0.458,3.613,0.977C1150.578-280.778,1151.003-280.128,1150.743-279.347z"/>
	</g>
</g>
<g id="Layer_2" display="none">
	
		<circle display="inline" fill="none" stroke="#4E3F30" stroke-width="9" stroke-miterlimit="10" cx="1091.661" cy="-191.26" r="190.679"/>
	
		<circle display="inline" fill="none" stroke="#4E3F30" stroke-width="5" stroke-miterlimit="10" cx="1091.661" cy="-191.26" r="172.6"/>
	<g display="inline">
		<path fill="none" stroke="#FFFFFF" stroke-width="3" stroke-miterlimit="10" d="M1571.161-345.443
			c0,57-40.966,118.333-91.5,118.333s-87.535-40.152-87.535-81.9c0-75.525,87.535-191.6,87.535-191.6
			S1571.161-420.968,1571.161-345.443z"/>
		
			<line fill="none" stroke="#FFFFFF" stroke-width="3" stroke-miterlimit="10" x1="1479.661" y1="-500.61" x2="1479.661" y2="-227.11"/>
		
			<line fill="none" stroke="#FFFFFF" stroke-width="3" stroke-miterlimit="10" x1="1479.661" y1="-412.436" x2="1451.48" y2="-443.617"/>
		
			<line fill="none" stroke="#FFFFFF" stroke-width="3" stroke-miterlimit="10" x1="1479.661" y1="-383.655" x2="1440.636" y2="-425.681"/>
		
			<line fill="none" stroke="#FFFFFF" stroke-width="3" stroke-miterlimit="10" x1="1479.661" y1="-342.309" x2="1421.555" y2="-406.329"/>
		
			<line fill="none" stroke="#FFFFFF" stroke-width="3" stroke-miterlimit="10" x1="1479.661" y1="-311.192" x2="1432.845" y2="-363.86"/>
		
			<line fill="none" stroke="#FFFFFF" stroke-width="3" stroke-miterlimit="10" x1="1479.661" y1="-263.574" x2="1421.796" y2="-324.439"/>
		
			<line fill="none" stroke="#FFFFFF" stroke-width="3" stroke-miterlimit="10" x1="1479.661" y1="-235.217" x2="1433.167" y2="-284.713"/>
		
			<line fill="none" stroke="#FFFFFF" stroke-width="3" stroke-miterlimit="10" x1="1479.661" y1="-412.436" x2="1520.983" y2="-456.758"/>
		
			<line fill="none" stroke="#FFFFFF" stroke-width="3" stroke-miterlimit="10" x1="1479.661" y1="-383.655" x2="1504.659" y2="-410.402"/>
		
			<line fill="none" stroke="#FFFFFF" stroke-width="3" stroke-miterlimit="10" x1="1479.661" y1="-342.309" x2="1520.461" y2="-387.26"/>
		
			<line fill="none" stroke="#FFFFFF" stroke-width="3" stroke-miterlimit="10" x1="1479.661" y1="-311.192" x2="1526.478" y2="-363.86"/>
		
			<line fill="none" stroke="#FFFFFF" stroke-width="3" stroke-miterlimit="10" x1="1479.661" y1="-263.574" x2="1570.346" y2="-357.259"/>
		
			<line fill="none" stroke="#FFFFFF" stroke-width="3" stroke-miterlimit="10" x1="1479.661" y1="-235.217" x2="1540.44" y2="-298.998"/>
	</g>
</g>
<g id="Layer_3">
	<rect x="-370.477" y="248.464" fill="#232323" width="176.007" height="176.007"/>
	<g>
		<path fill="#4E3F30" d="M1196.442-267.808h-20.965v-19.644v-1.3c0,0-20.315,14.768-48.27,14.768s-45.507,12.677-45.507,12.677
			s-17.552-12.677-45.506-12.677s-47.619-13.467-47.619-13.467v68.26c0,36.981,29.979,66.96,66.959,66.96h52.982
			c24.861,0,46.558-13.549,58.108-33.665h29.816c12.926,0,23.403-10.479,23.403-23.403v-35.105
			C1219.846-257.33,1209.368-267.808,1196.442-267.808z M1206.845-209.3c0,5.735-4.667,10.401-10.402,10.401h-24.099
			c0.923-2.712,3.003-10.503,3.003-16.142c0-5.64,0.131-39.767,0.131-39.767h20.965c5.735,0,10.402,4.666,10.402,10.401V-209.3z"/>
		<g>
			<path fill="#4E3F30" d="M1081.841-267.09l-2.295-1.928c-0.272-0.224-17.598-14.298-46.287-14.298
				c-31.565,0-57.2-22.524-58.276-23.483l-0.998-0.89l-10.508-82.352l7.444,7.589c0.21,0.212,21.877,21.682,60.073,21.682
				c30.666,0,45.102,11.629,50.847,18.274c5.745-6.645,20.182-18.274,50.847-18.274c38.36,0,59.86-21.465,60.072-21.682l7.445-7.589
				l-10.508,82.352l-0.998,0.89c-1.076,0.959-26.711,23.483-58.275,23.483c-28.93,0-46.113,14.152-46.283,14.295L1081.841-267.09z
				 M980.732-311.306c4.868,3.979,27.004,20.838,52.526,20.838c25.575,0,42.646,10.094,48.582,14.243
				c5.936-4.149,23.008-14.243,48.583-14.243c25.52,0,47.654-16.856,52.525-20.838l7.677-60.165
				c-9.854,7.067-29.546,17.851-57.938,17.851c-37.299,0-47.264,18.098-47.67,18.869l-3.226,6.121l-3.141-6.146
				c-0.393-0.746-10.357-18.844-47.657-18.844c-28.393,0-48.084-10.784-57.939-17.851L980.732-311.306z"/>
			<path fill="#4E3F30" d="M1080.217-271.708c-0.002-0.044-0.141-4.526-0.141-13.978c0-4.347-2.708-13.953-10.169-22.598
				c-6.278-7.274-17.9-15.945-37.612-15.945c-15.915,0-32.289-9.555-47.352-27.633c-11.266-13.521-17.766-26.819-18.037-27.378
				l2.925-1.418c0.258,0.532,26.22,53.179,62.464,53.179c38.469,0,51.032,31.082,51.032,41.793c0,9.391,0.137,13.831,0.138,13.875
				L1080.217-271.708z"/>
			<path fill="#4E3F30" d="M1083.187-271.708l-3.249-0.103c0.002-0.043,0.139-4.484,0.139-13.875
				c0-10.712,12.563-41.793,51.032-41.793c36.268,0,62.206-52.647,62.464-53.179l2.925,1.418
				c-0.271,0.56-6.771,13.858-18.037,27.379c-15.063,18.077-31.437,27.632-47.352,27.632c-19.712,0-31.334,8.671-37.612,15.945
				c-7.461,8.645-10.169,18.25-10.169,22.598C1083.327-276.234,1083.188-271.752,1083.187-271.708z"/>
			<path fill="#FFFFFF" stroke="#4E3F30" stroke-width="11" stroke-miterlimit="10" d="M1081.841-336.393"/>
			<rect x="1078.266" y="-336.393" fill="#4E3F30" width="7.151" height="64.633"/>
		</g>
	</g>
	<path fill="#4E3F30" d="M559.161-319.761h-32.25v-30.216v-2c0,0-31.25,22.716-74.25,22.716s-70,19.5-70,19.5s-27-19.5-70-19.5
		s-73.25-20.716-73.25-20.716v105.001c0,56.886,46.115,103,103,103h81.5c38.242,0,71.616-20.842,89.384-51.785h45.866
		c19.882,0,36-16.118,36-36v-54C595.161-303.643,579.043-319.761,559.161-319.761z M575.161-229.761c0,8.822-7.178,16-16,16h-37.07
		c1.419-4.171,4.619-16.155,4.619-24.83s0.201-61.17,0.201-61.17h32.25c8.822,0,16,7.178,16,16V-229.761z"/>
	<g>
		<path fill="none" stroke="#4E3F30" stroke-width="11" stroke-miterlimit="10" d="M461.09-457.261c-62,0-78.214,32-78.214,32
			s-16.214-32-78.214-32s-96.333-35-96.333-35l13.833,108.415c0,0,38.965,34.729,85.982,34.729s74.732,23.277,74.732,23.277
			s27.714-23.277,74.732-23.277s85.982-34.729,85.982-34.729l13.833-108.415C557.423-492.261,523.09-457.261,461.09-457.261z"/>
		<path fill="none" stroke="#4E3F30" stroke-width="5" stroke-miterlimit="10" d="M208.328-492.261c0,0,40.333,83.211,98.333,83.211
			s76,47.122,76,61.789s0.214,21.421,0.214,21.421"/>
		<path fill="none" stroke="#4E3F30" stroke-width="5" stroke-miterlimit="10" d="M382.447-325.839c0,0,0.214-6.754,0.214-21.421
			s18-61.789,76-61.789s98.334-83.211,98.334-83.211"/>
		<path fill="#FFFFFF" stroke="#4E3F30" stroke-width="11" stroke-miterlimit="10" d="M382.875-425.261"/>
		
			<line fill="none" stroke="#4E3F30" stroke-width="11" stroke-miterlimit="10" x1="382.875" y1="-425.261" x2="382.875" y2="-325.839"/>
	</g>
	<rect x="958.661" y="-136.478" fill="none" width="266" height="81"/>
	<text transform="matrix(1.5 0 0 1 958.6611 -75.2783)"><tspan x="0" y="0" fill="#4E3F30" font-family="'MORVA'" font-size="72">SILVE</tspan><tspan x="145.222" y="0" fill="#4E3F30" font-family="'MORVA'" font-size="72" letter-spacing="-5.333">R</tspan></text>
	<g>
		<path fill="none" stroke="#4E3F30" stroke-miterlimit="10" d="M1868.075-92.231c0,22.667-17.535,60-39.167,60
			s-39.167-20.334-39.167-41s39.167-79,39.167-79S1868.075-114.898,1868.075-92.231z"/>
		<path fill="none" stroke="#4E3F30" stroke-miterlimit="10" d="M1828.908-152.231c0,0,10.501,40.334,8.167,70.334
			s-8.167,50.333-8.167,50.333"/>
		<path fill="none" stroke="#4E3F30" stroke-miterlimit="10" d="M1837.128-100.567c0,0-20.731-11.205-23.226-27.768"/>
		<path fill="none" stroke="#4E3F30" stroke-miterlimit="10" d="M1826.926-107.828c0,0-21.223,7.026-23.37-2.188"/>
		<path fill="none" stroke="#4E3F30" stroke-miterlimit="10" d="M1837.128-82.71c0,0-33.923,1.66-34.821-24.931"/>
		<path fill="none" stroke="#4E3F30" stroke-miterlimit="10" d="M1835.991-70.574c0,0-16.563,2.265-24.999-19.089"/>
		<path fill="none" stroke="#4E3F30" stroke-miterlimit="10" d="M1833.161-51.047c0,0-25.915,11.271-37.834-1.957"/>
		<path fill="none" stroke="#4E3F30" stroke-miterlimit="10" d="M1824.946-48.337c0,0-24.997-9.708-33.481-34.353"/>
		<path fill="none" stroke="#4E3F30" stroke-miterlimit="10" d="M1831.741-70.396c0,0-16.206,12.775-29.435,5.84"/>
		<path fill="none" stroke="#4E3F30" stroke-miterlimit="10" d="M1835.657-116.221c0,0,12.383-0.885,14.733-12.114"/>
		<path fill="none" stroke="#4E3F30" stroke-miterlimit="10" d="M1839.741-117.107c0,0,6.447,19.204,26.891,16.54"/>
		<path fill="none" stroke="#4E3F30" stroke-miterlimit="10" d="M1864.798-72.65c0,0-22.706-3.639-26.67-17.013
			c0,0,8.614,6.23,29.947-5.502"/>
		<path fill="none" stroke="#4E3F30" stroke-miterlimit="10" d="M1834.926-65.513c0,0,10.631,0.123,20.853-9.544"/>
		<path fill="none" stroke="#4E3F30" stroke-miterlimit="10" d="M1834.926-62.167c0,0,8.011,11.207,25.413,1.238"/>
		<path fill="none" stroke="#4E3F30" stroke-miterlimit="10" d="M1839.741-58.397c0,0,0.781,17.016,7.891,16.758"/>
		<path fill="none" stroke="#4E3F30" stroke-miterlimit="10" d="M1832.329-46.571c0,0,9.32,4.843,11.357,2.806"/>
	</g>
	<g>
		<path fill="none" stroke="#4E3F30" stroke-width="2" stroke-miterlimit="10" d="M1766.459-32.872c0,22.667-17.535,60-39.167,60
			s-39.167-20.334-39.167-41s39.167-79,39.167-79S1766.459-55.539,1766.459-32.872z"/>
		<path fill="none" stroke="#4E3F30" stroke-miterlimit="10" d="M1727.292-92.872c0,0,10.501,40.334,8.167,70.334
			s-8.167,50.333-8.167,50.333"/>
		<path fill="none" stroke="#4E3F30" stroke-miterlimit="10" d="M1735.512-41.208c0,0-20.731-11.205-23.226-27.768"/>
		<path fill="none" stroke="#4E3F30" stroke-miterlimit="10" d="M1725.31-48.469c0,0-21.223,7.026-23.37-2.188"/>
		<path fill="none" stroke="#4E3F30" stroke-miterlimit="10" d="M1735.512-23.351c0,0-33.923,1.66-34.821-24.931"/>
		<path fill="none" stroke="#4E3F30" stroke-miterlimit="10" d="M1734.375-11.215c0,0-16.563,2.265-24.999-19.089"/>
		<path fill="none" stroke="#4E3F30" stroke-miterlimit="10" d="M1731.545,8.313c0,0-25.915,11.271-37.834-1.957"/>
		<path fill="none" stroke="#4E3F30" stroke-miterlimit="10" d="M1723.33,11.022c0,0-24.997-9.708-33.481-34.353"/>
		<path fill="none" stroke="#4E3F30" stroke-miterlimit="10" d="M1730.125-11.036c0,0-16.206,12.775-29.435,5.84"/>
		<path fill="none" stroke="#4E3F30" stroke-miterlimit="10" d="M1734.041-56.861c0,0,12.383-0.885,14.733-12.114"/>
		<path fill="none" stroke="#4E3F30" stroke-miterlimit="10" d="M1738.125-57.748c0,0,6.447,19.204,26.891,16.54"/>
		<path fill="none" stroke="#4E3F30" stroke-miterlimit="10" d="M1763.182-13.291c0,0-22.706-3.639-26.67-17.013
			c0,0,8.614,6.23,29.947-5.502"/>
		<path fill="none" stroke="#4E3F30" stroke-miterlimit="10" d="M1733.31-6.153c0,0,10.631,0.123,20.853-9.544"/>
		<path fill="none" stroke="#4E3F30" stroke-miterlimit="10" d="M1733.31-2.808c0,0,8.011,11.207,25.413,1.238"/>
		<path fill="none" stroke="#4E3F30" stroke-miterlimit="10" d="M1738.125,0.962c0,0,0.781,17.016,7.891,16.758"/>
		<path fill="none" stroke="#4E3F30" stroke-miterlimit="10" d="M1730.713,12.788c0,0,9.32,4.843,11.357,2.806"/>
	</g>
	<g>
		<g>
			<path fill="#4E3F30" d="M1528.939-75.205c0.488-0.957,1.275-1.961,2.004-2.555c1.438-1.174,5.199-1.236,5.358-1.238l0.085-0.001
				l-0.036,0.083c-0.088,0.199-2.175,4.895-3.48,5.959c-1.409,1.149-3.374,1.263-4.206,0.242
				C1528.27-73.198,1528.367-74.083,1528.939-75.205z M1531.021-77.665c-1.433,1.169-3.036,3.862-2.23,4.848
				c0.776,0.952,2.683,0.84,4.001-0.235c1.176-0.957,3.095-5.157,3.386-5.803C1535.602-78.839,1532.29-78.698,1531.021-77.665z"/>
			<path fill="#4E3F30" d="M1528.658-72.747l0.054,0.031c0.011-0.014,1.072-1.338,2.848-2.967c1.771-1.629,4.705-3.199,4.734-3.215
				l-0.021-0.059c-0.029,0.015-2.976,1.593-4.758,3.229C1529.734-74.092,1528.669-72.761,1528.658-72.747z"/>
			<path fill="#4E3F30" d="M1532.692-76.633c0.015,0.005,1.541,0.409,2.684-0.325l-0.029-0.056
				c-1.109,0.714-2.602,0.317-2.617,0.314L1532.692-76.633z"/>
			<path fill="#4E3F30" d="M1533.927-75.714c0.098,0.119,0.213,0.215,0.344,0.247c0.114,0.029,0.233,0.011,0.351-0.056l-0.022-0.058
				c-0.1,0.056-0.195,0.07-0.292,0.045c-0.444-0.112-0.704-1.025-0.707-1.035l-0.071,0.034
				C1533.535-76.508,1533.674-76.025,1533.927-75.714z"/>
			<path fill="#4E3F30" d="M1531.595-75.674c0.153,0.189,0.745,0.839,1.595,0.843c0.445,0.001,0.896-0.172,1.339-0.515l-0.037-0.05
				c-0.426,0.33-0.856,0.495-1.282,0.494c-0.96-0.004-1.585-0.863-1.591-0.872l-0.064,0.048
				C1531.555-75.724,1531.568-75.705,1531.595-75.674z"/>
			<path fill="#4E3F30" d="M1530.88-74.983c0.162,0.197,0.76,0.738,2.166,0.154l-0.014-0.063c-1.624,0.675-2.127-0.193-2.132-0.201
				l-0.067,0.044C1530.833-75.049,1530.849-75.022,1530.88-74.983z"/>
			<path fill="#4E3F30" d="M1530.241-72.683c0.246,0.302,0.597,0.527,1.092,0.485l0.014-0.07c-1.255,0.108-1.561-1.663-1.563-1.681
				l-0.073,0.027C1529.718-73.874,1529.839-73.177,1530.241-72.683z"/>
			<path fill="#4E3F30" d="M1529.873-73.371c0.016,0.007,1.618,0.688,3.494-0.17l-0.016-0.062c-1.843,0.842-3.418,0.173-3.435,0.166
				L1529.873-73.371z"/>
			<path fill="#4E3F30" d="M1531.301-73.438c0.116,0.142,0.27,0.255,0.477,0.315l0.038-0.068c-0.92-0.266-0.76-1.66-0.759-1.675
				l-0.073,0.012C1530.981-74.844,1530.88-73.954,1531.301-73.438z"/>
			<path fill="#4E3F30" d="M1533.721-77.376l0.065-0.047c-0.005-0.007-0.405-0.626,0.184-1.283l-0.052-0.037
				C1533.29-78.039,1533.716-77.383,1533.721-77.376z"/>
			<path fill="#4E3F30" d="M1531.663-77.854c0.686,0.841,1.981,0.252,1.996,0.245l-0.017-0.062
				c-0.015,0.007-1.438,0.652-2.045-0.424l-0.068,0.045C1531.571-77.978,1531.616-77.912,1531.663-77.854z"/>
			<path fill="#4E3F30" d="M1529.849-76.522c0.046,0.037,1.139,0.902,2.146,0.398l0.105-0.052l-0.101-0.014
				c-0.006,0-0.706-0.112-0.794-1.686l-0.074,0.022c0.073,1.309,0.555,1.631,0.755,1.71c-0.939,0.386-1.97-0.429-1.98-0.438
				L1529.849-76.522z"/>
			<path fill="#4E3F30" d="M1530.556-74.737c0,0,0.001,0.001,0.002,0.002l0.063-0.052l0,0c-0.012-0.015-0.407-0.513-0.204-1.46
				l-0.073,0.004C1530.136-75.279,1530.521-74.78,1530.556-74.737z"/>
			<path fill="#4E3F30" d="M1529.543-74.863c0.324,0.397,0.825,0.31,0.832,0.308l0.006-0.067c-0.04,0.007-0.984,0.168-1.031-1.124
				l-0.074,0.021C1529.29-75.311,1529.399-75.039,1529.543-74.863z"/>
			<path fill="#4E3F30" d="M1528.566-74.107c0.285,0.351,1.359-0.458,1.405-0.492l-0.035-0.051
				c-0.012,0.007-1.059,0.797-1.307,0.491c-0.003-0.002-0.004-0.005-0.006-0.007l-0.063,0.05
				C1528.563-74.113,1528.564-74.11,1528.566-74.107z"/>
			<path fill="#4E3F30" d="M1528.882-73.932c0.126,0.155,0.505,0.273,0.596,0.301l0.038-0.067c-0.249-0.073-0.633-0.236-0.601-0.365
				l-0.072,0.003C1528.833-74.017,1528.849-73.972,1528.882-73.932z"/>
		</g>
		<g>
			<path fill="#4E3F30" d="M1534.906-73.973c0.198-1.302,1.947-2.203,3.745-1.93c1.666,0.253,5.85,3.234,6.027,3.362l0.072,0.052
				l-0.073,0.042c-0.138,0.08-3.408,1.938-5.243,1.658c-0.931-0.141-2.118-0.604-3.025-1.181
				C1535.347-72.645,1534.813-73.356,1534.906-73.973z M1544.499-72.506c-0.579-0.407-4.367-3.048-5.866-3.275
				c-1.682-0.256-3.381,0.618-3.565,1.832c-0.191,1.259,2.558,2.762,4.387,3.04C1541.071-70.663,1543.995-72.227,1544.499-72.506z"
				/>
			<path fill="#4E3F30" d="M1534.917-73.941l0.032-0.055c0.016,0.006,1.604,0.606,3.959,1.107c2.354,0.501,5.679,0.362,5.712,0.36
				l0.011,0.063c-0.032,0.002-3.371,0.141-5.737-0.362C1536.528-73.332,1534.934-73.937,1534.917-73.941z"/>
			<path fill="#4E3F30" d="M1540.367-72.647c0.01-0.012,1.119-1.135,2.477-1.084l0.003,0.063c-1.318-0.05-2.402,1.05-2.414,1.061
				L1540.367-72.647z"/>
			<path fill="#4E3F30" d="M1540.963-74.065c0.023-0.153,0.074-0.293,0.17-0.389c0.084-0.083,0.195-0.127,0.331-0.13l0.01,0.062
				c-0.114,0.003-0.204,0.038-0.275,0.109c-0.325,0.322-0.084,1.241-0.081,1.251l-0.079,0.007
				C1541.029-73.184,1540.902-73.669,1540.963-74.065z"/>
			<path fill="#4E3F30" d="M1538.935-72.915c0.036-0.24,0.215-1.101,0.944-1.536c0.384-0.228,0.859-0.308,1.415-0.237l-0.007,0.062
				c-0.534-0.068-0.989,0.009-1.355,0.226c-0.824,0.492-0.925,1.551-0.926,1.561l-0.081-0.009
				C1538.926-72.851,1538.928-72.875,1538.935-72.915z"/>
			<path fill="#4E3F30" d="M1537.968-73.146c0.038-0.253,0.28-1.022,1.787-1.234l0.021,0.062c-1.742,0.244-1.733,1.248-1.733,1.258
				l-0.081-0.004C1537.961-73.065,1537.961-73.096,1537.968-73.146z"/>
			<path fill="#4E3F30" d="M1536.248-74.804c0.059-0.384,0.246-0.757,0.693-0.973l0.048,0.054c-1.136,0.546-0.498,2.227-0.491,2.243
				l-0.078,0.013C1536.403-73.511,1536.152-74.172,1536.248-74.804z"/>
			<path fill="#4E3F30" d="M1536.281-74.022c0.01-0.014,1.043-1.415,3.096-1.63l0.018,0.062c-2.016,0.211-3.032,1.588-3.042,1.603
				L1536.281-74.022z"/>
			<path fill="#4E3F30" d="M1537.545-74.69c0.027-0.181,0.104-0.356,0.25-0.514l0.067,0.039c-0.657,0.696,0.189,1.816,0.198,1.828
				l-0.069,0.027C1537.985-73.317,1537.444-74.032,1537.545-74.69z"/>
			<path fill="#4E3F30" d="M1541.63-72.53l0.081,0.008c0,0.008-0.031,0.745,0.81,1.011l-0.025,0.059
				C1541.597-71.739,1541.63-72.521,1541.63-72.53z"/>
			<path fill="#4E3F30" d="M1540.103-71.072c0.162-1.072,1.578-1.225,1.594-1.225l0.017,0.061c-0.016,0.002-1.569,0.169-1.545,1.404
				l-0.081-0.003C1540.085-70.919,1540.091-70.998,1540.103-71.072z"/>
			<path fill="#4E3F30" d="M1537.863-71.297c0.021-0.055,0.521-1.355,1.645-1.434l0.117-0.009l-0.08,0.063
				c-0.006,0.003-0.552,0.455,0.173,1.854l-0.075,0.019c-0.603-1.163-0.352-1.688-0.219-1.856c-1.006,0.146-1.479,1.371-1.482,1.384
				L1537.863-71.297z"/>
			<path fill="#4E3F30" d="M1537.564-73.192c0-0.001,0-0.002,0-0.003l0.08,0.013l0,0c-0.002,0.019-0.09,0.648,0.566,1.361
				l-0.065,0.033C1537.478-72.513,1537.556-73.139,1537.564-73.192z"/>
			<path fill="#4E3F30" d="M1536.755-72.569c0.078-0.507,0.555-0.687,0.561-0.688l0.04,0.056c-0.038,0.014-0.935,0.355-0.317,1.492
				l-0.073,0.021C1536.765-72.057,1536.721-72.345,1536.755-72.569z"/>
			<path fill="#4E3F30" d="M1535.53-72.725c0.067-0.446,1.404-0.296,1.461-0.29l-0.005,0.062c-0.014,0-1.316-0.147-1.376,0.241
				c0,0.003,0,0.006,0,0.009l-0.081-0.01C1535.53-72.718,1535.53-72.72,1535.53-72.725z"/>
			<path fill="#4E3F30" d="M1535.713-73.036c0.029-0.197,0.296-0.492,0.36-0.562l0.067,0.038c-0.178,0.189-0.425,0.525-0.332,0.62
				l-0.063,0.034C1535.713-72.938,1535.704-72.983,1535.713-73.036z"/>
		</g>
		<g>
			<path fill="#4E3F30" d="M1559.965-75.205c0.488-0.957,1.275-1.961,2.004-2.555c1.438-1.174,5.199-1.236,5.358-1.238l0.085-0.001
				l-0.036,0.083c-0.088,0.199-2.175,4.895-3.48,5.959c-1.409,1.149-3.374,1.263-4.206,0.242
				C1559.295-73.198,1559.393-74.083,1559.965-75.205z M1562.047-77.665c-1.433,1.169-3.036,3.862-2.23,4.848
				c0.776,0.952,2.683,0.84,4.001-0.235c1.176-0.957,3.095-5.157,3.386-5.803C1566.627-78.839,1563.315-78.698,1562.047-77.665z"/>
			<path fill="#4E3F30" d="M1559.684-72.747l0.054,0.031c0.011-0.014,1.072-1.338,2.848-2.967c1.771-1.629,4.705-3.199,4.734-3.215
				l-0.021-0.059c-0.029,0.015-2.976,1.593-4.758,3.229C1560.76-74.092,1559.694-72.761,1559.684-72.747z"/>
			<path fill="#4E3F30" d="M1563.718-76.633c0.015,0.005,1.541,0.409,2.684-0.325l-0.029-0.056
				c-1.109,0.714-2.602,0.317-2.617,0.314L1563.718-76.633z"/>
			<path fill="#4E3F30" d="M1564.952-75.714c0.098,0.119,0.213,0.215,0.344,0.247c0.114,0.029,0.233,0.011,0.351-0.056l-0.022-0.058
				c-0.1,0.056-0.195,0.07-0.292,0.045c-0.444-0.112-0.704-1.025-0.707-1.035l-0.071,0.034
				C1564.561-76.508,1564.699-76.025,1564.952-75.714z"/>
			<path fill="#4E3F30" d="M1562.62-75.674c0.153,0.189,0.745,0.839,1.595,0.843c0.445,0.001,0.896-0.172,1.339-0.515l-0.037-0.05
				c-0.426,0.33-0.856,0.495-1.282,0.494c-0.96-0.004-1.585-0.863-1.591-0.872l-0.064,0.048
				C1562.58-75.724,1562.594-75.705,1562.62-75.674z"/>
			<path fill="#4E3F30" d="M1561.905-74.983c0.162,0.197,0.76,0.738,2.166,0.154l-0.014-0.063c-1.624,0.675-2.127-0.193-2.132-0.201
				l-0.067,0.044C1561.858-75.049,1561.874-75.022,1561.905-74.983z"/>
			<path fill="#4E3F30" d="M1561.267-72.683c0.246,0.302,0.597,0.527,1.092,0.485l0.014-0.07c-1.255,0.108-1.561-1.663-1.563-1.681
				l-0.073,0.027C1560.743-73.874,1560.864-73.177,1561.267-72.683z"/>
			<path fill="#4E3F30" d="M1560.898-73.371c0.016,0.007,1.618,0.688,3.494-0.17l-0.016-0.062c-1.843,0.842-3.418,0.173-3.435,0.166
				L1560.898-73.371z"/>
			<path fill="#4E3F30" d="M1562.326-73.438c0.116,0.142,0.27,0.255,0.477,0.315l0.038-0.068c-0.92-0.266-0.76-1.66-0.759-1.675
				l-0.073,0.012C1562.007-74.844,1561.905-73.954,1562.326-73.438z"/>
			<path fill="#4E3F30" d="M1564.746-77.376l0.065-0.047c-0.005-0.007-0.405-0.626,0.184-1.283l-0.052-0.037
				C1564.315-78.039,1564.741-77.383,1564.746-77.376z"/>
			<path fill="#4E3F30" d="M1562.688-77.854c0.686,0.841,1.981,0.252,1.996,0.245l-0.017-0.062
				c-0.015,0.007-1.438,0.652-2.045-0.424l-0.068,0.045C1562.597-77.978,1562.642-77.912,1562.688-77.854z"/>
			<path fill="#4E3F30" d="M1560.874-76.522c0.046,0.037,1.139,0.902,2.146,0.398l0.105-0.052l-0.101-0.014
				c-0.006,0-0.706-0.112-0.794-1.686l-0.074,0.022c0.073,1.309,0.555,1.631,0.755,1.71c-0.939,0.386-1.97-0.429-1.98-0.438
				L1560.874-76.522z"/>
			<path fill="#4E3F30" d="M1561.581-74.737c0.001,0,0.001,0.001,0.002,0.002l0.063-0.052l0,0c-0.012-0.015-0.407-0.513-0.204-1.46
				l-0.073,0.004C1561.161-75.279,1561.547-74.78,1561.581-74.737z"/>
			<path fill="#4E3F30" d="M1560.568-74.863c0.324,0.397,0.825,0.31,0.832,0.308l0.006-0.067c-0.04,0.007-0.984,0.168-1.031-1.124
				l-0.074,0.021C1560.315-75.311,1560.425-75.039,1560.568-74.863z"/>
			<path fill="#4E3F30" d="M1559.592-74.107c0.285,0.351,1.359-0.458,1.405-0.492l-0.035-0.051
				c-0.012,0.007-1.059,0.797-1.307,0.491c-0.003-0.002-0.004-0.005-0.006-0.007l-0.063,0.05
				C1559.588-74.113,1559.59-74.11,1559.592-74.107z"/>
			<path fill="#4E3F30" d="M1559.907-73.932c0.126,0.155,0.505,0.273,0.596,0.301l0.038-0.067c-0.249-0.073-0.633-0.236-0.601-0.365
				l-0.072,0.003C1559.858-74.017,1559.874-73.972,1559.907-73.932z"/>
		</g>
		<g>
			<path fill="#4E3F30" d="M1565.932-73.973c0.198-1.302,1.947-2.203,3.745-1.93c1.666,0.253,5.85,3.234,6.027,3.362l0.072,0.052
				l-0.073,0.042c-0.138,0.08-3.408,1.938-5.243,1.658c-0.931-0.141-2.118-0.604-3.025-1.181
				C1566.372-72.645,1565.838-73.356,1565.932-73.973z M1575.524-72.506c-0.579-0.407-4.367-3.048-5.866-3.275
				c-1.682-0.256-3.381,0.618-3.565,1.832c-0.191,1.259,2.558,2.762,4.387,3.04C1572.097-70.663,1575.021-72.227,1575.524-72.506z"
				/>
			<path fill="#4E3F30" d="M1565.942-73.941l0.032-0.055c0.016,0.006,1.604,0.606,3.959,1.107c2.354,0.501,5.679,0.362,5.712,0.36
				l0.011,0.063c-0.032,0.002-3.371,0.141-5.737-0.362C1567.554-73.332,1565.959-73.937,1565.942-73.941z"/>
			<path fill="#4E3F30" d="M1571.393-72.647c0.01-0.012,1.119-1.135,2.477-1.084l0.003,0.063c-1.318-0.05-2.402,1.05-2.414,1.061
				L1571.393-72.647z"/>
			<path fill="#4E3F30" d="M1571.988-74.065c0.023-0.153,0.074-0.293,0.17-0.389c0.084-0.083,0.195-0.127,0.331-0.13l0.01,0.062
				c-0.114,0.003-0.204,0.038-0.275,0.109c-0.325,0.322-0.084,1.241-0.081,1.251l-0.079,0.007
				C1572.055-73.184,1571.928-73.669,1571.988-74.065z"/>
			<path fill="#4E3F30" d="M1569.96-72.915c0.036-0.24,0.215-1.101,0.944-1.536c0.384-0.228,0.859-0.308,1.415-0.237l-0.007,0.062
				c-0.534-0.068-0.989,0.009-1.355,0.226c-0.824,0.492-0.925,1.551-0.926,1.561l-0.081-0.009
				C1569.951-72.851,1569.953-72.875,1569.96-72.915z"/>
			<path fill="#4E3F30" d="M1568.993-73.146c0.038-0.253,0.28-1.022,1.787-1.234l0.021,0.062c-1.742,0.244-1.733,1.248-1.733,1.258
				l-0.081-0.004C1568.986-73.065,1568.986-73.096,1568.993-73.146z"/>
			<path fill="#4E3F30" d="M1567.273-74.804c0.059-0.384,0.246-0.757,0.693-0.973l0.048,0.054c-1.136,0.546-0.498,2.227-0.491,2.243
				l-0.078,0.013C1567.429-73.511,1567.178-74.172,1567.273-74.804z"/>
			<path fill="#4E3F30" d="M1567.307-74.022c0.01-0.014,1.043-1.415,3.096-1.63l0.018,0.062c-2.016,0.211-3.032,1.588-3.042,1.603
				L1567.307-74.022z"/>
			<path fill="#4E3F30" d="M1568.57-74.69c0.027-0.181,0.104-0.356,0.25-0.514l0.067,0.039c-0.657,0.696,0.189,1.816,0.198,1.828
				l-0.069,0.027C1569.011-73.317,1568.47-74.032,1568.57-74.69z"/>
			<path fill="#4E3F30" d="M1572.655-72.53l0.081,0.008c0,0.008-0.031,0.745,0.81,1.011l-0.025,0.059
				C1572.622-71.739,1572.655-72.521,1572.655-72.53z"/>
			<path fill="#4E3F30" d="M1571.128-71.072c0.162-1.072,1.578-1.225,1.594-1.225l0.017,0.061c-0.016,0.002-1.569,0.169-1.545,1.404
				l-0.081-0.003C1571.11-70.919,1571.116-70.998,1571.128-71.072z"/>
			<path fill="#4E3F30" d="M1568.889-71.297c0.021-0.055,0.521-1.355,1.645-1.434l0.117-0.009l-0.08,0.063
				c-0.006,0.003-0.552,0.455,0.173,1.854l-0.075,0.019c-0.603-1.163-0.352-1.688-0.219-1.856c-1.006,0.146-1.479,1.371-1.482,1.384
				L1568.889-71.297z"/>
			<path fill="#4E3F30" d="M1568.59-73.192c0-0.001,0-0.002,0-0.003l0.08,0.013l0,0c-0.002,0.019-0.09,0.648,0.566,1.361
				l-0.065,0.033C1568.503-72.513,1568.581-73.139,1568.59-73.192z"/>
			<path fill="#4E3F30" d="M1567.78-72.569c0.078-0.507,0.555-0.687,0.561-0.688l0.04,0.056c-0.038,0.014-0.935,0.355-0.317,1.492
				l-0.073,0.021C1567.79-72.057,1567.746-72.345,1567.78-72.569z"/>
			<path fill="#4E3F30" d="M1566.556-72.725c0.067-0.446,1.404-0.296,1.461-0.29l-0.005,0.062c-0.014,0-1.316-0.147-1.376,0.241
				c0,0.003,0,0.006,0,0.009l-0.081-0.01C1566.556-72.718,1566.556-72.72,1566.556-72.725z"/>
			<path fill="#4E3F30" d="M1566.738-73.036c0.029-0.197,0.296-0.492,0.36-0.562l0.067,0.038c-0.178,0.189-0.425,0.525-0.332,0.62
				l-0.063,0.034C1566.738-72.938,1566.729-72.983,1566.738-73.036z"/>
		</g>
		<g>
			<path fill="#4E3F30" d="M1549.571-73.58c0.164-1.307,1.889-2.253,3.693-2.027c1.672,0.21,5.932,3.081,6.113,3.204l0.073,0.05
				l-0.072,0.044c-0.136,0.083-3.356,2.026-5.198,1.795c-0.934-0.116-2.133-0.549-3.055-1.102
				C1550.046-72.264,1549.493-72.962,1549.571-73.58z M1559.199-72.364c-0.59-0.393-4.445-2.933-5.95-3.121
				c-1.688-0.212-3.363,0.706-3.517,1.925c-0.158,1.263,2.629,2.693,4.465,2.924C1555.82-70.433,1558.702-72.072,1559.199-72.364z"
				/>
			<path fill="#4E3F30" d="M1549.583-73.549l0.03-0.056c0.016,0.006,1.619,0.564,3.986,1.004c2.367,0.438,5.687,0.213,5.72,0.21
				l0.013,0.063c-0.032,0.003-3.366,0.229-5.745-0.212C1551.209-72.982,1549.6-73.545,1549.583-73.549z"/>
			<path fill="#4E3F30" d="M1555.064-72.398c0.01-0.012,1.089-1.163,2.447-1.148l0.005,0.063c-1.319-0.015-2.374,1.112-2.386,1.124
				L1555.064-72.398z"/>
			<path fill="#4E3F30" d="M1555.623-73.831c0.02-0.154,0.066-0.295,0.16-0.394c0.081-0.085,0.191-0.132,0.327-0.138l0.012,0.061
				c-0.114,0.006-0.203,0.044-0.272,0.117c-0.317,0.33-0.052,1.243-0.049,1.252l-0.079,0.01
				C1555.713-72.951,1555.573-73.434,1555.623-73.831z"/>
			<path fill="#4E3F30" d="M1553.626-72.628c0.029-0.241,0.186-1.106,0.903-1.561c0.378-0.237,0.852-0.33,1.408-0.274l-0.005,0.062
				c-0.536-0.054-0.988,0.035-1.35,0.262c-0.811,0.514-0.884,1.574-0.884,1.584l-0.082-0.007
				C1553.618-72.563,1553.62-72.588,1553.626-72.628z"/>
			<path fill="#4E3F30" d="M1552.653-72.833c0.031-0.254,0.253-1.029,1.754-1.281l0.022,0.062c-1.735,0.289-1.7,1.293-1.7,1.303
				l-0.081-0.002C1552.648-72.753,1552.647-72.783,1552.653-72.833z"/>
			<path fill="#4E3F30" d="M1550.891-74.446c0.049-0.385,0.227-0.763,0.668-0.99l0.049,0.053c-1.121,0.575-0.439,2.238-0.433,2.255
				l-0.077,0.015C1551.08-73.157,1550.812-73.812,1550.891-74.446z"/>
			<path fill="#4E3F30" d="M1550.944-73.666c0.009-0.014,1.006-1.441,3.052-1.71l0.02,0.061c-2.01,0.264-2.99,1.667-2.999,1.682
				L1550.944-73.666z"/>
			<path fill="#4E3F30" d="M1552.19-74.366c0.022-0.182,0.094-0.359,0.236-0.521l0.068,0.037c-0.639,0.714,0.236,1.812,0.246,1.822
				l-0.069,0.029C1552.666-73.006,1552.106-73.706,1552.19-74.366z"/>
			<path fill="#4E3F30" d="M1556.33-72.314l0.081,0.006c0,0.008-0.012,0.746,0.836,0.989l-0.023,0.06
				C1556.317-71.522,1556.33-72.305,1556.33-72.314z"/>
			<path fill="#4E3F30" d="M1554.842-70.816c0.134-1.076,1.545-1.266,1.561-1.266l0.019,0.06c-0.016,0.003-1.564,0.21-1.508,1.444
				l-0.081-0.001C1554.828-70.663,1554.832-70.742,1554.842-70.816z"/>
			<path fill="#4E3F30" d="M1552.597-70.982c0.02-0.056,0.486-1.369,1.606-1.477l0.117-0.012l-0.078,0.065
				c-0.006,0.004-0.54,0.47,0.221,1.85l-0.074,0.021c-0.633-1.146-0.396-1.678-0.268-1.85c-1.001,0.172-1.441,1.409-1.445,1.422
				L1552.597-70.982z"/>
			<path fill="#4E3F30" d="M1552.249-72.869c0-0.001,0-0.002,0-0.003l0.08,0.01l0,0c-0.002,0.02-0.073,0.651,0.602,1.347
				l-0.064,0.035C1552.18-72.188,1552.241-72.815,1552.249-72.869z"/>
			<path fill="#4E3F30" d="M1551.456-72.226c0.064-0.509,0.536-0.7,0.542-0.703l0.041,0.055c-0.037,0.015-0.925,0.38-0.277,1.5
				l-0.073,0.022C1551.479-71.713,1551.428-72,1551.456-72.226z"/>
			<path fill="#4E3F30" d="M1550.228-72.349c0.056-0.448,1.396-0.333,1.453-0.328l-0.004,0.062c-0.014,0-1.319-0.113-1.369,0.277
				c0,0.003,0,0.006,0,0.009l-0.081-0.008C1550.228-72.342,1550.228-72.344,1550.228-72.349z"/>
			<path fill="#4E3F30" d="M1550.402-72.665c0.023-0.198,0.282-0.5,0.345-0.57l0.068,0.036c-0.173,0.194-0.41,0.536-0.315,0.629
				l-0.063,0.035C1550.404-72.566,1550.395-72.612,1550.402-72.665z"/>
		</g>
		<g>
			<path fill="#4E3F30" d="M1545.356-77.761c0.792-0.728,1.879-1.393,2.77-1.695c1.758-0.599,5.304,0.654,5.453,0.708l0.08,0.029
				l-0.063,0.064c-0.152,0.156-3.746,3.829-5.341,4.371c-1.721,0.585-3.603,0.006-4.025-1.24
				C1544.028-76.113,1544.429-76.908,1545.356-77.761z M1548.166-79.34c-1.751,0.596-4.192,2.56-3.782,3.765
				c0.396,1.163,2.223,1.724,3.833,1.175c1.435-0.487,4.699-3.754,5.197-4.257C1552.868-78.844,1549.716-79.867,1548.166-79.34z"/>
			<path fill="#4E3F30" d="M1544.235-75.556l0.04,0.048c0.015-0.009,1.472-0.88,3.703-1.787c2.229-0.909,5.525-1.357,5.559-1.361
				v-0.063c-0.032,0.004-3.344,0.455-5.585,1.367C1545.713-76.44,1544.25-75.564,1544.235-75.556z"/>
			<path fill="#4E3F30" d="M1549.372-77.79c0.012,0.01,1.301,0.92,2.629,0.631l-0.009-0.063c-1.288,0.282-2.55-0.609-2.563-0.618
				L1549.372-77.79z"/>
			<path fill="#4E3F30" d="M1550.208-76.499c0.051,0.146,0.125,0.275,0.236,0.353c0.097,0.067,0.214,0.091,0.348,0.07l-0.001-0.063
				c-0.112,0.018-0.207-0.001-0.29-0.059c-0.377-0.261-0.302-1.207-0.301-1.217l-0.079,0.008
				C1550.118-77.379,1550.079-76.879,1550.208-76.499z"/>
			<path fill="#4E3F30" d="M1548.008-77.274c0.078,0.23,0.406,1.046,1.202,1.346c0.416,0.156,0.898,0.152,1.433-0.016l-0.017-0.059
				c-0.514,0.161-0.976,0.165-1.374,0.016c-0.898-0.339-1.184-1.362-1.187-1.372l-0.077,0.022
				C1547.988-77.335,1547.995-77.313,1548.008-77.274z"/>
			<path fill="#4E3F30" d="M1547.098-76.877c0.083,0.241,0.455,0.957,1.977,0.9l0.01-0.064c-1.759,0.066-1.927-0.923-1.929-0.933
				l-0.078,0.018C1547.077-76.954,1547.082-76.925,1547.098-76.877z"/>
			<path fill="#4E3F30" d="M1545.697-74.942c0.125,0.368,0.375,0.702,0.854,0.835l0.037-0.061c-1.214-0.337-0.882-2.104-0.879-2.121
				l-0.078,0.001C1545.622-76.241,1545.491-75.547,1545.697-74.942z"/>
			<path fill="#4E3F30" d="M1545.592-75.717c0.013,0.012,1.276,1.21,3.334,1.06l0.007-0.063c-2.021,0.147-3.264-1.03-3.276-1.042
				L1545.592-75.717z"/>
			<path fill="#4E3F30" d="M1546.953-75.282c0.06,0.174,0.165,0.333,0.337,0.462l0.06-0.051c-0.77-0.569-0.134-1.821-0.127-1.834
				l-0.073-0.015C1547.146-76.711,1546.739-75.912,1546.953-75.282z"/>
			<path fill="#4E3F30" d="M1550.595-78.128l0.078-0.021c-0.002-0.008-0.162-0.728,0.618-1.138l-0.034-0.053
				C1550.422-78.9,1550.593-78.136,1550.595-78.128z"/>
			<path fill="#4E3F30" d="M1548.833-79.294c0.35,1.026,1.77,0.927,1.785,0.925l0.006-0.063c-0.016,0.001-1.575,0.11-1.769-1.11
				l-0.079,0.018C1548.79-79.441,1548.81-79.364,1548.833-79.294z"/>
			<path fill="#4E3F30" d="M1546.669-78.679c0.029,0.051,0.752,1.243,1.871,1.122l0.117-0.013l-0.09-0.047
				c-0.006-0.003-0.623-0.352-0.157-1.857l-0.076-0.004c-0.389,1.251-0.049,1.722,0.11,1.865c-1.015,0.034-1.696-1.089-1.702-1.101
				L1546.669-78.679z"/>
			<path fill="#4E3F30" d="M1546.708-76.759c0,0,0.001,0.001,0.001,0.002l0.077-0.026l0,0c-0.006-0.018-0.203-0.623,0.317-1.44
				l-0.069-0.021C1546.504-77.413,1546.691-76.812,1546.708-76.759z"/>
			<path fill="#4E3F30" d="M1545.803-77.23c0.165,0.485,0.666,0.578,0.673,0.579l0.029-0.063c-0.04-0.007-0.982-0.185-0.575-1.412
				l-0.076-0.007C1545.722-77.737,1545.729-77.445,1545.803-77.23z"/>
			<path fill="#4E3F30" d="M1544.624-76.862c0.146,0.428,1.435,0.045,1.489,0.028l-0.016-0.06c-0.014,0.003-1.271,0.378-1.396,0.005
				c-0.001-0.003-0.002-0.006-0.002-0.009l-0.078,0.024C1544.622-76.869,1544.623-76.866,1544.624-76.862z"/>
			<path fill="#4E3F30" d="M1544.858-76.588c0.064,0.189,0.378,0.433,0.454,0.489l0.06-0.049c-0.209-0.155-0.511-0.442-0.437-0.552
				l-0.068-0.022C1544.842-76.685,1544.842-76.638,1544.858-76.588z"/>
		</g>
		<g>
			<path fill="#4E3F30" d="M1581.168-73.58c0.164-1.307,1.889-2.253,3.693-2.027c1.672,0.21,5.932,3.081,6.113,3.204l0.073,0.05
				l-0.072,0.044c-0.136,0.083-3.356,2.026-5.198,1.795c-0.934-0.116-2.133-0.549-3.055-1.102
				C1581.643-72.264,1581.09-72.962,1581.168-73.58z M1590.796-72.364c-0.59-0.393-4.445-2.933-5.95-3.121
				c-1.688-0.212-3.363,0.706-3.517,1.925c-0.158,1.263,2.629,2.693,4.465,2.924C1587.417-70.433,1590.299-72.072,1590.796-72.364z"
				/>
			<path fill="#4E3F30" d="M1581.18-73.549l0.03-0.056c0.016,0.006,1.619,0.564,3.986,1.004c2.367,0.438,5.687,0.213,5.72,0.21
				l0.013,0.063c-0.032,0.003-3.366,0.229-5.745-0.212C1582.806-72.982,1581.196-73.545,1581.18-73.549z"/>
			<path fill="#4E3F30" d="M1586.661-72.398c0.01-0.012,1.089-1.163,2.447-1.148l0.005,0.063c-1.319-0.015-2.374,1.112-2.386,1.124
				L1586.661-72.398z"/>
			<path fill="#4E3F30" d="M1587.22-73.831c0.02-0.154,0.066-0.295,0.16-0.394c0.081-0.085,0.191-0.132,0.327-0.138l0.012,0.061
				c-0.114,0.006-0.203,0.044-0.272,0.117c-0.317,0.33-0.052,1.243-0.049,1.252l-0.079,0.01
				C1587.31-72.951,1587.17-73.434,1587.22-73.831z"/>
			<path fill="#4E3F30" d="M1585.223-72.628c0.029-0.241,0.186-1.106,0.903-1.561c0.378-0.237,0.852-0.33,1.408-0.274l-0.005,0.062
				c-0.536-0.054-0.988,0.035-1.35,0.262c-0.811,0.514-0.884,1.574-0.884,1.584l-0.082-0.007
				C1585.214-72.563,1585.217-72.588,1585.223-72.628z"/>
			<path fill="#4E3F30" d="M1584.25-72.833c0.031-0.254,0.253-1.029,1.754-1.281l0.022,0.062c-1.735,0.289-1.7,1.293-1.7,1.303
				l-0.081-0.002C1584.245-72.753,1584.244-72.783,1584.25-72.833z"/>
			<path fill="#4E3F30" d="M1582.487-74.446c0.049-0.385,0.227-0.763,0.668-0.99l0.049,0.053c-1.121,0.575-0.439,2.238-0.433,2.255
				l-0.077,0.015C1582.677-73.157,1582.408-73.812,1582.487-74.446z"/>
			<path fill="#4E3F30" d="M1582.541-73.666c0.009-0.014,1.006-1.441,3.052-1.71l0.02,0.061c-2.01,0.264-2.99,1.667-2.999,1.682
				L1582.541-73.666z"/>
			<path fill="#4E3F30" d="M1583.787-74.366c0.022-0.182,0.094-0.359,0.236-0.521l0.068,0.037c-0.639,0.714,0.236,1.812,0.246,1.822
				l-0.069,0.029C1584.263-73.006,1583.703-73.706,1583.787-74.366z"/>
			<path fill="#4E3F30" d="M1587.927-72.314l0.081,0.006c0,0.008-0.012,0.746,0.836,0.989l-0.023,0.06
				C1587.914-71.522,1587.927-72.305,1587.927-72.314z"/>
			<path fill="#4E3F30" d="M1586.438-70.816c0.134-1.076,1.545-1.266,1.561-1.266l0.019,0.06c-0.016,0.003-1.564,0.21-1.508,1.444
				l-0.081-0.001C1586.425-70.663,1586.429-70.742,1586.438-70.816z"/>
			<path fill="#4E3F30" d="M1584.193-70.982c0.02-0.056,0.486-1.369,1.606-1.477l0.117-0.012l-0.078,0.065
				c-0.006,0.004-0.54,0.47,0.221,1.85l-0.074,0.021c-0.633-1.146-0.396-1.678-0.268-1.85c-1.001,0.172-1.441,1.409-1.445,1.422
				L1584.193-70.982z"/>
			<path fill="#4E3F30" d="M1583.846-72.869c0-0.001,0-0.002,0-0.003l0.08,0.01l0,0c-0.002,0.02-0.073,0.651,0.602,1.347
				l-0.064,0.035C1583.776-72.188,1583.838-72.815,1583.846-72.869z"/>
			<path fill="#4E3F30" d="M1583.053-72.226c0.064-0.509,0.536-0.7,0.542-0.703l0.041,0.055c-0.037,0.015-0.925,0.38-0.277,1.5
				l-0.073,0.022C1583.075-71.713,1583.024-72,1583.053-72.226z"/>
			<path fill="#4E3F30" d="M1581.824-72.349c0.056-0.448,1.396-0.333,1.453-0.328l-0.004,0.062c-0.014,0-1.319-0.113-1.369,0.277
				c0,0.003,0,0.006,0,0.009l-0.081-0.008C1581.824-72.342,1581.824-72.344,1581.824-72.349z"/>
			<path fill="#4E3F30" d="M1581.999-72.665c0.023-0.198,0.282-0.5,0.345-0.57l0.068,0.036c-0.173,0.194-0.41,0.536-0.315,0.629
				l-0.063,0.035C1582.001-72.566,1581.991-72.612,1581.999-72.665z"/>
		</g>
		<g>
			<path fill="#4E3F30" d="M1576.953-77.761c0.792-0.728,1.879-1.393,2.77-1.695c1.758-0.599,5.304,0.654,5.453,0.708l0.08,0.029
				l-0.063,0.064c-0.152,0.156-3.746,3.829-5.341,4.371c-1.721,0.585-3.603,0.006-4.025-1.24
				C1575.625-76.113,1576.025-76.908,1576.953-77.761z M1579.763-79.34c-1.751,0.596-4.192,2.56-3.782,3.765
				c0.396,1.163,2.223,1.724,3.833,1.175c1.435-0.487,4.699-3.754,5.197-4.257C1584.465-78.844,1581.313-79.867,1579.763-79.34z"/>
			<path fill="#4E3F30" d="M1575.832-75.556l0.04,0.048c0.015-0.009,1.472-0.88,3.703-1.787c2.229-0.909,5.525-1.357,5.559-1.361
				v-0.063c-0.032,0.004-3.344,0.455-5.585,1.367C1577.31-76.44,1575.847-75.564,1575.832-75.556z"/>
			<path fill="#4E3F30" d="M1580.969-77.79c0.012,0.01,1.301,0.92,2.629,0.631l-0.009-0.063c-1.288,0.282-2.55-0.609-2.563-0.618
				L1580.969-77.79z"/>
			<path fill="#4E3F30" d="M1581.805-76.499c0.051,0.146,0.125,0.275,0.236,0.353c0.097,0.067,0.214,0.091,0.348,0.07l-0.001-0.063
				c-0.112,0.018-0.207-0.001-0.29-0.059c-0.377-0.261-0.302-1.207-0.301-1.217l-0.079,0.008
				C1581.715-77.379,1581.676-76.879,1581.805-76.499z"/>
			<path fill="#4E3F30" d="M1579.604-77.274c0.078,0.23,0.406,1.046,1.202,1.346c0.416,0.156,0.898,0.152,1.433-0.016l-0.017-0.059
				c-0.514,0.161-0.976,0.165-1.374,0.016c-0.898-0.339-1.184-1.362-1.187-1.372l-0.077,0.022
				C1579.585-77.335,1579.592-77.313,1579.604-77.274z"/>
			<path fill="#4E3F30" d="M1578.694-76.877c0.083,0.241,0.455,0.957,1.977,0.9l0.01-0.064c-1.759,0.066-1.927-0.923-1.929-0.933
				l-0.078,0.018C1578.674-76.954,1578.679-76.925,1578.694-76.877z"/>
			<path fill="#4E3F30" d="M1577.294-74.942c0.125,0.368,0.375,0.702,0.854,0.835l0.037-0.061c-1.214-0.337-0.882-2.104-0.879-2.121
				l-0.078,0.001C1577.219-76.241,1577.088-75.547,1577.294-74.942z"/>
			<path fill="#4E3F30" d="M1577.188-75.717c0.013,0.012,1.276,1.21,3.334,1.06l0.007-0.063c-2.021,0.147-3.264-1.03-3.276-1.042
				L1577.188-75.717z"/>
			<path fill="#4E3F30" d="M1578.55-75.282c0.06,0.174,0.165,0.333,0.337,0.462l0.06-0.051c-0.77-0.569-0.134-1.821-0.127-1.834
				l-0.073-0.015C1578.742-76.711,1578.336-75.912,1578.55-75.282z"/>
			<path fill="#4E3F30" d="M1582.191-78.128l0.078-0.021c-0.002-0.008-0.162-0.728,0.618-1.138l-0.034-0.053
				C1582.019-78.9,1582.189-78.136,1582.191-78.128z"/>
			<path fill="#4E3F30" d="M1580.43-79.294c0.35,1.026,1.77,0.927,1.785,0.925l0.006-0.063c-0.016,0.001-1.575,0.11-1.769-1.11
				l-0.079,0.018C1580.387-79.441,1580.406-79.364,1580.43-79.294z"/>
			<path fill="#4E3F30" d="M1578.266-78.679c0.029,0.051,0.752,1.243,1.871,1.122l0.117-0.013l-0.09-0.047
				c-0.006-0.003-0.623-0.352-0.157-1.857l-0.076-0.004c-0.389,1.251-0.049,1.722,0.11,1.865c-1.015,0.034-1.696-1.089-1.702-1.101
				L1578.266-78.679z"/>
			<path fill="#4E3F30" d="M1578.305-76.759c0,0,0.001,0.001,0.001,0.002l0.077-0.026l0,0c-0.006-0.018-0.203-0.623,0.317-1.44
				l-0.069-0.021C1578.101-77.413,1578.288-76.812,1578.305-76.759z"/>
			<path fill="#4E3F30" d="M1577.399-77.23c0.165,0.485,0.666,0.578,0.673,0.579l0.029-0.063c-0.04-0.007-0.982-0.185-0.575-1.412
				l-0.076-0.007C1577.318-77.737,1577.326-77.445,1577.399-77.23z"/>
			<path fill="#4E3F30" d="M1576.221-76.862c0.146,0.428,1.435,0.045,1.489,0.028l-0.016-0.06c-0.014,0.003-1.271,0.378-1.396,0.005
				c-0.001-0.003-0.002-0.006-0.002-0.009l-0.078,0.024C1576.219-76.869,1576.22-76.866,1576.221-76.862z"/>
			<path fill="#4E3F30" d="M1576.455-76.588c0.064,0.189,0.378,0.433,0.454,0.489l0.06-0.049c-0.209-0.155-0.511-0.442-0.437-0.552
				l-0.068-0.022C1576.438-76.685,1576.438-76.638,1576.455-76.588z"/>
		</g>
		<g>
			<path fill="#4E3F30" d="M1487.803-72.715c-0.832,1.021-2.797,0.907-4.206-0.242c-1.306-1.064-3.393-5.76-3.48-5.959l-0.036-0.083
				l0.085,0.001c0.159,0.002,3.92,0.064,5.358,1.238c0.729,0.594,1.516,1.598,2.004,2.555
				C1488.1-74.083,1488.197-73.198,1487.803-72.715z M1480.289-78.855c0.291,0.646,2.21,4.846,3.386,5.803
				c1.318,1.075,3.225,1.188,4.001,0.235c0.806-0.985-0.798-3.679-2.23-4.848C1484.177-78.698,1480.865-78.839,1480.289-78.855z"/>
			<path fill="#4E3F30" d="M1487.809-72.747l-0.054,0.031c-0.011-0.014-1.072-1.338-2.848-2.967
				c-1.771-1.629-4.705-3.199-4.734-3.215l0.021-0.059c0.029,0.015,2.976,1.593,4.758,3.229
				C1486.732-74.092,1487.798-72.761,1487.809-72.747z"/>
			<path fill="#4E3F30" d="M1483.774-76.633c-0.015,0.005-1.541,0.409-2.684-0.325l0.029-0.056c1.109,0.714,2.602,0.317,2.617,0.314
				L1483.774-76.633z"/>
			<path fill="#4E3F30" d="M1482.54-75.714c-0.098,0.119-0.213,0.215-0.344,0.247c-0.114,0.029-0.233,0.011-0.351-0.056l0.022-0.058
				c0.1,0.056,0.195,0.07,0.292,0.045c0.444-0.112,0.704-1.025,0.707-1.035l0.071,0.034
				C1482.932-76.508,1482.793-76.025,1482.54-75.714z"/>
			<path fill="#4E3F30" d="M1484.872-75.674c-0.153,0.189-0.745,0.839-1.595,0.843c-0.445,0.001-0.896-0.172-1.339-0.515l0.037-0.05
				c0.426,0.33,0.856,0.495,1.282,0.494c0.96-0.004,1.585-0.863,1.591-0.872l0.064,0.048
				C1484.912-75.724,1484.898-75.705,1484.872-75.674z"/>
			<path fill="#4E3F30" d="M1485.587-74.983c-0.162,0.197-0.76,0.738-2.166,0.154l0.014-0.063c1.624,0.675,2.127-0.193,2.132-0.201
				l0.067,0.044C1485.634-75.049,1485.618-75.022,1485.587-74.983z"/>
			<path fill="#4E3F30" d="M1486.226-72.683c-0.246,0.302-0.597,0.527-1.092,0.485l-0.014-0.07c1.255,0.108,1.561-1.663,1.563-1.681
				l0.073,0.027C1486.749-73.874,1486.628-73.177,1486.226-72.683z"/>
			<path fill="#4E3F30" d="M1486.594-73.371c-0.016,0.007-1.618,0.688-3.494-0.17l0.016-0.062c1.843,0.842,3.418,0.173,3.435,0.166
				L1486.594-73.371z"/>
			<path fill="#4E3F30" d="M1485.166-73.438c-0.116,0.142-0.27,0.255-0.477,0.315l-0.038-0.068c0.92-0.266,0.76-1.66,0.759-1.675
				l0.073,0.012C1485.485-74.844,1485.587-73.954,1485.166-73.438z"/>
			<path fill="#4E3F30" d="M1482.746-77.376l-0.065-0.047c0.005-0.007,0.405-0.626-0.184-1.283l0.052-0.037
				C1483.177-78.039,1482.751-77.383,1482.746-77.376z"/>
			<path fill="#4E3F30" d="M1484.804-77.854c-0.686,0.841-1.981,0.252-1.996,0.245l0.017-0.062c0.015,0.007,1.438,0.652,2.045-0.424
				l0.068,0.045C1484.896-77.978,1484.851-77.912,1484.804-77.854z"/>
			<path fill="#4E3F30" d="M1486.618-76.522c-0.046,0.037-1.139,0.902-2.146,0.398l-0.105-0.052l0.101-0.014
				c0.006,0,0.706-0.112,0.794-1.686l0.074,0.022c-0.073,1.309-0.555,1.631-0.755,1.71c0.939,0.386,1.97-0.429,1.98-0.438
				L1486.618-76.522z"/>
			<path fill="#4E3F30" d="M1485.911-74.737c0,0-0.001,0.001-0.002,0.002l-0.063-0.052l0,0c0.012-0.015,0.407-0.513,0.204-1.46
				l0.073,0.004C1486.331-75.279,1485.945-74.78,1485.911-74.737z"/>
			<path fill="#4E3F30" d="M1486.924-74.863c-0.324,0.397-0.825,0.31-0.832,0.308l-0.006-0.067c0.04,0.007,0.984,0.168,1.031-1.124
				l0.074,0.021C1487.177-75.311,1487.067-75.039,1486.924-74.863z"/>
			<path fill="#4E3F30" d="M1487.9-74.107c-0.285,0.351-1.359-0.458-1.405-0.492l0.035-0.051c0.012,0.007,1.059,0.797,1.307,0.491
				c0.003-0.002,0.004-0.005,0.006-0.007l0.063,0.05C1487.904-74.113,1487.902-74.11,1487.9-74.107z"/>
			<path fill="#4E3F30" d="M1487.585-73.932c-0.126,0.155-0.505,0.273-0.596,0.301l-0.038-0.067
				c0.249-0.073,0.633-0.236,0.601-0.365l0.072,0.003C1487.634-74.017,1487.618-73.972,1487.585-73.932z"/>
		</g>
		<g>
			<path fill="#4E3F30" d="M1480.058-71.969c-0.907,0.576-2.095,1.04-3.025,1.181c-1.835,0.28-5.105-1.578-5.243-1.658l-0.073-0.042
				l0.072-0.052c0.178-0.128,4.361-3.109,6.027-3.362c1.798-0.273,3.547,0.628,3.745,1.93
				C1481.654-73.356,1481.12-72.645,1480.058-71.969z M1477.013-70.909c1.829-0.278,4.578-1.781,4.387-3.04
				c-0.185-1.214-1.884-2.088-3.565-1.832c-1.499,0.228-5.287,2.868-5.866,3.275C1472.472-72.227,1475.396-70.663,1477.013-70.909z"
				/>
			<path fill="#4E3F30" d="M1481.55-73.941l-0.032-0.055c-0.016,0.006-1.604,0.606-3.959,1.107c-2.354,0.501-5.679,0.362-5.712,0.36
				l-0.011,0.063c0.032,0.002,3.371,0.141,5.737-0.362C1479.938-73.332,1481.533-73.937,1481.55-73.941z"/>
			<path fill="#4E3F30" d="M1476.1-72.647c-0.01-0.012-1.119-1.135-2.477-1.084l-0.003,0.063c1.318-0.05,2.402,1.05,2.414,1.061
				L1476.1-72.647z"/>
			<path fill="#4E3F30" d="M1475.504-74.065c-0.023-0.153-0.074-0.293-0.17-0.389c-0.084-0.083-0.195-0.127-0.331-0.13l-0.01,0.062
				c0.114,0.003,0.204,0.038,0.275,0.109c0.325,0.322,0.084,1.241,0.081,1.251l0.079,0.007
				C1475.438-73.184,1475.564-73.669,1475.504-74.065z"/>
			<path fill="#4E3F30" d="M1477.532-72.915c-0.036-0.24-0.215-1.101-0.944-1.536c-0.384-0.228-0.859-0.308-1.415-0.237l0.007,0.062
				c0.534-0.068,0.989,0.009,1.355,0.226c0.824,0.492,0.925,1.551,0.926,1.561l0.081-0.009
				C1477.541-72.851,1477.539-72.875,1477.532-72.915z"/>
			<path fill="#4E3F30" d="M1478.499-73.146c-0.038-0.253-0.28-1.022-1.787-1.234l-0.021,0.062c1.742,0.244,1.733,1.248,1.733,1.258
				l0.081-0.004C1478.506-73.065,1478.506-73.096,1478.499-73.146z"/>
			<path fill="#4E3F30" d="M1480.219-74.804c-0.059-0.384-0.246-0.757-0.693-0.973l-0.048,0.054
				c1.136,0.546,0.498,2.227,0.491,2.243l0.078,0.013C1480.063-73.511,1480.314-74.172,1480.219-74.804z"/>
			<path fill="#4E3F30" d="M1480.186-74.022c-0.01-0.014-1.043-1.415-3.096-1.63l-0.018,0.062c2.016,0.211,3.032,1.588,3.042,1.603
				L1480.186-74.022z"/>
			<path fill="#4E3F30" d="M1478.922-74.69c-0.027-0.181-0.104-0.356-0.25-0.514l-0.067,0.039c0.657,0.696-0.189,1.816-0.198,1.828
				l0.069,0.027C1478.481-73.317,1479.022-74.032,1478.922-74.69z"/>
			<path fill="#4E3F30" d="M1474.837-72.53l-0.081,0.008c0,0.008,0.031,0.745-0.81,1.011l0.025,0.059
				C1474.87-71.739,1474.837-72.521,1474.837-72.53z"/>
			<path fill="#4E3F30" d="M1476.364-71.072c-0.162-1.072-1.578-1.225-1.594-1.225l-0.017,0.061
				c0.016,0.002,1.569,0.169,1.545,1.404l0.081-0.003C1476.382-70.919,1476.376-70.998,1476.364-71.072z"/>
			<path fill="#4E3F30" d="M1478.604-71.297c-0.021-0.055-0.521-1.355-1.645-1.434l-0.117-0.009l0.08,0.063
				c0.006,0.003,0.552,0.455-0.173,1.854l0.075,0.019c0.603-1.163,0.352-1.688,0.219-1.856c1.006,0.146,1.479,1.371,1.482,1.384
				L1478.604-71.297z"/>
			<path fill="#4E3F30" d="M1478.902-73.192c0-0.001,0-0.002,0-0.003l-0.08,0.013l0,0c0.002,0.019,0.09,0.648-0.566,1.361
				l0.065,0.033C1478.989-72.513,1478.911-73.139,1478.902-73.192z"/>
			<path fill="#4E3F30" d="M1479.712-72.569c-0.078-0.507-0.555-0.687-0.561-0.688l-0.04,0.056c0.038,0.014,0.935,0.355,0.317,1.492
				l0.073,0.021C1479.702-72.057,1479.746-72.345,1479.712-72.569z"/>
			<path fill="#4E3F30" d="M1480.937-72.725c-0.067-0.446-1.404-0.296-1.461-0.29l0.005,0.062c0.014,0,1.316-0.147,1.376,0.241
				c0,0.003,0,0.006,0,0.009l0.081-0.01C1480.937-72.718,1480.937-72.72,1480.937-72.725z"/>
			<path fill="#4E3F30" d="M1480.754-73.036c-0.029-0.197-0.296-0.492-0.36-0.562l-0.067,0.038c0.178,0.189,0.425,0.525,0.332,0.62
				l0.063,0.034C1480.754-72.938,1480.763-72.983,1480.754-73.036z"/>
		</g>
		<g>
			<path fill="#4E3F30" d="M1456.777-72.715c-0.832,1.021-2.797,0.907-4.206-0.242c-1.306-1.064-3.393-5.76-3.48-5.959l-0.036-0.083
				l0.085,0.001c0.159,0.002,3.92,0.064,5.358,1.238c0.729,0.594,1.516,1.598,2.004,2.555
				C1457.074-74.083,1457.172-73.198,1456.777-72.715z M1449.264-78.855c0.291,0.646,2.21,4.846,3.386,5.803
				c1.318,1.075,3.225,1.188,4.001,0.235c0.806-0.985-0.798-3.679-2.23-4.848C1453.151-78.698,1449.84-78.839,1449.264-78.855z"/>
			<path fill="#4E3F30" d="M1456.783-72.747l-0.054,0.031c-0.011-0.014-1.072-1.338-2.848-2.967
				c-1.771-1.629-4.705-3.199-4.734-3.215l0.021-0.059c0.029,0.015,2.976,1.593,4.758,3.229
				C1455.707-74.092,1456.772-72.761,1456.783-72.747z"/>
			<path fill="#4E3F30" d="M1452.749-76.633c-0.015,0.005-1.541,0.409-2.684-0.325l0.029-0.056c1.109,0.714,2.602,0.317,2.617,0.314
				L1452.749-76.633z"/>
			<path fill="#4E3F30" d="M1451.515-75.714c-0.098,0.119-0.213,0.215-0.344,0.247c-0.114,0.029-0.233,0.011-0.351-0.056
				l0.022-0.058c0.1,0.056,0.195,0.07,0.292,0.045c0.444-0.112,0.704-1.025,0.707-1.035l0.071,0.034
				C1451.906-76.508,1451.768-76.025,1451.515-75.714z"/>
			<path fill="#4E3F30" d="M1453.847-75.674c-0.153,0.189-0.745,0.839-1.595,0.843c-0.445,0.001-0.896-0.172-1.339-0.515l0.037-0.05
				c0.426,0.33,0.856,0.495,1.282,0.494c0.96-0.004,1.585-0.863,1.591-0.872l0.064,0.048
				C1453.887-75.724,1453.873-75.705,1453.847-75.674z"/>
			<path fill="#4E3F30" d="M1454.562-74.983c-0.162,0.197-0.76,0.738-2.166,0.154l0.014-0.063c1.624,0.675,2.127-0.193,2.132-0.201
				l0.067,0.044C1454.608-75.049,1454.593-75.022,1454.562-74.983z"/>
			<path fill="#4E3F30" d="M1455.2-72.683c-0.246,0.302-0.597,0.527-1.092,0.485l-0.014-0.07c1.255,0.108,1.561-1.663,1.563-1.681
				l0.073,0.027C1455.724-73.874,1455.603-73.177,1455.2-72.683z"/>
			<path fill="#4E3F30" d="M1455.568-73.371c-0.016,0.007-1.618,0.688-3.494-0.17l0.016-0.062c1.843,0.842,3.418,0.173,3.435,0.166
				L1455.568-73.371z"/>
			<path fill="#4E3F30" d="M1454.141-73.438c-0.116,0.142-0.27,0.255-0.477,0.315l-0.038-0.068c0.92-0.266,0.76-1.66,0.759-1.675
				l0.073,0.012C1454.46-74.844,1454.562-73.954,1454.141-73.438z"/>
			<path fill="#4E3F30" d="M1451.721-77.376l-0.065-0.047c0.005-0.007,0.405-0.626-0.184-1.283l0.052-0.037
				C1452.151-78.039,1451.726-77.383,1451.721-77.376z"/>
			<path fill="#4E3F30" d="M1453.778-77.854c-0.686,0.841-1.981,0.252-1.996,0.245l0.017-0.062c0.015,0.007,1.438,0.652,2.045-0.424
				l0.068,0.045C1453.87-77.978,1453.825-77.912,1453.778-77.854z"/>
			<path fill="#4E3F30" d="M1455.593-76.522c-0.046,0.037-1.139,0.902-2.146,0.398l-0.105-0.052l0.101-0.014
				c0.006,0,0.706-0.112,0.794-1.686l0.074,0.022c-0.073,1.309-0.555,1.631-0.755,1.71c0.939,0.386,1.97-0.429,1.98-0.438
				L1455.593-76.522z"/>
			<path fill="#4E3F30" d="M1454.886-74.737c-0.001,0-0.001,0.001-0.002,0.002l-0.063-0.052l0,0c0.012-0.015,0.407-0.513,0.204-1.46
				l0.073,0.004C1455.306-75.279,1454.92-74.78,1454.886-74.737z"/>
			<path fill="#4E3F30" d="M1455.898-74.863c-0.324,0.397-0.825,0.31-0.832,0.308l-0.006-0.067c0.04,0.007,0.984,0.168,1.031-1.124
				l0.074,0.021C1456.151-75.311,1456.042-75.039,1455.898-74.863z"/>
			<path fill="#4E3F30" d="M1456.875-74.107c-0.285,0.351-1.359-0.458-1.405-0.492l0.035-0.051c0.012,0.007,1.059,0.797,1.307,0.491
				c0.003-0.002,0.004-0.005,0.006-0.007l0.063,0.05C1456.879-74.113,1456.877-74.11,1456.875-74.107z"/>
			<path fill="#4E3F30" d="M1456.56-73.932c-0.126,0.155-0.505,0.273-0.596,0.301l-0.038-0.067c0.249-0.073,0.633-0.236,0.601-0.365
				l0.072,0.003C1456.608-74.017,1456.593-73.972,1456.56-73.932z"/>
		</g>
		<g>
			<path fill="#4E3F30" d="M1449.032-71.969c-0.907,0.576-2.095,1.04-3.025,1.181c-1.835,0.28-5.105-1.578-5.243-1.658l-0.073-0.042
				l0.072-0.052c0.178-0.128,4.361-3.109,6.027-3.362c1.798-0.273,3.547,0.628,3.745,1.93
				C1450.629-73.356,1450.095-72.645,1449.032-71.969z M1445.987-70.909c1.829-0.278,4.578-1.781,4.387-3.04
				c-0.185-1.214-1.884-2.088-3.565-1.832c-1.499,0.228-5.287,2.868-5.866,3.275C1441.446-72.227,1444.37-70.663,1445.987-70.909z"
				/>
			<path fill="#4E3F30" d="M1450.524-73.941l-0.032-0.055c-0.016,0.006-1.604,0.606-3.959,1.107
				c-2.354,0.501-5.679,0.362-5.712,0.36l-0.011,0.063c0.032,0.002,3.371,0.141,5.737-0.362
				C1448.913-73.332,1450.508-73.937,1450.524-73.941z"/>
			<path fill="#4E3F30" d="M1445.074-72.647c-0.01-0.012-1.119-1.135-2.477-1.084l-0.003,0.063c1.318-0.05,2.402,1.05,2.414,1.061
				L1445.074-72.647z"/>
			<path fill="#4E3F30" d="M1444.479-74.065c-0.023-0.153-0.074-0.293-0.17-0.389c-0.084-0.083-0.195-0.127-0.331-0.13l-0.01,0.062
				c0.114,0.003,0.204,0.038,0.275,0.109c0.325,0.322,0.084,1.241,0.081,1.251l0.079,0.007
				C1444.412-73.184,1444.539-73.669,1444.479-74.065z"/>
			<path fill="#4E3F30" d="M1446.507-72.915c-0.036-0.24-0.215-1.101-0.944-1.536c-0.384-0.228-0.859-0.308-1.415-0.237l0.007,0.062
				c0.534-0.068,0.989,0.009,1.355,0.226c0.824,0.492,0.925,1.551,0.926,1.561l0.081-0.009
				C1446.516-72.851,1446.514-72.875,1446.507-72.915z"/>
			<path fill="#4E3F30" d="M1447.474-73.146c-0.038-0.253-0.28-1.022-1.787-1.234l-0.021,0.062c1.742,0.244,1.733,1.248,1.733,1.258
				l0.081-0.004C1447.48-73.065,1447.48-73.096,1447.474-73.146z"/>
			<path fill="#4E3F30" d="M1449.193-74.804c-0.059-0.384-0.246-0.757-0.693-0.973l-0.048,0.054
				c1.136,0.546,0.498,2.227,0.491,2.243l0.078,0.013C1449.038-73.511,1449.289-74.172,1449.193-74.804z"/>
			<path fill="#4E3F30" d="M1449.16-74.022c-0.01-0.014-1.043-1.415-3.096-1.63l-0.018,0.062c2.016,0.211,3.032,1.588,3.042,1.603
				L1449.16-74.022z"/>
			<path fill="#4E3F30" d="M1447.896-74.69c-0.027-0.181-0.104-0.356-0.25-0.514l-0.067,0.039c0.657,0.696-0.189,1.816-0.198,1.828
				l0.069,0.027C1447.456-73.317,1447.997-74.032,1447.896-74.69z"/>
			<path fill="#4E3F30" d="M1443.812-72.53l-0.081,0.008c0,0.008,0.031,0.745-0.81,1.011l0.025,0.059
				C1443.845-71.739,1443.812-72.521,1443.812-72.53z"/>
			<path fill="#4E3F30" d="M1445.339-71.072c-0.162-1.072-1.578-1.225-1.594-1.225l-0.017,0.061
				c0.016,0.002,1.569,0.169,1.545,1.404l0.081-0.003C1445.356-70.919,1445.351-70.998,1445.339-71.072z"/>
			<path fill="#4E3F30" d="M1447.578-71.297c-0.021-0.055-0.521-1.355-1.645-1.434l-0.117-0.009l0.08,0.063
				c0.006,0.003,0.552,0.455-0.173,1.854l0.075,0.019c0.603-1.163,0.352-1.688,0.219-1.856c1.006,0.146,1.479,1.371,1.482,1.384
				L1447.578-71.297z"/>
			<path fill="#4E3F30" d="M1447.877-73.192c0-0.001,0-0.002,0-0.003l-0.08,0.013l0,0c0.002,0.019,0.09,0.648-0.566,1.361
				l0.065,0.033C1447.964-72.513,1447.886-73.139,1447.877-73.192z"/>
			<path fill="#4E3F30" d="M1448.687-72.569c-0.078-0.507-0.555-0.687-0.561-0.688l-0.04,0.056c0.038,0.014,0.935,0.355,0.317,1.492
				l0.073,0.021C1448.677-72.057,1448.721-72.345,1448.687-72.569z"/>
			<path fill="#4E3F30" d="M1449.911-72.725c-0.067-0.446-1.404-0.296-1.461-0.29l0.005,0.062c0.014,0,1.316-0.147,1.376,0.241
				c0,0.003,0,0.006,0,0.009l0.081-0.01C1449.911-72.718,1449.911-72.72,1449.911-72.725z"/>
			<path fill="#4E3F30" d="M1449.729-73.036c-0.029-0.197-0.296-0.492-0.36-0.562l-0.067,0.038c0.178,0.189,0.425,0.525,0.332,0.62
				l0.063,0.034C1449.729-72.938,1449.737-72.983,1449.729-73.036z"/>
		</g>
		<g>
			<path fill="#4E3F30" d="M1465.341-71.616c-0.922,0.553-2.121,0.985-3.055,1.102c-1.842,0.231-5.063-1.712-5.198-1.795
				l-0.072-0.044l0.073-0.05c0.182-0.123,4.441-2.994,6.113-3.204c1.805-0.226,3.529,0.721,3.693,2.027
				C1466.974-72.962,1466.421-72.264,1465.341-71.616z M1462.27-70.637c1.836-0.23,4.623-1.661,4.465-2.924
				c-0.153-1.219-1.829-2.137-3.517-1.925c-1.505,0.188-5.36,2.729-5.95,3.121C1457.765-72.072,1460.646-70.433,1462.27-70.637z"/>
			<path fill="#4E3F30" d="M1466.884-73.549l-0.03-0.056c-0.016,0.006-1.619,0.564-3.986,1.004c-2.367,0.438-5.687,0.213-5.72,0.21
				l-0.013,0.063c0.032,0.003,3.366,0.229,5.745-0.212C1465.258-72.982,1466.867-73.545,1466.884-73.549z"/>
			<path fill="#4E3F30" d="M1461.402-72.398c-0.01-0.012-1.089-1.163-2.447-1.148l-0.005,0.063c1.319-0.015,2.374,1.112,2.386,1.124
				L1461.402-72.398z"/>
			<path fill="#4E3F30" d="M1460.844-73.831c-0.02-0.154-0.066-0.295-0.16-0.394c-0.081-0.085-0.191-0.132-0.327-0.138l-0.012,0.061
				c0.114,0.006,0.203,0.044,0.272,0.117c0.317,0.33,0.052,1.243,0.049,1.252l0.079,0.01
				C1460.754-72.951,1460.894-73.434,1460.844-73.831z"/>
			<path fill="#4E3F30" d="M1462.841-72.628c-0.029-0.241-0.186-1.106-0.903-1.561c-0.378-0.237-0.852-0.33-1.408-0.274l0.005,0.062
				c0.536-0.054,0.988,0.035,1.35,0.262c0.811,0.514,0.884,1.574,0.884,1.584l0.082-0.007
				C1462.85-72.563,1462.847-72.588,1462.841-72.628z"/>
			<path fill="#4E3F30" d="M1463.813-72.833c-0.031-0.254-0.253-1.029-1.754-1.281l-0.022,0.062c1.735,0.289,1.7,1.293,1.7,1.303
				l0.081-0.002C1463.818-72.753,1463.819-72.783,1463.813-72.833z"/>
			<path fill="#4E3F30" d="M1465.576-74.446c-0.049-0.385-0.227-0.763-0.668-0.99l-0.049,0.053c1.121,0.575,0.439,2.238,0.433,2.255
				l0.077,0.015C1465.387-73.157,1465.655-73.812,1465.576-74.446z"/>
			<path fill="#4E3F30" d="M1465.522-73.666c-0.009-0.014-1.006-1.441-3.052-1.71l-0.02,0.061c2.01,0.264,2.99,1.667,2.999,1.682
				L1465.522-73.666z"/>
			<path fill="#4E3F30" d="M1464.276-74.366c-0.022-0.182-0.094-0.359-0.236-0.521l-0.068,0.037
				c0.639,0.714-0.236,1.812-0.246,1.822l0.069,0.029C1463.801-73.006,1464.36-73.706,1464.276-74.366z"/>
			<path fill="#4E3F30" d="M1460.137-72.314l-0.081,0.006c0,0.008,0.012,0.746-0.836,0.989l0.023,0.06
				C1460.149-71.522,1460.137-72.305,1460.137-72.314z"/>
			<path fill="#4E3F30" d="M1461.625-70.816c-0.134-1.076-1.545-1.266-1.561-1.266l-0.019,0.06c0.016,0.003,1.564,0.21,1.508,1.444
				l0.081-0.001C1461.639-70.663,1461.635-70.742,1461.625-70.816z"/>
			<path fill="#4E3F30" d="M1463.87-70.982c-0.02-0.056-0.486-1.369-1.606-1.477l-0.117-0.012l0.078,0.065
				c0.006,0.004,0.54,0.47-0.221,1.85l0.074,0.021c0.633-1.146,0.396-1.678,0.268-1.85c1.001,0.172,1.441,1.409,1.445,1.422
				L1463.87-70.982z"/>
			<path fill="#4E3F30" d="M1464.218-72.869c0-0.001,0-0.002,0-0.003l-0.08,0.01l0,0c0.002,0.02,0.073,0.651-0.602,1.347
				l0.064,0.035C1464.287-72.188,1464.226-72.815,1464.218-72.869z"/>
			<path fill="#4E3F30" d="M1465.011-72.226c-0.064-0.509-0.536-0.7-0.542-0.703l-0.041,0.055c0.037,0.015,0.925,0.38,0.277,1.5
				l0.073,0.022C1464.988-71.713,1465.039-72,1465.011-72.226z"/>
			<path fill="#4E3F30" d="M1466.239-72.349c-0.056-0.448-1.396-0.333-1.453-0.328l0.004,0.062c0.014,0,1.319-0.113,1.369,0.277
				c0,0.003,0,0.006,0,0.009l0.081-0.008C1466.239-72.342,1466.239-72.344,1466.239-72.349z"/>
			<path fill="#4E3F30" d="M1466.064-72.665c-0.023-0.198-0.282-0.5-0.345-0.57l-0.068,0.036c0.173,0.194,0.41,0.536,0.315,0.629
				l0.063,0.035C1466.063-72.566,1466.072-72.612,1466.064-72.665z"/>
		</g>
		<g>
			<path fill="#4E3F30" d="M1472.236-75.523c-0.423,1.246-2.305,1.825-4.025,1.24c-1.595-0.542-5.188-4.215-5.341-4.371
				l-0.063-0.064l0.08-0.029c0.149-0.054,3.695-1.307,5.453-0.708c0.891,0.303,1.978,0.968,2.77,1.695
				C1472.038-76.908,1472.438-76.113,1472.236-75.523z M1463.053-78.657c0.498,0.503,3.763,3.77,5.197,4.257
				c1.61,0.549,3.437-0.012,3.833-1.175c0.41-1.205-2.031-3.169-3.782-3.765C1466.751-79.867,1463.599-78.844,1463.053-78.657z"/>
			<path fill="#4E3F30" d="M1472.231-75.556l-0.04,0.048c-0.015-0.009-1.472-0.88-3.703-1.787c-2.229-0.909-5.525-1.357-5.559-1.361
				v-0.063c0.032,0.004,3.344,0.455,5.585,1.367C1470.754-76.44,1472.217-75.564,1472.231-75.556z"/>
			<path fill="#4E3F30" d="M1467.095-77.79c-0.012,0.01-1.301,0.92-2.629,0.631l0.009-0.063c1.288,0.282,2.55-0.609,2.563-0.618
				L1467.095-77.79z"/>
			<path fill="#4E3F30" d="M1466.259-76.499c-0.051,0.146-0.125,0.275-0.236,0.353c-0.097,0.067-0.214,0.091-0.348,0.07l0.001-0.063
				c0.112,0.018,0.207-0.001,0.29-0.059c0.377-0.261,0.302-1.207,0.301-1.217l0.079,0.008
				C1466.349-77.379,1466.388-76.879,1466.259-76.499z"/>
			<path fill="#4E3F30" d="M1468.459-77.274c-0.078,0.23-0.406,1.046-1.202,1.346c-0.416,0.156-0.898,0.152-1.433-0.016l0.017-0.059
				c0.514,0.161,0.976,0.165,1.374,0.016c0.898-0.339,1.184-1.362,1.187-1.372l0.077,0.022
				C1468.479-77.335,1468.472-77.313,1468.459-77.274z"/>
			<path fill="#4E3F30" d="M1469.369-76.877c-0.083,0.241-0.455,0.957-1.977,0.9l-0.01-0.064c1.759,0.066,1.927-0.923,1.929-0.933
				l0.078,0.018C1469.39-76.954,1469.385-76.925,1469.369-76.877z"/>
			<path fill="#4E3F30" d="M1470.77-74.942c-0.125,0.368-0.375,0.702-0.854,0.835l-0.037-0.061c1.214-0.337,0.882-2.104,0.879-2.121
				l0.078,0.001C1470.845-76.241,1470.976-75.547,1470.77-74.942z"/>
			<path fill="#4E3F30" d="M1470.875-75.717c-0.013,0.012-1.276,1.21-3.334,1.06l-0.007-0.063c2.021,0.147,3.264-1.03,3.276-1.042
				L1470.875-75.717z"/>
			<path fill="#4E3F30" d="M1469.514-75.282c-0.06,0.174-0.165,0.333-0.337,0.462l-0.06-0.051c0.77-0.569,0.134-1.821,0.127-1.834
				l0.073-0.015C1469.321-76.711,1469.728-75.912,1469.514-75.282z"/>
			<path fill="#4E3F30" d="M1465.872-78.128l-0.078-0.021c0.002-0.008,0.162-0.728-0.618-1.138l0.034-0.053
				C1466.045-78.9,1465.874-78.136,1465.872-78.128z"/>
			<path fill="#4E3F30" d="M1467.634-79.294c-0.35,1.026-1.77,0.927-1.785,0.925l-0.006-0.063c0.016,0.001,1.575,0.11,1.769-1.11
				l0.079,0.018C1467.677-79.441,1467.657-79.364,1467.634-79.294z"/>
			<path fill="#4E3F30" d="M1469.798-78.679c-0.029,0.051-0.752,1.243-1.871,1.122l-0.117-0.013l0.09-0.047
				c0.006-0.003,0.623-0.352,0.157-1.857l0.076-0.004c0.389,1.251,0.049,1.722-0.11,1.865c1.015,0.034,1.696-1.089,1.702-1.101
				L1469.798-78.679z"/>
			<path fill="#4E3F30" d="M1469.759-76.759c0,0-0.001,0.001-0.001,0.002l-0.077-0.026l0,0c0.006-0.018,0.203-0.623-0.317-1.44
				l0.069-0.021C1469.963-77.413,1469.775-76.812,1469.759-76.759z"/>
			<path fill="#4E3F30" d="M1470.664-77.23c-0.165,0.485-0.666,0.578-0.673,0.579l-0.029-0.063c0.04-0.007,0.982-0.185,0.575-1.412
				l0.076-0.007C1470.745-77.737,1470.737-77.445,1470.664-77.23z"/>
			<path fill="#4E3F30" d="M1471.843-76.862c-0.146,0.428-1.435,0.045-1.489,0.028l0.016-0.06c0.014,0.003,1.271,0.378,1.396,0.005
				c0.001-0.003,0.002-0.006,0.002-0.009l0.078,0.024C1471.845-76.869,1471.844-76.866,1471.843-76.862z"/>
			<path fill="#4E3F30" d="M1471.608-76.588c-0.064,0.189-0.378,0.433-0.454,0.489l-0.06-0.049c0.209-0.155,0.511-0.442,0.437-0.552
				l0.068-0.022C1471.625-76.685,1471.625-76.638,1471.608-76.588z"/>
		</g>
		<g>
			<path fill="#4E3F30" d="M1433.744-71.616c-0.922,0.553-2.121,0.985-3.055,1.102c-1.842,0.231-5.063-1.712-5.198-1.795
				l-0.072-0.044l0.073-0.05c0.182-0.123,4.441-2.994,6.113-3.204c1.805-0.226,3.529,0.721,3.693,2.027
				C1435.377-72.962,1434.824-72.264,1433.744-71.616z M1430.673-70.637c1.836-0.23,4.623-1.661,4.465-2.924
				c-0.153-1.219-1.829-2.137-3.517-1.925c-1.505,0.188-5.36,2.729-5.95,3.121C1426.168-72.072,1429.05-70.433,1430.673-70.637z"/>
			<path fill="#4E3F30" d="M1435.287-73.549l-0.03-0.056c-0.016,0.006-1.619,0.564-3.986,1.004c-2.367,0.438-5.687,0.213-5.72,0.21
				l-0.013,0.063c0.032,0.003,3.366,0.229,5.745-0.212C1433.661-72.982,1435.271-73.545,1435.287-73.549z"/>
			<path fill="#4E3F30" d="M1429.806-72.398c-0.01-0.012-1.089-1.163-2.447-1.148l-0.005,0.063c1.319-0.015,2.374,1.112,2.386,1.124
				L1429.806-72.398z"/>
			<path fill="#4E3F30" d="M1429.247-73.831c-0.02-0.154-0.066-0.295-0.16-0.394c-0.081-0.085-0.191-0.132-0.327-0.138l-0.012,0.061
				c0.114,0.006,0.203,0.044,0.272,0.117c0.317,0.33,0.052,1.243,0.049,1.252l0.079,0.01
				C1429.157-72.951,1429.297-73.434,1429.247-73.831z"/>
			<path fill="#4E3F30" d="M1431.244-72.628c-0.029-0.241-0.186-1.106-0.903-1.561c-0.378-0.237-0.852-0.33-1.408-0.274l0.005,0.062
				c0.536-0.054,0.988,0.035,1.35,0.262c0.811,0.514,0.884,1.574,0.884,1.584l0.082-0.007
				C1431.253-72.563,1431.25-72.588,1431.244-72.628z"/>
			<path fill="#4E3F30" d="M1432.217-72.833c-0.031-0.254-0.253-1.029-1.754-1.281l-0.022,0.062c1.735,0.289,1.7,1.293,1.7,1.303
				l0.081-0.002C1432.222-72.753,1432.223-72.783,1432.217-72.833z"/>
			<path fill="#4E3F30" d="M1433.979-74.446c-0.049-0.385-0.227-0.763-0.668-0.99l-0.049,0.053c1.121,0.575,0.439,2.238,0.433,2.255
				l0.077,0.015C1433.79-73.157,1434.059-73.812,1433.979-74.446z"/>
			<path fill="#4E3F30" d="M1433.926-73.666c-0.009-0.014-1.006-1.441-3.052-1.71l-0.02,0.061c2.01,0.264,2.99,1.667,2.999,1.682
				L1433.926-73.666z"/>
			<path fill="#4E3F30" d="M1432.68-74.366c-0.022-0.182-0.094-0.359-0.236-0.521l-0.068,0.037c0.639,0.714-0.236,1.812-0.246,1.822
				l0.069,0.029C1432.204-73.006,1432.764-73.706,1432.68-74.366z"/>
			<path fill="#4E3F30" d="M1428.54-72.314l-0.081,0.006c0,0.008,0.012,0.746-0.836,0.989l0.023,0.06
				C1428.553-71.522,1428.54-72.305,1428.54-72.314z"/>
			<path fill="#4E3F30" d="M1430.028-70.816c-0.134-1.076-1.545-1.266-1.561-1.266l-0.019,0.06c0.016,0.003,1.564,0.21,1.508,1.444
				l0.081-0.001C1430.042-70.663,1430.038-70.742,1430.028-70.816z"/>
			<path fill="#4E3F30" d="M1432.273-70.982c-0.02-0.056-0.486-1.369-1.606-1.477l-0.117-0.012l0.078,0.065
				c0.006,0.004,0.54,0.47-0.221,1.85l0.074,0.021c0.633-1.146,0.396-1.678,0.268-1.85c1.001,0.172,1.441,1.409,1.445,1.422
				L1432.273-70.982z"/>
			<path fill="#4E3F30" d="M1432.621-72.869c0-0.001,0-0.002,0-0.003l-0.08,0.01l0,0c0.002,0.02,0.073,0.651-0.602,1.347
				l0.064,0.035C1432.69-72.188,1432.629-72.815,1432.621-72.869z"/>
			<path fill="#4E3F30" d="M1433.414-72.226c-0.064-0.509-0.536-0.7-0.542-0.703l-0.041,0.055c0.037,0.015,0.925,0.38,0.277,1.5
				l0.073,0.022C1433.392-71.713,1433.442-72,1433.414-72.226z"/>
			<path fill="#4E3F30" d="M1434.643-72.349c-0.056-0.448-1.396-0.333-1.453-0.328l0.004,0.062c0.014,0,1.319-0.113,1.369,0.277
				c0,0.003,0,0.006,0,0.009l0.081-0.008C1434.643-72.342,1434.643-72.344,1434.643-72.349z"/>
			<path fill="#4E3F30" d="M1434.468-72.665c-0.023-0.198-0.282-0.5-0.345-0.57l-0.068,0.036c0.173,0.194,0.41,0.536,0.315,0.629
				l0.063,0.035C1434.466-72.566,1434.476-72.612,1434.468-72.665z"/>
		</g>
		<g>
			<path fill="#4E3F30" d="M1440.64-75.523c-0.423,1.246-2.305,1.825-4.025,1.24c-1.595-0.542-5.188-4.215-5.341-4.371l-0.063-0.064
				l0.08-0.029c0.149-0.054,3.695-1.307,5.453-0.708c0.891,0.303,1.978,0.968,2.77,1.695
				C1440.441-76.908,1440.842-76.113,1440.64-75.523z M1431.456-78.657c0.498,0.503,3.763,3.77,5.197,4.257
				c1.61,0.549,3.437-0.012,3.833-1.175c0.41-1.205-2.031-3.169-3.782-3.765C1435.154-79.867,1432.002-78.844,1431.456-78.657z"/>
			<path fill="#4E3F30" d="M1440.635-75.556l-0.04,0.048c-0.015-0.009-1.472-0.88-3.703-1.787c-2.229-0.909-5.525-1.357-5.559-1.361
				v-0.063c0.032,0.004,3.344,0.455,5.585,1.367C1439.157-76.44,1440.62-75.564,1440.635-75.556z"/>
			<path fill="#4E3F30" d="M1435.498-77.79c-0.012,0.01-1.301,0.92-2.629,0.631l0.009-0.063c1.288,0.282,2.55-0.609,2.563-0.618
				L1435.498-77.79z"/>
			<path fill="#4E3F30" d="M1434.662-76.499c-0.051,0.146-0.125,0.275-0.236,0.353c-0.097,0.067-0.214,0.091-0.348,0.07l0.001-0.063
				c0.112,0.018,0.207-0.001,0.29-0.059c0.377-0.261,0.302-1.207,0.301-1.217l0.079,0.008
				C1434.752-77.379,1434.791-76.879,1434.662-76.499z"/>
			<path fill="#4E3F30" d="M1436.862-77.274c-0.078,0.23-0.406,1.046-1.202,1.346c-0.416,0.156-0.898,0.152-1.433-0.016l0.017-0.059
				c0.514,0.161,0.976,0.165,1.374,0.016c0.898-0.339,1.184-1.362,1.187-1.372l0.077,0.022
				C1436.882-77.335,1436.875-77.313,1436.862-77.274z"/>
			<path fill="#4E3F30" d="M1437.772-76.877c-0.083,0.241-0.455,0.957-1.977,0.9l-0.01-0.064c1.759,0.066,1.927-0.923,1.929-0.933
				l0.078,0.018C1437.793-76.954,1437.788-76.925,1437.772-76.877z"/>
			<path fill="#4E3F30" d="M1439.173-74.942c-0.125,0.368-0.375,0.702-0.854,0.835l-0.037-0.061
				c1.214-0.337,0.882-2.104,0.879-2.121l0.078,0.001C1439.248-76.241,1439.379-75.547,1439.173-74.942z"/>
			<path fill="#4E3F30" d="M1439.278-75.717c-0.013,0.012-1.276,1.21-3.334,1.06l-0.007-0.063c2.021,0.147,3.264-1.03,3.276-1.042
				L1439.278-75.717z"/>
			<path fill="#4E3F30" d="M1437.917-75.282c-0.06,0.174-0.165,0.333-0.337,0.462l-0.06-0.051c0.77-0.569,0.134-1.821,0.127-1.834
				l0.073-0.015C1437.725-76.711,1438.131-75.912,1437.917-75.282z"/>
			<path fill="#4E3F30" d="M1434.275-78.128l-0.078-0.021c0.002-0.008,0.162-0.728-0.618-1.138l0.034-0.053
				C1434.448-78.9,1434.277-78.136,1434.275-78.128z"/>
			<path fill="#4E3F30" d="M1436.037-79.294c-0.35,1.026-1.77,0.927-1.785,0.925l-0.006-0.063c0.016,0.001,1.575,0.11,1.769-1.11
				l0.079,0.018C1436.08-79.441,1436.061-79.364,1436.037-79.294z"/>
			<path fill="#4E3F30" d="M1438.201-78.679c-0.029,0.051-0.752,1.243-1.871,1.122l-0.117-0.013l0.09-0.047
				c0.006-0.003,0.623-0.352,0.157-1.857l0.076-0.004c0.389,1.251,0.049,1.722-0.11,1.865c1.015,0.034,1.696-1.089,1.702-1.101
				L1438.201-78.679z"/>
			<path fill="#4E3F30" d="M1438.162-76.759c-0.001,0-0.001,0.001-0.001,0.002l-0.077-0.026l0,0c0.006-0.018,0.203-0.623-0.317-1.44
				l0.069-0.021C1438.366-77.413,1438.179-76.812,1438.162-76.759z"/>
			<path fill="#4E3F30" d="M1439.067-77.23c-0.165,0.485-0.666,0.578-0.673,0.579l-0.029-0.063c0.04-0.007,0.982-0.185,0.575-1.412
				l0.076-0.007C1439.148-77.737,1439.141-77.445,1439.067-77.23z"/>
			<path fill="#4E3F30" d="M1440.246-76.862c-0.146,0.428-1.435,0.045-1.489,0.028l0.016-0.06c0.014,0.003,1.271,0.378,1.396,0.005
				c0.001-0.003,0.002-0.006,0.002-0.009l0.078,0.024C1440.248-76.869,1440.247-76.866,1440.246-76.862z"/>
			<path fill="#4E3F30" d="M1440.012-76.588c-0.064,0.189-0.378,0.433-0.454,0.489l-0.06-0.049c0.209-0.155,0.511-0.442,0.437-0.552
				l0.068-0.022C1440.028-76.685,1440.028-76.638,1440.012-76.588z"/>
		</g>
	</g>
	<g>
		<text transform="matrix(1 0 0 1 1075.8584 -43.9277)" fill="#4E3F30" font-family="'BookAntiqua'" font-size="18">cafe</text>
		<line fill="none" stroke="#4E3F30" stroke-miterlimit="10" x1="1070.626" y1="-48.928" x2="961.474" y2="-48.928"/>
		<line fill="none" stroke="#4E3F30" stroke-miterlimit="10" x1="1221.849" y1="-48.928" x2="1112.696" y2="-48.928"/>
	</g>
	<g>
		<path fill="none" stroke="#4E3F30" stroke-width="8" stroke-miterlimit="10" d="M1188.247,150.029h-20.965v-19.644v-1.301
			c0,0-20.316,14.768-48.27,14.768c-27.955,0-45.507,12.678-45.507,12.678s-17.552-12.678-45.506-12.678
			s-47.619-13.467-47.619-13.467v68.26c0,36.982,29.979,66.961,66.959,66.961h52.982c24.861,0,46.559-13.549,58.109-33.666h29.816
			c12.926,0,23.402-10.479,23.402-23.402v-35.105C1211.649,160.507,1201.173,150.029,1188.247,150.029z M1198.649,208.538
			c0,5.734-4.668,10.4-10.402,10.4h-24.1c0.924-2.711,3.004-10.502,3.004-16.141c0-5.641,0.131-39.768,0.131-39.768h20.965
			c5.734,0,10.402,4.666,10.402,10.402V208.538z"/>
		<g>
			<path fill="#4E3F30" d="M1073.645,150.747l-2.295-1.928c-0.272-0.225-17.598-14.299-46.287-14.299
				c-31.565,0-57.2-22.524-58.276-23.483l-0.998-0.89l-10.508-82.353l7.444,7.589c0.21,0.213,21.877,21.682,60.073,21.682
				c30.666,0,45.102,11.63,50.847,18.275c5.745-6.646,20.182-18.275,50.846-18.275c38.361,0,59.861-21.465,60.072-21.682
				l7.445-7.589l-10.508,82.353l-0.998,0.89c-1.076,0.959-26.711,23.483-58.275,23.483c-28.93,0-46.113,14.152-46.283,14.295
				L1073.645,150.747z M972.537,106.531c4.868,3.979,27.004,20.839,52.526,20.839c25.575,0,42.646,10.094,48.582,14.242
				c5.936-4.148,23.008-14.242,48.583-14.242c25.52,0,47.654-16.857,52.525-20.839l7.678-60.165
				c-9.855,7.066-29.547,17.851-57.939,17.851c-37.298,0-47.263,18.099-47.669,18.868l-3.226,6.121l-3.141-6.146
				c-0.393-0.745-10.357-18.844-47.657-18.844c-28.393,0-48.084-10.784-57.939-17.851L972.537,106.531z"/>
			<path fill="#4E3F30" d="M1072.021,146.129c-0.002-0.044-0.141-4.526-0.141-13.978c0-4.348-2.708-13.953-10.169-22.598
				c-6.278-7.274-17.9-15.945-37.612-15.945c-15.915,0-32.289-9.555-47.352-27.633c-11.266-13.521-17.766-26.818-18.037-27.379
				l2.925-1.418c0.258,0.532,26.22,53.18,62.464,53.18c38.469,0,51.032,31.081,51.032,41.793c0,9.391,0.137,13.831,0.138,13.875
				L1072.021,146.129z"/>
			<path fill="#4E3F30" d="M1074.991,146.129l-3.249-0.103c0.002-0.044,0.139-4.484,0.139-13.875
				c0-10.712,12.563-41.793,51.033-41.793c36.268,0,62.205-52.647,62.463-53.18l2.926,1.418
				c-0.271,0.561-6.771,13.858-18.037,27.379c-15.063,18.078-31.438,27.633-47.352,27.633c-19.713,0-31.334,8.671-37.613,15.945
				c-7.461,8.645-10.169,18.25-10.169,22.598C1075.131,141.603,1074.992,146.085,1074.991,146.129z"/>
			<path fill="#FFFFFF" stroke="#4E3F30" stroke-width="11" stroke-miterlimit="10" d="M1073.645,81.444"/>
			<rect x="1070.07" y="81.444" fill="#4E3F30" width="7.151" height="64.633"/>
		</g>
	</g>
	<rect x="950.465" y="281.36" fill="none" width="266" height="81"/>
	<text transform="matrix(1.5 0 0 1 950.4653 342.5596)"><tspan x="0" y="0" fill="#4E3F30" font-family="'MORVA'" font-size="72">SILVE</tspan><tspan x="145.222" y="0" fill="#4E3F30" font-family="'MORVA'" font-size="72" letter-spacing="-5.333">R</tspan></text>
	<g>
		<text transform="matrix(1 0 0 1 1067.6626 373.9092)" fill="#4E3F30" font-family="'BookAntiqua'" font-size="18">cafe</text>
		<line fill="none" stroke="#4E3F30" stroke-miterlimit="10" x1="1062.43" y1="368.909" x2="953.278" y2="368.909"/>
		<line fill="none" stroke="#4E3F30" stroke-miterlimit="10" x1="1213.653" y1="368.909" x2="1104.501" y2="368.909"/>
	</g>
	<polygon fill="#0CA5B0" points="268.242,0 89.414,0 0,154.87 89.414,309.739 268.242,309.739 357.656,154.87 	"/>
	<g>
		<path fill="#FFFFFF" d="M264.732,157.345h-15.587v-14.605v-0.966c0,0-15.104,10.979-35.888,10.979s-33.834,9.425-33.834,9.425
			s-13.049-9.425-33.833-9.425s-35.405-10.014-35.405-10.014v50.752c0,27.495,22.289,49.784,49.784,49.784h39.392
			c18.484,0,34.616-10.073,43.204-25.029h22.168c9.61,0,17.4-7.791,17.4-17.4v-26.101
			C282.133,165.135,274.342,157.345,264.732,157.345z M272.466,200.846c0,4.264-3.47,7.733-7.734,7.733h-17.917
			c0.686-2.017,2.233-7.81,2.233-12.002s0.097-29.565,0.097-29.565h15.587c4.264,0,7.734,3.469,7.734,7.733V200.846z"/>
		<g>
			<path fill="#FFFFFF" d="M179.526,157.878l-1.706-1.434c-0.203-0.166-13.084-10.631-34.415-10.631
				c-23.469,0-42.528-16.746-43.328-17.459l-0.742-0.662l-7.813-61.229l5.535,5.643c0.156,0.158,16.265,16.12,44.664,16.12
				c22.8,0,33.533,8.646,37.804,13.587c4.271-4.94,15.005-13.587,37.804-13.587c28.521,0,44.506-15.959,44.664-16.12l5.536-5.643
				l-7.813,61.229l-0.742,0.662c-0.8,0.713-19.859,17.459-43.327,17.459c-21.509,0-34.285,10.522-34.412,10.629L179.526,157.878z
				 M104.353,125.004c3.62,2.959,20.078,15.493,39.053,15.493c19.015,0,31.708,7.505,36.121,10.59
				c4.413-3.085,17.106-10.59,36.122-10.59c18.973,0,35.431-12.532,39.052-15.493l5.708-44.732
				c-7.327,5.254-21.967,13.272-43.077,13.272c-27.731,0-35.14,13.455-35.442,14.028l-2.398,4.551l-2.335-4.569
				c-0.292-0.555-7.701-14.01-35.433-14.01c-21.11,0-35.75-8.019-43.078-13.272L104.353,125.004z"/>
			<path fill="#FFFFFF" d="M178.319,154.444c-0.001-0.032-0.104-3.364-0.104-10.392c0-3.232-2.013-10.374-7.561-16.802
				c-4.668-5.408-13.309-11.855-27.964-11.855c-11.833,0-24.007-7.104-35.206-20.545c-8.376-10.052-13.208-19.939-13.41-20.355
				l2.174-1.054c0.192,0.396,19.494,39.538,46.442,39.538c28.601,0,37.942,23.108,37.942,31.073c0,6.981,0.102,10.283,0.103,10.315
				L178.319,154.444z"/>
			<path fill="#FFFFFF" d="M180.527,154.444l-2.416-0.076c0.001-0.032,0.103-3.334,0.103-10.315c0-7.965,9.341-31.073,37.942-31.073
				c26.965,0,46.25-39.143,46.441-39.538l2.175,1.054c-0.202,0.416-5.035,10.304-13.411,20.356
				c-11.199,13.44-23.373,20.544-35.206,20.544c-14.656,0-23.297,6.447-27.965,11.855c-5.547,6.428-7.561,13.569-7.561,16.802
				C180.631,151.08,180.528,154.412,180.527,154.444z"/>
			<path fill="#FFFFFF" d="M179.526,106.353"/>
			<rect x="176.868" y="106.353" fill="#FFFFFF" width="5.317" height="48.054"/>
		</g>
	</g>
	<g>
		<path fill="#FFFFFF" d="M-197.268,339.345h-15.587v-14.605v-0.966c0,0-15.104,10.979-35.888,10.979s-33.834,9.425-33.834,9.425
			s-13.049-9.425-33.833-9.425s-35.405-10.014-35.405-10.014v50.752c0,27.495,22.289,49.784,49.784,49.784h39.392
			c18.484,0,34.616-10.073,43.204-25.029h22.168c9.61,0,17.4-7.791,17.4-17.4v-26.101
			C-179.868,347.135-187.658,339.345-197.268,339.345z M-189.534,382.846c0,4.264-3.47,7.733-7.734,7.733h-17.917
			c0.686-2.017,2.233-7.81,2.233-12.002s0.097-29.565,0.097-29.565h15.587c4.264,0,7.734,3.469,7.734,7.733V382.846z"/>
		<g>
			<path fill="#FFFFFF" d="M-282.474,339.878l-1.706-1.434c-0.203-0.166-13.084-10.631-34.415-10.631
				c-23.469,0-42.528-16.746-43.328-17.459l-0.742-0.662l-7.813-61.229l5.535,5.643c0.156,0.158,16.265,16.12,44.664,16.12
				c22.8,0,33.533,8.646,37.804,13.587c4.271-4.94,15.005-13.587,37.804-13.587c28.521,0,44.506-15.959,44.664-16.12l5.536-5.643
				l-7.813,61.229l-0.742,0.662c-0.8,0.713-19.859,17.459-43.328,17.459c-21.509,0-34.285,10.522-34.411,10.629L-282.474,339.878z
				 M-357.647,307.004c3.62,2.959,20.078,15.493,39.053,15.493c19.015,0,31.708,7.505,36.121,10.59
				c4.413-3.085,17.106-10.59,36.121-10.59c18.974,0,35.431-12.532,39.053-15.493l5.708-44.732
				c-7.327,5.254-21.967,13.272-43.077,13.272c-27.731,0-35.14,13.455-35.442,14.028l-2.398,4.551l-2.335-4.569
				c-0.292-0.555-7.701-14.01-35.433-14.01c-21.11,0-35.75-8.019-43.078-13.272L-357.647,307.004z"/>
			<path fill="#FFFFFF" d="M-283.681,336.444c-0.002-0.032-0.105-3.364-0.105-10.392c0-3.232-2.013-10.374-7.561-16.802
				c-4.668-5.408-13.309-11.855-27.964-11.855c-11.833,0-24.007-7.104-35.206-20.545c-8.376-10.052-13.208-19.939-13.41-20.355
				l2.174-1.054c0.192,0.396,19.494,39.538,46.442,39.538c28.601,0,37.942,23.108,37.942,31.073c0,6.981,0.101,10.283,0.102,10.315
				L-283.681,336.444z"/>
			<path fill="#FFFFFF" d="M-281.473,336.444l-2.416-0.076c0.001-0.032,0.103-3.334,0.103-10.315
				c0-7.965,9.341-31.073,37.942-31.073c26.965,0,46.25-39.143,46.442-39.538l2.174,1.054c-0.202,0.416-5.035,10.304-13.411,20.356
				c-11.199,13.44-23.373,20.544-35.206,20.544c-14.656,0-23.297,6.447-27.964,11.855c-5.547,6.428-7.561,13.569-7.561,16.802
				C-281.368,333.08-281.472,336.412-281.473,336.444z"/>
			<path fill="#FFFFFF" d="M-282.474,288.353"/>
			<rect x="-285.132" y="288.353" fill="#FFFFFF" width="5.317" height="48.054"/>
		</g>
	</g>
</g>
</svg>
