<?xml version="1.0" encoding="utf-8"?>
<!-- Generator: Adobe Illustrator 16.0.0, SVG Export Plug-In . SVG Version: 6.00 Build 0)  -->
<!DOCTYPE svg PUBLIC "-//W3C//DTD SVG 1.1//EN" "http://www.w3.org/Graphics/SVG/1.1/DTD/svg11.dtd">
<svg version="1.1" id="Layer_1" xmlns="http://www.w3.org/2000/svg" xmlns:xlink="http://www.w3.org/1999/xlink" x="0px" y="0px"
	 width="512px" height="512px" viewBox="0 0 512 512" enable-background="new 0 0 512 512" xml:space="preserve">
<g>
	<path fill="#F55169" d="M108.382,0h23.077v22.8h21.109V0h23.078v69.044H152.57v-23.12H131.46v23.12h-23.077L108.382,0L108.382,0z"
		/>
	<path fill="#F55169" d="M205.994,22.896h-20.316V0h63.72v22.896h-20.324v46.148h-23.078L205.994,22.896L205.994,22.896z"/>
	<path fill="#F55169" d="M259.511,0h24.063l14.802,24.26L313.162,0h24.072v69.044h-22.981V34.822l-15.878,24.549h-0.396
		l-15.888-24.549v34.222h-22.58V0z"/>
	<path fill="#F55169" d="M348.72,0h23.084v46.222h32.453v22.822H348.72V0z"/>
</g>
<path fill="#F55169" d="M74.633,100.62l33.011,370.257L255.778,512l148.543-41.181l33.046-370.199H74.633z M368.511,188.488
	l-2.069,23.021l-0.911,10.207h-0.146H256h-0.157H191.76l4.15,46.501h59.933H256h93.161h12.237l-1.108,12.194l-10.671,119.551
	l-0.683,7.672L256,433.391v0.009l-0.209,0.058l-93.021-25.823l-6.361-71.301h21.01h24.575l3.232,36.217l50.574,13.656l0.042-0.012
	v-0.003l50.646-13.67l5.271-58.895H256h-0.157H154.38l-11.161-125.139l-1.087-12.183h113.711H256h113.597L368.511,188.488z"/>
</svg>
