<?xml version="1.0" encoding="utf-8"?>
<!-- Generator: Adobe Illustrator 16.0.0, SVG Export Plug-In . SVG Version: 6.00 Build 0)  -->
<!DOCTYPE svg PUBLIC "-//W3C//DTD SVG 1.1//EN" "http://www.w3.org/Graphics/SVG/1.1/DTD/svg11.dtd">
<svg version="1.1" id="Layer_1" xmlns="http://www.w3.org/2000/svg" xmlns:xlink="http://www.w3.org/1999/xlink" x="0px" y="0px"
	 width="4980px" height="736px" viewBox="-1494.205 -424.165 4980 736" enable-background="new -1494.205 -424.165 4980 736"
	 xml:space="preserve">
<g>
	
		<image overflow="visible" opacity="0.5" width="655" height="591" xlink:href="591671D4.png"  transform="matrix(1 0 0 1 -422.2053 -410.1646)">
	</image>
	<g>
		<g>
			<path fill="#ED4062" d="M86.948-173.494c-35.269,0-47.32,17.855-47.32,32.587c0,16.072,8.034,27.232,55.356,51.786
				c70.089,33.929,91.964,66.518,91.964,114.286c0,71.428-54.464,109.821-128.126,109.821c-38.839,0-72.321-8.036-91.517-19.196
				c-3.125-1.338-3.571-3.571-3.571-7.144V43.023c0-4.464,2.231-5.806,5.358-3.571c28.125,18.305,60.267,26.339,89.73,26.339
				c35.27,0,50.001-14.732,50.001-34.821c0-16.071-10.269-30.357-55.359-53.572c-63.393-30.357-89.73-61.159-89.73-112.499
				c0-57.591,45.09-105.357,123.213-105.357c38.393,0,65.178,5.805,79.911,12.5c3.571,2.232,4.463,5.803,4.463,8.928v61.16
				c0,3.57-2.231,5.804-6.697,4.463C144.982-165.904,115.965-173.494,86.948-173.494L86.948-173.494z"/>
			<path fill="#ED4062" d="M-251.444-365.013c-44.196,0-86.606,0.893-115.179,2.231c-3.569,0-9.82,2.234-9.82,5.358h-0.002V122.04
				c0,4.018,1.787,5.356,5.358,5.356h68.304c4.018,0,5.356-1.786,5.356-5.356V-49.389c12.056,0,17.859,0.893,34.822,0.893
				c100.892,0,183.035-48.661,183.035-162.052C-79.571-297.156-127.784-365.013-251.444-365.013z M-260.82-119.477
				c-17.856,0-25.893,0-36.161-0.893V-292.69c8.036-0.446,25.002-1.339,42.859-1.339c59.374,0,94.642,28.573,94.642,85.269
				C-159.48-137.78-208.586-119.477-260.82-119.477z"/>
		</g>
	</g>
</g>
<g>
	
		<image overflow="visible" opacity="0.5" width="529" height="709" xlink:href="591671D3.png"  transform="matrix(1 0 0 1 726.7947 -410.1646)">
	</image>
	<g>
		<g>
			<g>
				<path fill="#ED4062" d="M813.472-365.013h27.854v27.52h25.479v-27.52h27.856v83.337h-27.854v-27.905h-25.479v27.905h-27.855
					V-365.013L813.472-365.013z"/>
				<path fill="#ED4062" d="M931.293-337.377H906.77v-27.636h76.911v27.636h-24.53v55.701h-27.856L931.293-337.377L931.293-337.377z
					"/>
				<path fill="#ED4062" d="M995.888-365.013h29.045l17.865,29.282l17.848-29.282h29.057v83.337h-27.738v-41.306l-19.166,29.632
					h-0.479l-19.176-29.632v41.306h-27.256V-365.013L995.888-365.013z"/>
				<path fill="#ED4062" d="M1103.566-365.013h27.863v55.791h39.172v27.546h-67.035V-365.013z"/>
			</g>
			<path fill="#ED4062" d="M772.736-243.563l39.844,446.913l178.803,49.637l179.295-49.708l39.889-446.842H772.736z
				 M1127.455-137.502l-2.497,27.786l-1.101,12.318h-0.175H991.651h-0.189h-77.351l5.01,56.131h72.341h0.189h112.447h14.771
				l-1.338,14.718l-12.88,144.302l-0.823,9.259l-112.177,31.091v0.012l-0.252,0.069l-112.28-31.169l-7.676-86.062h25.358h29.663
				l3.9,43.715l61.045,16.483l0.051-0.015v-0.005l61.131-16.499l6.361-71.088h-67.302h-0.189H868.993l-13.472-151.047l-1.313-14.705
				h137.253h0.189h137.114L1127.455-137.502z"/>
		</g>
	</g>
</g>
<g>
	
		<image overflow="visible" opacity="0.5" width="532" height="709" xlink:href="591671DE.png"  transform="matrix(1 0 0 1 1811.7947 -410.1646)">
	</image>
	<g>
		<g>
			<g id="_x23_000000ff_9_">
				<path fill="#ED4062" d="M1945.848-364.831c27.084-0.335,54.168-0.103,81.251-0.116c0.064,8.473,0.191,16.946-0.117,25.419
					c-18.766-0.129-37.518,0-56.271,0.116c-0.128,12.304-0.373,24.607-0.256,36.911c18.829,0.116,37.673,0.297,56.502,0.22
					c0.22,6.964,0.142,13.954-0.064,20.932c-27.007-0.181-54.012-0.104-81.02-0.077
					C1945.938-309.232,1945.99-337.025,1945.848-364.831z"/>
				<path fill="#ED4062" d="M2036.76-364.92c27.421-0.052,54.839-0.22,82.27,0.09c-0.104,8.009-0.025,16.005-0.025,24.015
					c-19.951-0.064-39.916,0.025-59.868,0.258c0.025,3.145,0.025,6.294,0,9.44c19.927,0.323,39.839,0.36,59.752,0.478
					c0.077,16.418,0.037,32.822,0.141,49.228c-27.432-0.052-54.864-0.026-82.296,0.103c-0.143-6.629-0.154-13.244,0.039-19.873
					c19.008,0.051,38.031,0.077,57.042-0.078c0.115-4.27,0.167-8.551,0.154-12.819c-19.1,0-38.213,0.063-57.314-0.065
					C2036.656-331.066,2036.656-348,2036.76-364.92z"/>
				<path fill="#ED4062" d="M2128.212-364.779c27.37,0,54.748,0,82.115,0c0.116,8.048,0.234,16.095-0.025,24.13
					c-20.042-0.013-40.084,0.103-60.126,0.142c0.052,3.289,0.129,6.578,0.295,9.867c19.926-0.091,39.853,0.154,59.767,0.361
					c0.181,16.34,0.308,32.68,0.077,49.021c-27.432-0.077-54.864-0.077-82.295,0.052c-0.168-6.603-0.22-13.232,0.064-19.836
					c18.971,0.143,37.955,0.116,56.938-0.063c0.052-4.282,0.143-8.563,0.104-12.833c-19.048,0.181-38.11,0.078-57.173,0.014
					C2127.954-330.873,2128.084-347.832,2128.212-364.779z"/>
			</g>
			<path fill="#ED4062" d="M1857.672-246.823v2.411c2.823,24.285,4.515,48.699,6.874,73.036
				c6.809,80.864,14.51,161.665,21.589,242.516c3.753,43.76,7.558,87.519,11.777,131.253c32.358,8.68,64.419,18.405,96.764,27.121
				c27.406,8.151,55.084,15.322,82.49,23.474h0.851c28.8-8.383,57.817-16.03,86.604-24.479
				c31.339-8.346,62.383-17.812,93.734-26.116c5.442-58.347,10.602-116.73,15.605-175.115c8.422-91.349,16.379-182.725,24.468-274.1
				C2151.505-246.849,2004.594-246.835,1857.672-246.823z M2069.673,155.782c-22.88-6.11-46.003-11.284-68.844-17.499
				c-14.911-4.063-29.87-7.879-44.805-11.776c-4.347-28.142-6.899-56.515-8.383-84.926c15.154-0.231,30.308-0.091,45.449-0.182
				c3.12,0.053,6.317-0.037,9.337,0.89c1.315,14.778,2.346,29.598,3.83,44.363c10.434,3.033,21.281,4.232,31.869,6.539
				c13.426,2.389,26.733,5.391,40.213,7.391c7.324-3.443,15.232-5.3,22.931-7.647c14.445-4.335,28.99-8.295,43.321-12.978
				c1.237-23.895,3.224-47.754,4.526-71.656c-23.382,0.156-46.765-0.476-70.134-0.075c-20.029,0.438-40.072,0.037-60.1,0.141
				c-24.994,0.038-49.976,0.438-74.97,0.529c-1.329-18.676-4.347-37.286-4.697-56c3.16-2.295,6.938-3.482,10.473-5.055
				c41.206-18.019,82.735-35.352,123.76-53.756c-46.892-1.406-93.851,0.4-140.745-1.342c-2.348-16.895-4.63-33.815-5.493-50.852
				c50.4-0.053,100.815-0.193,151.217-0.014c48.415,0.258,96.817-0.078,145.22,0.31c-0.696,14.458-2.552,28.825-3.599,43.27
				c-0.477,4.553-0.41,9.208-1.624,13.658c-3.082,2.398-6.823,3.74-10.33,5.353c-18.188,8.061-36.525,15.76-54.646,23.975
				c-18.882,8.448-38.228,15.955-56.618,25.421c4.952,0.36,9.931,0.387,14.911,0.36c34.177-0.141,68.366-0.038,102.544-0.221
				c-3.574,57.121-9.208,114.103-14.29,171.106c-40.188,10.472-80.193,21.603-120.472,31.714c-0.387,0.078-1.174,0.231-1.561,0.307
				C2075.141,157.369,2072.394,156.364,2069.673,155.782z"/>
		</g>
	</g>
</g>
<g>
	
		<image overflow="visible" opacity="0.5" width="614" height="591" xlink:href="591671D1.png"  transform="matrix(1 0 0 1 -1488.2053 -410.1646)">
	</image>
	<g>
		<g>
			<path fill="#ED4062" d="M-1004.667-219.438c0-3.539,1.327-5.311,5.311-5.311h69.469c3.538,0,5.309,1.327,5.309,5.311v349.116
				c0,3.538-0.885,5.31-5.309,5.31h-68.584c-4.424,0-5.753-2.212-5.753-5.751v-348.674H-1004.667L-1004.667-219.438z"/>
			<path fill="#ED4062" d="M-1009.533-319.88c0-28.318,19.91-45.132,45.134-45.132c26.99,0,45.132,18.141,45.132,45.132
				c0,29.204-19.026,45.132-46.018,45.132C-990.95-274.747-1009.533-290.677-1009.533-319.88z"/>
			<path fill="#ED4062" d="M-1070.155,129.235l-140.707-477.434c-0.886-3.539-2.214-4.424-5.311-4.424h-92.92
				c-2.212,0-3.539,1.328-3.539,4.424c-0.885,21.681-2.212,28.761-4.424,36.725l-125.663,439.823c-0.887,5.31,0,6.637,4.424,6.637
				h65.044c4.424,0,5.751-0.885,6.636-4.422l34.957-132.744h141.591l36.284,133.187c0.883,3.095,3.097,3.979,6.636,3.979h73.452
				C-1070.155,134.986-1069.27,132.772-1070.155,129.235z M-1313.514-73.862c18.583-68.586,42.034-156.195,51.326-207.965h0.885
				c11.064,51.77,40.268,158.85,52.655,207.965H-1313.514z"/>
		</g>
	</g>
</g>
<g>
	<g>
		
			<image overflow="visible" opacity="0.5" width="591" height="232" xlink:href="591671D2.png"  transform="matrix(1 0 0 1 2868.7947 80.8354)">
		</image>
		<g>
			<g>
				<path fill="#F55169" d="M3057.305,181.792l0.001-0.005l-3.995,14.156L3057.305,181.792z M3077.85,212.526l-4.402-0.025
					L3077.85,212.526z M3076.719,233.669h0.004l-26.373,0.095L3076.719,233.669z M3082.248,212.552l-4.404-0.025L3082.248,212.552z
					 M3079.029,231.872l4.594-17.52l-4.594,17.523V231.872L3079.029,231.872z M3176.128,151.191l-8.558,40.229L3176.128,151.191z
					 M3154.13,151.191l-6.497,30.053l6.497-30.057V151.191z"/>
				<path fill="#F55169" d="M3174.662,149.38h-18.3c-1.015,0-2.022,0.814-2.239,1.807l-6.497,30.056l-6.497,30.056
					c-0.215,0.993-1.222,1.804-2.236,1.804h-12.952c-12.815,0-11.332-8.864-8.708-21.004l0.079-0.367l0.289-1.53
					c0.017-0.099,0.036-0.199,0.053-0.289l0.586-3.116l0.626-3.341c0.191-1.007,0.48-2.479,0.67-3.404l2.952-14.43l2.956-14.431
					c0.203-0.994-0.463-1.813-1.479-1.813h-18.783c-1.016,0-2.021,0.819-2.229,1.811l-4.039,19.161l-4.037,19.159
					c-0.005,0.008-0.006,0.021-0.006,0.029l-0.377,1.781c-4.652,21.238-3.418,41.49,21.863,42.124
					c0.414,0.013,0.734,0.016,0.734,0.016h39.686c1.014,0,2.02-0.816,2.232-1.81l8.559-40.227l8.557-40.231
					C3176.336,150.194,3175.677,149.381,3174.662,149.38z M3247.664,213.312c1.016,0,1.682,0.817,1.477,1.809l-1.777,8.687
					 M3245.59,232.497l1.775-8.691l-1.776,8.693L3245.59,232.497z M3243.361,234.323l0.008-0.002
					c-5.383,0.043-21.567,0.165-33.73,0.165C3224.441,234.488,3243.361,234.323,3243.361,234.323z M3198.721,202.126
					c-0.017-0.951,1.068-2.59,2.085-2.59l-2.29-0.038C3197.49,209.855,3198.721,202.126,3198.721,202.126z"/>
				<path fill="#F55169" d="M3211.306,234.486c-0.117,0-0.237,0-0.357,0.002C3211.069,234.486,3211.189,234.486,3211.306,234.486z
					 M3247.664,213.312c1.016,0,1.682,0.817,1.477,1.809l-1.777,8.687l-0.289,1.416 M3219.97,234.462h-0.074H3219.97z
					 M3215.476,234.477h-0.264H3215.476z M3214.106,234.482c-0.147,0-0.289,0-0.431,0.003
					C3213.817,234.482,3213.959,234.482,3214.106,234.482z M3212.711,234.486h-0.377H3212.711z M3215.215,234.477l-1.108,0.002
					L3215.215,234.477z M3243.375,234.322c-3.946,0.03-13.692,0.104-23.411,0.145
					C3229.677,234.428,3239.426,234.353,3243.375,234.322z M3245.59,232.5l1.488-7.276l-1.489,7.282L3245.59,232.5L3245.59,232.5z
					 M3213.677,234.486h-0.967H3213.677z M3210.947,234.488h-1.305H3210.947z M3212.33,234.486h-1.03H3212.33z M2944.651,202.343
					l2.843-12.601l-3.25,14.405l-3.119,14.672l2.734-12.861C2944.068,204.962,2944.427,203.335,2944.651,202.343L2944.651,202.343z
					 M2978.673,149.168h-20.097c-1.016,0-2.029,0.812-2.256,1.801l-1.906,8.411l-1.904,8.414c-0.225,0.99,0.422,1.801,1.439,1.801
					h20.253c1.015,0,2.024-0.812,2.243-1.804l1.841-8.411l1.842-8.405v-0.002C2980.344,149.979,2979.69,149.168,2978.673,149.168
					L2978.673,149.168z M2974.299,177.147v-0.002l-5.895,27.268L2974.299,177.147z M2915.92,267.497c0,0,10.131,0.13,16.57,0.13
					c-4.893,0-12.971-0.091-16.578-0.132l0.01,0.001H2915.92L2915.92,267.497z M2950.334,177.143l-2.845,12.601L2950.334,177.143z"
					/>
				<path fill="#F55169" d="M2972.845,175.34h-20.256c-1.015,0-2.03,0.812-2.254,1.804l-2.846,12.602l-2.842,12.601
					c-0.225,0.99-0.582,2.62-0.793,3.612l-2.733,12.861l-2.731,12.865c-0.213,0.989-0.648,2.593-0.975,3.56
					c0,0-3.783,11.258-10.145,11.129c-0.266-0.004-0.531-0.008-0.795-0.014c-3.082-0.061-5.504-0.104-5.504-0.104h-0.004
					c-1.014-0.018-2.033,0.779-2.271,1.762l-2.101,8.829l-2.099,8.824c-0.234,0.989,0.402,1.799,1.412,1.818
					c3.606,0.044,11.687,0.138,16.578,0.138c15.89,0,24.266-8.808,29.635-34.139l6.285-29.078l5.895-27.268
					C2974.515,176.153,2973.859,175.34,2972.845,175.34L2972.845,175.34z M3260.57,233.455c-1.016,0-1.67-0.814-1.457-1.809
					l15.237-71.369 M3281.745,231.645l6.167-30.464L3281.745,231.645z"/>
				<path fill="#F55169" d="M3259.33,232.553c-0.125-0.497-0.051-1.717,0.164-2.712l7.231-33.877l-7.618,35.683
					c-0.214,0.995,0.443,1.812,1.455,1.812h1.85C3261.402,233.458,3259.453,233.05,3259.33,232.553z M3280.541,233.051
					c-0.553,0.223-1.838,0.404-2.855,0.404h1.852c1.016,0,2.013-0.814,2.211-1.81l0.365-1.812
					C3281.916,230.829,3281.095,232.824,3280.541,233.051L3280.541,233.051z M3284.83,216.414l2.717-13.444
					c-0.001,0.007-0.002,0.021-0.004,0.025L3284.83,216.414L3284.83,216.414z M3344.952,165.058l0.839,3.467
					c0.232,0.993-0.41,1.798-1.424,1.801 M3282.115,229.834l2.717-13.42L3282.115,229.834z M3344.117,161.506l0.83,3.553
					L3344.117,161.506z M3287.549,202.97c0.202-0.994,0.535-2.606,0.748-3.595l2.904-13.608l-3.292,15.416L3287.549,202.97z
					 M3274.594,159.108c-0.202,0.96-0.46,2.173-0.638,2.977l-7.225,33.879l7.616-35.686L3274.594,159.108z"/>
				<path fill="#F55169" d="M3345.785,168.525l-0.839-3.467l-0.831-3.553l-0.42-1.798c-1.646-6.392-6.471-10.081-16.957-10.081
					l-16.326-0.018l-15.033-0.017h-16.924c-1.016,0-2.021,0.811-2.23,1.807l-0.746,3.536l-0.881,4.174l-0.245,1.169l-7.618,35.686
					l-7.23,33.876c-0.215,0.994-0.288,2.213-0.165,2.711c0.122,0.5,2.072,0.906,3.095,0.906h15.262c1.018,0,2.303-0.186,2.855-0.408
					c0.554-0.225,1.371-2.219,1.576-3.217l2.717-13.42l2.716-13.417c0.001-0.006,0.003-0.018,0.005-0.021l0.361-1.791l3.292-15.413
					l2.907-13.616c0.215-0.99,1.215-1.798,2.229-1.801l48.027-0.023C3345.376,170.325,3346.017,169.518,3345.785,168.525
					L3345.785,168.525z"/>
				<path fill="#F55169" d="M3407.608,137.169c-1.017,0.006-2.678,0.013-3.695,0.013h-15.372c-1.017,0-2.317,0.688-2.887,1.526
					l-33.99,49.796c-0.575,0.84-1.234,0.715-1.454-0.274l-2.501-10.972c-0.23-0.991-1.244-1.801-2.259-1.801h-21.852
					c-1.018,0-1.62,0.798-1.342,1.775l9.792,34.301c0.275,0.978,0.299,2.587,0.047,3.565l-4.271,16.603
					c-0.254,0.986,0.372,1.79,1.389,1.79h21.596c1.016,0,2.055-0.805,2.307-1.79l4.27-16.603c0.251-0.985,0.958-2.455,1.574-3.265
					l55.184-73.236c0.611-0.812,0.279-1.473-0.735-1.465L3407.608,137.169L3407.608,137.169z M3234.008,180.128l-0.003-0.021
					c-0.128,1.103-1.149,1.912-2.163,1.912h-27.7c-0.958,0-1.45-0.652-1.305-1.455c0.009-0.023,0.013-0.043,0.022-0.063
					c0,0-0.01,0.002-0.021,0.009c0.01-0.033,0.01-0.063,0.02-0.093c0,0,0.057-0.195,0.125-0.471
					c2.646-7.035,8.036-11.652,18.168-11.652C3232.556,168.294,3234.782,173.864,3234.008,180.128L3234.008,180.128z
					 M3225.879,148.151c-35.561,0-43.986,21.584-48.714,43.371c-4.729,22.206-4.32,42.966,32.478,42.966h1.305
					c0.117-0.002,0.236-0.002,0.354-0.002h2.378c0.146-0.004,0.282-0.004,0.431-0.004l1.113-0.002h0.26
					c1.455-0.002,2.935-0.01,4.414-0.015h0.074c9.716-0.039,19.465-0.111,23.411-0.144c1.009-0.02,2-0.829,2.208-1.816l1.49-7.282
					l0.289-1.416l1.777-8.686c0.205-0.994-0.46-1.81-1.477-1.81h-33.079c-13.159,0-17.067-3.496-15.628-13.775h52.883l-0.005,0.006
					c0.013,0,0.024-0.006,0.036-0.006c0.84-0.019,1.617-0.594,1.926-1.368c0.059-0.147,0.105-0.303,0.129-0.463l-0.007,0.006
					C3261.77,168.099,3259.515,148.151,3225.879,148.151L3225.879,148.151z M3057.806,180.016l-0.501,1.771l-0.001,0.006
					l-3.992,14.15l-3.992,14.15c-0.275,0.977-1.332,1.778-2.351,1.778h-21.136c-16.032,0-19.936-12.54-16.032-31.034
					c3.903-18.917,11.556-30.677,27.335-31.867C3058.7,147.343,3063.013,162.51,3057.806,180.016L3057.806,180.016z
					 M3072.302,210.782c0,0,9.964-24.194,12.228-38.171c3.099-18.707-6.269-45.837-42.447-45.837
					c-35.975,0-51.596,25.903-57.557,54.062c-5.96,28.363,1.85,53.235,37.617,53.035l28.217-0.105l26.373-0.097
					c1.016-0.008,2.054-0.815,2.313-1.795l4.593-17.523c0.256-0.983-0.365-1.792-1.38-1.796l-4.403-0.023l-4.4-0.024
					c-0.863-0.009-1.359-0.566-1.254-1.306c0.018-0.141,0.054-0.28,0.107-0.412h-0.008L3072.302,210.782L3072.302,210.782z"/>
				<path fill="#F55169" d="M3250.379,194.589c0,0.668-0.542,1.213-1.212,1.213c-0.669,0-1.212-0.545-1.212-1.213
					c0-0.67,0.543-1.21,1.212-1.21C3249.837,193.378,3250.379,193.918,3250.379,194.589z"/>
			</g>
		</g>
	</g>
	<g>
		
			<image overflow="visible" opacity="0.5" width="575" height="568" xlink:href="591671D0.png"  transform="matrix(1 0 0 1 2876.7947 -410.1646)">
		</image>
		<g>
			<g>
				<path fill="#F55169" d="M3406.226-17.722C3205.164,311.29,2766.48-60.372,2979.73-291.899
					C2949.265,116.32,3345.299,61.485,3406.226-17.722z M3101.586-328.456C2930.987-170.042,3260,104.134,3406.226-139.579
					C3345.299-78.651,3065.029-78.651,3101.586-328.456 M3223.443-365.013c-30.465,146.228,134.041,164.506,182.783,127.949
					C3266.092-90.836,3113.771-297.992,3223.443-365.013z"/>
			</g>
		</g>
	</g>
</g>
</svg>
