<?xml version="1.0" encoding="utf-8"?>
<!-- Generator: Adobe Illustrator 16.0.0, SVG Export Plug-In . SVG Version: 6.00 Build 0)  -->
<!DOCTYPE svg PUBLIC "-//W3C//DTD SVG 1.1//EN" "http://www.w3.org/Graphics/SVG/1.1/DTD/svg11.dtd">
<svg version="1.1" id="Layer_1" xmlns="http://www.w3.org/2000/svg" xmlns:xlink="http://www.w3.org/1999/xlink" x="0px" y="0px"
	 width="2148.502px" height="2148.502px" viewBox="0 0 2148.502 2148.502" enable-background="new 0 0 2148.502 2148.502"
	 xml:space="preserve">
<g>
	<path fill="#F55169" d="M710.289,1857.476l0.003-0.021l-13.572,48.09L710.289,1857.476z M780.077,1961.875l-14.952-0.086
		L780.077,1961.875z M776.232,2033.696h0.014l-89.585,0.326L776.232,2033.696z M795.016,1961.961l-14.959-0.086L795.016,1961.961z
		 M784.084,2027.592l15.604-59.513l-15.604,59.526V2027.592L784.084,2027.592z M1113.921,1753.519l-29.067,136.659
		L1113.921,1753.519z M1039.196,1753.519l-22.07,102.089l22.07-102.099V1753.519z"/>
	<path fill="#F55169" d="M1108.943,1747.37h-62.164c-3.447,0-6.87,2.767-7.607,6.139l-22.07,102.096l-22.069,102.099
		c-0.731,3.372-4.151,6.129-7.598,6.129h-43.998c-43.53,0-38.493-30.113-29.578-71.354l0.269-1.245l0.978-5.199
		c0.059-0.336,0.127-0.673,0.182-0.979l1.988-10.585l2.128-11.347c0.649-3.42,1.631-8.422,2.273-11.563l10.031-49.018l10.039-49.021
		c0.693-3.378-1.572-6.156-5.019-6.156h-63.808c-3.451,0-6.866,2.778-7.57,6.149l-13.719,65.088l-13.716,65.082
		c-0.014,0.027-0.018,0.072-0.021,0.1l-1.277,6.05c-15.803,72.146-11.611,140.939,74.27,143.093
		c1.404,0.044,2.492,0.055,2.492,0.055h134.808c3.448,0,6.864-2.771,7.584-6.149l29.073-136.648l29.069-136.662
		C1114.628,1750.138,1112.39,1747.373,1108.943,1747.37z M1356.927,1964.543c3.453,0,5.713,2.773,5.02,6.143l-6.039,29.509
		 M1349.882,2029.714l6.031-29.523l-6.035,29.53L1349.882,2029.714z M1342.312,2035.918l0.026-0.007
		c-18.288,0.147-73.263,0.563-114.583,0.563C1278.04,2036.477,1342.308,2035.918,1342.312,2035.918z M1190.673,1926.547
		c-0.055-3.228,3.628-8.797,7.079-8.797l-7.776-0.127C1186.487,1952.801,1190.673,1926.547,1190.673,1926.547z"/>
	<path fill="#F55169" d="M1233.42,2036.471c-0.395,0-0.804,0-1.212,0.006C1232.616,2036.471,1233.026,2036.471,1233.42,2036.471z
		 M1356.927,1964.543c3.453,0,5.713,2.773,5.02,6.143l-6.039,29.509l-0.982,4.81 M1262.855,2036.392h-0.251H1262.855z
		 M1247.59,2036.442h-0.896H1247.59z M1242.933,2036.457c-0.501,0-0.981,0-1.465,0.014
		C1241.952,2036.457,1242.432,2036.457,1242.933,2036.457z M1238.196,2036.471h-1.285H1238.196z M1246.7,2036.442l-3.766,0.008
		L1246.7,2036.442z M1342.356,2035.914c-13.403,0.104-46.511,0.357-79.525,0.494
		C1295.824,2036.274,1328.942,2036.018,1342.356,2035.914z M1349.882,2029.724l5.057-24.716l-5.061,24.736L1349.882,2029.724
		L1349.882,2029.724z M1241.478,2036.471h-3.282H1241.478z M1232.204,2036.477h-4.436H1232.204z M1236.898,2036.471h-3.499H1236.898
		z M327.607,1927.285l9.654-42.804l-11.038,48.932l-10.595,49.841l9.287-43.688C325.627,1936.181,326.844,1930.652,327.607,1927.285
		L327.607,1927.285z M443.175,1746.649h-68.264c-3.453,0-6.897,2.757-7.666,6.118l-6.473,28.571l-6.471,28.582
		c-0.763,3.361,1.435,6.118,4.893,6.118h68.796c3.447,0,6.876-2.757,7.618-6.128l6.255-28.572l6.256-28.552v-0.007
		C448.85,1749.406,446.633,1746.649,443.175,1746.649L443.175,1746.649z M428.319,1841.692v-0.007l-20.023,92.627L428.319,1841.692z
		 M230.006,2148.608c0,0,34.412,0.443,56.289,0.443c-16.618,0-44.06-0.31-56.316-0.45l0.034,0.007H230.006z M346.913,1841.679
		l-9.665,42.803L346.913,1841.679z"/>
	<path fill="#F55169" d="M423.383,1835.554h-68.808c-3.449,0-6.897,2.757-7.659,6.129l-9.664,42.807l-9.654,42.806
		c-0.763,3.365-1.979,8.899-2.692,12.271l-9.287,43.688l-9.28,43.703c-0.721,3.36-2.204,8.806-3.31,12.089
		c0,0-12.851,38.246-34.464,37.807c-0.899-0.012-1.799-0.028-2.698-0.048c-10.468-0.206-18.697-0.354-18.697-0.354h-0.014
		c-3.443-0.059-6.908,2.647-7.715,5.984l-7.135,29.993l-7.128,29.976c-0.799,3.357,1.364,6.111,4.794,6.174
		c12.253,0.151,39.699,0.47,56.315,0.47c53.979,0,82.431-29.921,100.672-115.966l21.348-98.779l20.023-92.627
		C429.057,1838.314,426.826,1835.554,423.383,1835.554L423.383,1835.554z M1400.769,2032.972c-3.449,0-5.674-2.767-4.947-6.146
		l51.758-242.439 M1472.7,2026.819l20.947-103.483L1472.7,2026.819z"/>
	<path fill="#F55169" d="M1396.557,2029.906c-0.423-1.689-0.175-5.834,0.556-9.215l24.566-115.077l-25.877,121.212
		c-0.729,3.379,1.504,6.152,4.94,6.152h6.286C1403.595,2032.979,1396.972,2031.595,1396.557,2029.906z M1468.609,2031.596
		c-1.879,0.758-6.242,1.376-9.699,1.376h6.286c3.45,0,6.839-2.767,7.512-6.152l1.243-6.152
		C1473.278,2024.049,1470.493,2030.826,1468.609,2031.596L1468.609,2031.596z M1483.179,1975.08l9.229-45.67
		c-0.003,0.027-0.007,0.071-0.017,0.089L1483.179,1975.08L1483.179,1975.08z M1687.409,1800.627l2.853,11.78
		c0.786,3.371-1.395,6.107-4.838,6.117 M1473.957,2020.67l9.229-45.587L1473.957,2020.67z M1684.573,1788.563l2.822,12.068
		L1684.573,1788.563z M1492.414,1929.413c0.687-3.378,1.819-8.854,2.541-12.212l9.867-46.226l-11.183,52.368L1492.414,1929.413z
		 M1448.41,1780.415c-0.69,3.262-1.565,7.382-2.167,10.111l-24.544,115.088l25.876-121.224L1448.41,1780.415z"/>
	<path fill="#F55169" d="M1690.241,1812.407l-2.85-11.78l-2.822-12.067l-1.429-6.108c-5.589-21.713-21.979-34.244-57.6-34.244
		l-55.459-0.062l-51.07-0.058h-57.487c-3.449,0-6.865,2.756-7.576,6.139l-2.538,12.009l-2.99,14.18l-0.834,3.972l-25.877,121.224
		l-24.562,115.077c-0.731,3.375-0.979,7.519-0.56,9.211c0.415,1.696,7.038,3.077,10.509,3.077h51.847
		c3.454,0,7.821-0.632,9.699-1.384c1.881-0.766,4.655-7.54,5.353-10.929l9.229-45.587l9.226-45.574
		c0.003-0.021,0.007-0.062,0.018-0.074l1.229-6.081l11.179-52.358l9.874-46.252c0.731-3.362,4.131-6.109,7.574-6.119l163.143-0.078
		C1688.851,1818.518,1691.031,1815.778,1690.241,1812.407L1690.241,1812.407z"/>
	<path fill="#F55169" d="M1900.252,1705.889c-3.454,0.024-9.098,0.045-12.552,0.045h-52.221c-3.451,0-7.872,2.335-9.806,5.184
		l-115.461,169.155c-1.954,2.856-4.192,2.431-4.941-0.93l-8.497-37.27c-0.783-3.367-4.223-6.118-7.67-6.118h-74.228
		c-3.458,0-5.507,2.71-4.56,6.029l33.262,116.52c0.934,3.32,1.016,8.789,0.161,12.112l-14.509,56.398
		c-0.866,3.349,1.264,6.081,4.714,6.081h73.362c3.45,0,6.977-2.736,7.835-6.081l14.502-56.398c0.855-3.344,3.256-8.339,5.35-11.093
		l187.454-248.776c2.077-2.758,0.951-5.002-2.496-4.979L1900.252,1705.889L1900.252,1705.889z M1310.536,1851.821l-0.008-0.072
		c-0.432,3.746-3.903,6.495-7.35,6.495h-94.094c-3.255,0-4.927-2.215-4.432-4.94c0.027-0.079,0.044-0.147,0.076-0.216
		c0,0-0.031,0.007-0.072,0.031c0.031-0.11,0.031-0.21,0.065-0.316c0,0,0.192-0.662,0.425-1.6
		c8.988-23.896,27.298-39.579,61.718-39.579C1305.606,1811.617,1313.169,1830.541,1310.536,1851.821L1310.536,1851.821z
		 M1282.925,1743.195c-120.801,0-149.421,73.32-165.479,147.326c-16.067,75.433-14.677,145.955,110.322,145.955h4.436
		c0.395-0.006,0.8-0.006,1.199-0.006h8.078c0.498-0.014,0.958-0.014,1.463-0.014l3.78-0.007h0.886
		c4.938-0.008,9.967-0.035,14.994-0.052h0.251c33.004-0.131,66.121-0.375,79.525-0.488c3.426-0.064,6.794-2.814,7.502-6.169
		l5.06-24.737l0.985-4.807l6.036-29.506c0.697-3.375-1.562-6.148-5.017-6.148h-112.368c-44.702,0-57.975-11.876-53.085-46.793
		h179.641l-0.018,0.021c0.044,0,0.082-0.021,0.123-0.021c2.854-0.064,5.494-2.018,6.541-4.648c0.199-0.501,0.356-1.03,0.436-1.572
		l-0.021,0.021C1404.845,1810.955,1397.189,1743.198,1282.925,1743.195L1282.925,1743.195z M711.988,1851.437l-1.699,6.019
		l-0.003,0.021l-13.565,48.069l-13.558,48.063c-0.938,3.319-4.525,6.042-7.986,6.042H603.38c-54.459,0-67.718-42.594-54.459-105.423
		c13.256-64.257,39.256-104.207,92.854-108.248C715.024,1740.452,729.677,1791.973,711.988,1851.437L711.988,1851.437z
		 M761.229,1955.949c0,0,33.849-82.186,41.536-129.665c10.527-63.547-21.293-155.71-144.191-155.71
		c-122.205,0-175.266,87.991-195.516,183.646c-20.246,96.349,6.279,180.839,127.784,180.155l95.85-0.357l89.588-0.329
		c3.451-0.027,6.977-2.768,7.859-6.098l15.604-59.526c0.869-3.341-1.243-6.088-4.69-6.101l-14.956-0.079l-14.952-0.079
		c-2.932-0.031-4.614-1.926-4.257-4.439c0.061-0.48,0.183-0.951,0.364-1.4h-0.024V1955.949L761.229,1955.949z"/>
	<path fill="#F55169" d="M1366.152,1900.941c0,2.272-1.844,4.123-4.12,4.123c-2.272,0-4.116-1.851-4.116-4.123
		c0-2.273,1.844-4.109,4.116-4.109C1364.308,1896.828,1366.152,1898.665,1366.152,1900.941z"/>
</g>
<g>
	<path fill="#F55169" d="M1895.559,1179.731C1212.557,2297.371-277.63,1034.853,446.767,248.365
		C343.281,1635.066,1688.589,1448.793,1895.559,1179.731z M860.707,124.183C281.19,662.306,1398.83,1593.673,1895.559,765.791
		C1688.589,972.761,736.525,972.761,860.707,124.183 M1274.648,0c-103.485,496.729,455.335,558.82,620.911,434.637
		C1419.528,931.367,902.102,227.668,1274.648,0z"/>
</g>
</svg>
