<?xml version="1.0" encoding="utf-8"?>
<!-- Generator: Adobe Illustrator 16.0.0, SVG Export Plug-In . SVG Version: 6.00 Build 0)  -->
<!DOCTYPE svg PUBLIC "-//W3C//DTD SVG 1.1//EN" "http://www.w3.org/Graphics/SVG/1.1/DTD/svg11.dtd">
<svg version="1.1" id="Layer_1" xmlns="http://www.w3.org/2000/svg" xmlns:xlink="http://www.w3.org/1999/xlink" x="0px" y="0px"
	 width="200px" height="108.25px" viewBox="0 0 200 108.25" enable-background="new 0 0 200 108.25" xml:space="preserve">
<path fill="#231F20" d="M274-109.25c0,13.807-11.193,25-25,25H99c-13.807,0-25-11.193-25-25v-26c0-13.807,11.193-25,25-25h150
	c13.807,0,25,11.193,25,25V-109.25z"/>
<polygon fill="#231F20" points="100,85.131 80.417,85.131 100,105.965 119.583,85.131 "/>
<path fill="#231F20" d="M200,74.632c0,7.731-6.267,14.001-14,14.001H14.001C6.268,88.633,0,82.363,0,74.632v-45.75
	c0-7.732,6.268-14,14.001-14H186c7.733,0,14,6.268,14,14V74.632z"/>
</svg>
